<?xml version="1.0" encoding="utf-8" standalone="no"?>
<!DOCTYPE svg PUBLIC "-//W3C//DTD SVG 1.1//EN"
  "http://www.w3.org/Graphics/SVG/1.1/DTD/svg11.dtd">
<svg xmlns:xlink="http://www.w3.org/1999/xlink" width="1105.92pt" height="548.928pt" viewBox="0 0 1105.92 548.928" xmlns="http://www.w3.org/2000/svg" version="1.1">
 <metadata>
  <rdf:RDF xmlns:dc="http://purl.org/dc/elements/1.1/" xmlns:cc="http://creativecommons.org/ns#" xmlns:rdf="http://www.w3.org/1999/02/22-rdf-syntax-ns#">
   <cc:Work>
    <dc:type rdf:resource="http://purl.org/dc/dcmitype/StillImage"/>
    <dc:date>2025-07-02T13:54:07.726279</dc:date>
    <dc:format>image/svg+xml</dc:format>
    <dc:creator>
     <cc:Agent>
      <dc:title>Matplotlib v3.7.1, https://matplotlib.org/</dc:title>
     </cc:Agent>
    </dc:creator>
   </cc:Work>
  </rdf:RDF>
 </metadata>
 <defs>
  <style type="text/css">*{stroke-linejoin: round; stroke-linecap: butt}</style>
 </defs>
 <g id="figure_1">
  <g id="patch_1">
   <path d="M 0 548.928 
L 1105.92 548.928 
L 1105.92 0 
L 0 0 
z
" style="fill: #ffffff"/>
  </g>
  <g id="axes_1">
   <g id="patch_2">
    <path d="M 110.592 356.8032 
L 995.328 356.8032 
L 995.328 27.4464 
L 110.592 27.4464 
z
" style="fill: #ffffff"/>
   </g>
   <g id="matplotlib.axis_1">
    <g id="xtick_1">
     <g id="line2d_1">
      <path d="M 150.807273 356.8032 
L 150.807273 27.4464 
" clip-path="url(#p534ecba64f)" style="fill: none; stroke: #b0b0b0; stroke-width: 0.8; stroke-linecap: square"/>
     </g>
     <g id="line2d_2">
      <defs>
       <path id="m1cdfcb4d24" d="M 0 0 
L 0 3.5 
" style="stroke: #000000; stroke-width: 0.8"/>
      </defs>
      <g>
       <use xlink:href="#m1cdfcb4d24" x="150.807273" y="356.8032" style="stroke: #000000; stroke-width: 0.8"/>
      </g>
     </g>
     <g id="text_1">
      <!-- $\mathdefault{10^{0}}$ -->
      <g transform="translate(142.007273 371.401637) scale(0.1 -0.1)">
       <defs>
        <path id="DejaVuSans-31" d="M 794 531 
L 1825 531 
L 1825 4091 
L 703 3866 
L 703 4441 
L 1819 4666 
L 2450 4666 
L 2450 531 
L 3481 531 
L 3481 0 
L 794 0 
L 794 531 
z
" transform="scale(0.015625)"/>
        <path id="DejaVuSans-30" d="M 2034 4250 
Q 1547 4250 1301 3770 
Q 1056 3291 1056 2328 
Q 1056 1369 1301 889 
Q 1547 409 2034 409 
Q 2525 409 2770 889 
Q 3016 1369 3016 2328 
Q 3016 3291 2770 3770 
Q 2525 4250 2034 4250 
z
M 2034 4750 
Q 2819 4750 3233 4129 
Q 3647 3509 3647 2328 
Q 3647 1150 3233 529 
Q 2819 -91 2034 -91 
Q 1250 -91 836 529 
Q 422 1150 422 2328 
Q 422 3509 836 4129 
Q 1250 4750 2034 4750 
z
" transform="scale(0.015625)"/>
       </defs>
       <use xlink:href="#DejaVuSans-31" transform="translate(0 0.765625)"/>
       <use xlink:href="#DejaVuSans-30" transform="translate(63.623047 0.765625)"/>
       <use xlink:href="#DejaVuSans-30" transform="translate(128.203125 39.046875) scale(0.7)"/>
      </g>
     </g>
    </g>
    <g id="xtick_2">
     <g id="line2d_3">
      <path d="M 311.664033 356.8032 
L 311.664033 27.4464 
" clip-path="url(#p534ecba64f)" style="fill: none; stroke: #b0b0b0; stroke-width: 0.8; stroke-linecap: square"/>
     </g>
     <g id="line2d_4">
      <g>
       <use xlink:href="#m1cdfcb4d24" x="311.664033" y="356.8032" style="stroke: #000000; stroke-width: 0.8"/>
      </g>
     </g>
     <g id="text_2">
      <!-- $\mathdefault{10^{1}}$ -->
      <g transform="translate(302.864033 371.401637) scale(0.1 -0.1)">
       <use xlink:href="#DejaVuSans-31" transform="translate(0 0.684375)"/>
       <use xlink:href="#DejaVuSans-30" transform="translate(63.623047 0.684375)"/>
       <use xlink:href="#DejaVuSans-31" transform="translate(128.203125 38.965625) scale(0.7)"/>
      </g>
     </g>
    </g>
    <g id="xtick_3">
     <g id="line2d_5">
      <path d="M 472.520793 356.8032 
L 472.520793 27.4464 
" clip-path="url(#p534ecba64f)" style="fill: none; stroke: #b0b0b0; stroke-width: 0.8; stroke-linecap: square"/>
     </g>
     <g id="line2d_6">
      <g>
       <use xlink:href="#m1cdfcb4d24" x="472.520793" y="356.8032" style="stroke: #000000; stroke-width: 0.8"/>
      </g>
     </g>
     <g id="text_3">
      <!-- $\mathdefault{10^{2}}$ -->
      <g transform="translate(463.720793 371.401637) scale(0.1 -0.1)">
       <defs>
        <path id="DejaVuSans-32" d="M 1228 531 
L 3431 531 
L 3431 0 
L 469 0 
L 469 531 
Q 828 903 1448 1529 
Q 2069 2156 2228 2338 
Q 2531 2678 2651 2914 
Q 2772 3150 2772 3378 
Q 2772 3750 2511 3984 
Q 2250 4219 1831 4219 
Q 1534 4219 1204 4116 
Q 875 4013 500 3803 
L 500 4441 
Q 881 4594 1212 4672 
Q 1544 4750 1819 4750 
Q 2544 4750 2975 4387 
Q 3406 4025 3406 3419 
Q 3406 3131 3298 2873 
Q 3191 2616 2906 2266 
Q 2828 2175 2409 1742 
Q 1991 1309 1228 531 
z
" transform="scale(0.015625)"/>
       </defs>
       <use xlink:href="#DejaVuSans-31" transform="translate(0 0.765625)"/>
       <use xlink:href="#DejaVuSans-30" transform="translate(63.623047 0.765625)"/>
       <use xlink:href="#DejaVuSans-32" transform="translate(128.203125 39.046875) scale(0.7)"/>
      </g>
     </g>
    </g>
    <g id="xtick_4">
     <g id="line2d_7">
      <path d="M 633.377554 356.8032 
L 633.377554 27.4464 
" clip-path="url(#p534ecba64f)" style="fill: none; stroke: #b0b0b0; stroke-width: 0.8; stroke-linecap: square"/>
     </g>
     <g id="line2d_8">
      <g>
       <use xlink:href="#m1cdfcb4d24" x="633.377554" y="356.8032" style="stroke: #000000; stroke-width: 0.8"/>
      </g>
     </g>
     <g id="text_4">
      <!-- $\mathdefault{10^{3}}$ -->
      <g transform="translate(624.577554 371.401637) scale(0.1 -0.1)">
       <defs>
        <path id="DejaVuSans-33" d="M 2597 2516 
Q 3050 2419 3304 2112 
Q 3559 1806 3559 1356 
Q 3559 666 3084 287 
Q 2609 -91 1734 -91 
Q 1441 -91 1130 -33 
Q 819 25 488 141 
L 488 750 
Q 750 597 1062 519 
Q 1375 441 1716 441 
Q 2309 441 2620 675 
Q 2931 909 2931 1356 
Q 2931 1769 2642 2001 
Q 2353 2234 1838 2234 
L 1294 2234 
L 1294 2753 
L 1863 2753 
Q 2328 2753 2575 2939 
Q 2822 3125 2822 3475 
Q 2822 3834 2567 4026 
Q 2313 4219 1838 4219 
Q 1578 4219 1281 4162 
Q 984 4106 628 3988 
L 628 4550 
Q 988 4650 1302 4700 
Q 1616 4750 1894 4750 
Q 2613 4750 3031 4423 
Q 3450 4097 3450 3541 
Q 3450 3153 3228 2886 
Q 3006 2619 2597 2516 
z
" transform="scale(0.015625)"/>
       </defs>
       <use xlink:href="#DejaVuSans-31" transform="translate(0 0.765625)"/>
       <use xlink:href="#DejaVuSans-30" transform="translate(63.623047 0.765625)"/>
       <use xlink:href="#DejaVuSans-33" transform="translate(128.203125 39.046875) scale(0.7)"/>
      </g>
     </g>
    </g>
    <g id="xtick_5">
     <g id="line2d_9">
      <path d="M 794.234314 356.8032 
L 794.234314 27.4464 
" clip-path="url(#p534ecba64f)" style="fill: none; stroke: #b0b0b0; stroke-width: 0.8; stroke-linecap: square"/>
     </g>
     <g id="line2d_10">
      <g>
       <use xlink:href="#m1cdfcb4d24" x="794.234314" y="356.8032" style="stroke: #000000; stroke-width: 0.8"/>
      </g>
     </g>
     <g id="text_5">
      <!-- $\mathdefault{10^{4}}$ -->
      <g transform="translate(785.434314 371.401637) scale(0.1 -0.1)">
       <defs>
        <path id="DejaVuSans-34" d="M 2419 4116 
L 825 1625 
L 2419 1625 
L 2419 4116 
z
M 2253 4666 
L 3047 4666 
L 3047 1625 
L 3713 1625 
L 3713 1100 
L 3047 1100 
L 3047 0 
L 2419 0 
L 2419 1100 
L 313 1100 
L 313 1709 
L 2253 4666 
z
" transform="scale(0.015625)"/>
       </defs>
       <use xlink:href="#DejaVuSans-31" transform="translate(0 0.684375)"/>
       <use xlink:href="#DejaVuSans-30" transform="translate(63.623047 0.684375)"/>
       <use xlink:href="#DejaVuSans-34" transform="translate(128.203125 38.965625) scale(0.7)"/>
      </g>
     </g>
    </g>
    <g id="xtick_6">
     <g id="line2d_11">
      <path d="M 955.091074 356.8032 
L 955.091074 27.4464 
" clip-path="url(#p534ecba64f)" style="fill: none; stroke: #b0b0b0; stroke-width: 0.8; stroke-linecap: square"/>
     </g>
     <g id="line2d_12">
      <g>
       <use xlink:href="#m1cdfcb4d24" x="955.091074" y="356.8032" style="stroke: #000000; stroke-width: 0.8"/>
      </g>
     </g>
     <g id="text_6">
      <!-- $\mathdefault{10^{5}}$ -->
      <g transform="translate(946.291074 371.401637) scale(0.1 -0.1)">
       <defs>
        <path id="DejaVuSans-35" d="M 691 4666 
L 3169 4666 
L 3169 4134 
L 1269 4134 
L 1269 2991 
Q 1406 3038 1543 3061 
Q 1681 3084 1819 3084 
Q 2600 3084 3056 2656 
Q 3513 2228 3513 1497 
Q 3513 744 3044 326 
Q 2575 -91 1722 -91 
Q 1428 -91 1123 -41 
Q 819 9 494 109 
L 494 744 
Q 775 591 1075 516 
Q 1375 441 1709 441 
Q 2250 441 2565 725 
Q 2881 1009 2881 1497 
Q 2881 1984 2565 2268 
Q 2250 2553 1709 2553 
Q 1456 2553 1204 2497 
Q 953 2441 691 2322 
L 691 4666 
z
" transform="scale(0.015625)"/>
       </defs>
       <use xlink:href="#DejaVuSans-31" transform="translate(0 0.684375)"/>
       <use xlink:href="#DejaVuSans-30" transform="translate(63.623047 0.684375)"/>
       <use xlink:href="#DejaVuSans-35" transform="translate(128.203125 38.965625) scale(0.7)"/>
      </g>
     </g>
    </g>
    <g id="xtick_7">
     <g id="line2d_13">
      <defs>
       <path id="m2cb879b8cb" d="M 0 0 
L 0 2 
" style="stroke: #000000; stroke-width: 0.6"/>
      </defs>
      <g>
       <use xlink:href="#m2cb879b8cb" x="115.121402" y="356.8032" style="stroke: #000000; stroke-width: 0.6"/>
      </g>
     </g>
    </g>
    <g id="xtick_8">
     <g id="line2d_14">
      <g>
       <use xlink:href="#m2cb879b8cb" x="125.890245" y="356.8032" style="stroke: #000000; stroke-width: 0.6"/>
      </g>
     </g>
    </g>
    <g id="xtick_9">
     <g id="line2d_15">
      <g>
       <use xlink:href="#m2cb879b8cb" x="135.218642" y="356.8032" style="stroke: #000000; stroke-width: 0.6"/>
      </g>
     </g>
    </g>
    <g id="xtick_10">
     <g id="line2d_16">
      <g>
       <use xlink:href="#m2cb879b8cb" x="143.446871" y="356.8032" style="stroke: #000000; stroke-width: 0.6"/>
      </g>
     </g>
    </g>
    <g id="xtick_11">
     <g id="line2d_17">
      <g>
       <use xlink:href="#m2cb879b8cb" x="199.229983" y="356.8032" style="stroke: #000000; stroke-width: 0.6"/>
      </g>
     </g>
    </g>
    <g id="xtick_12">
     <g id="line2d_18">
      <g>
       <use xlink:href="#m2cb879b8cb" x="227.555452" y="356.8032" style="stroke: #000000; stroke-width: 0.6"/>
      </g>
     </g>
    </g>
    <g id="xtick_13">
     <g id="line2d_19">
      <g>
       <use xlink:href="#m2cb879b8cb" x="247.652692" y="356.8032" style="stroke: #000000; stroke-width: 0.6"/>
      </g>
     </g>
    </g>
    <g id="xtick_14">
     <g id="line2d_20">
      <g>
       <use xlink:href="#m2cb879b8cb" x="263.241323" y="356.8032" style="stroke: #000000; stroke-width: 0.6"/>
      </g>
     </g>
    </g>
    <g id="xtick_15">
     <g id="line2d_21">
      <g>
       <use xlink:href="#m2cb879b8cb" x="275.978162" y="356.8032" style="stroke: #000000; stroke-width: 0.6"/>
      </g>
     </g>
    </g>
    <g id="xtick_16">
     <g id="line2d_22">
      <g>
       <use xlink:href="#m2cb879b8cb" x="286.747006" y="356.8032" style="stroke: #000000; stroke-width: 0.6"/>
      </g>
     </g>
    </g>
    <g id="xtick_17">
     <g id="line2d_23">
      <g>
       <use xlink:href="#m2cb879b8cb" x="296.075402" y="356.8032" style="stroke: #000000; stroke-width: 0.6"/>
      </g>
     </g>
    </g>
    <g id="xtick_18">
     <g id="line2d_24">
      <g>
       <use xlink:href="#m2cb879b8cb" x="304.303631" y="356.8032" style="stroke: #000000; stroke-width: 0.6"/>
      </g>
     </g>
    </g>
    <g id="xtick_19">
     <g id="line2d_25">
      <g>
       <use xlink:href="#m2cb879b8cb" x="360.086743" y="356.8032" style="stroke: #000000; stroke-width: 0.6"/>
      </g>
     </g>
    </g>
    <g id="xtick_20">
     <g id="line2d_26">
      <g>
       <use xlink:href="#m2cb879b8cb" x="388.412212" y="356.8032" style="stroke: #000000; stroke-width: 0.6"/>
      </g>
     </g>
    </g>
    <g id="xtick_21">
     <g id="line2d_27">
      <g>
       <use xlink:href="#m2cb879b8cb" x="408.509453" y="356.8032" style="stroke: #000000; stroke-width: 0.6"/>
      </g>
     </g>
    </g>
    <g id="xtick_22">
     <g id="line2d_28">
      <g>
       <use xlink:href="#m2cb879b8cb" x="424.098083" y="356.8032" style="stroke: #000000; stroke-width: 0.6"/>
      </g>
     </g>
    </g>
    <g id="xtick_23">
     <g id="line2d_29">
      <g>
       <use xlink:href="#m2cb879b8cb" x="436.834922" y="356.8032" style="stroke: #000000; stroke-width: 0.6"/>
      </g>
     </g>
    </g>
    <g id="xtick_24">
     <g id="line2d_30">
      <g>
       <use xlink:href="#m2cb879b8cb" x="447.603766" y="356.8032" style="stroke: #000000; stroke-width: 0.6"/>
      </g>
     </g>
    </g>
    <g id="xtick_25">
     <g id="line2d_31">
      <g>
       <use xlink:href="#m2cb879b8cb" x="456.932163" y="356.8032" style="stroke: #000000; stroke-width: 0.6"/>
      </g>
     </g>
    </g>
    <g id="xtick_26">
     <g id="line2d_32">
      <g>
       <use xlink:href="#m2cb879b8cb" x="465.160392" y="356.8032" style="stroke: #000000; stroke-width: 0.6"/>
      </g>
     </g>
    </g>
    <g id="xtick_27">
     <g id="line2d_33">
      <g>
       <use xlink:href="#m2cb879b8cb" x="520.943503" y="356.8032" style="stroke: #000000; stroke-width: 0.6"/>
      </g>
     </g>
    </g>
    <g id="xtick_28">
     <g id="line2d_34">
      <g>
       <use xlink:href="#m2cb879b8cb" x="549.268973" y="356.8032" style="stroke: #000000; stroke-width: 0.6"/>
      </g>
     </g>
    </g>
    <g id="xtick_29">
     <g id="line2d_35">
      <g>
       <use xlink:href="#m2cb879b8cb" x="569.366213" y="356.8032" style="stroke: #000000; stroke-width: 0.6"/>
      </g>
     </g>
    </g>
    <g id="xtick_30">
     <g id="line2d_36">
      <g>
       <use xlink:href="#m2cb879b8cb" x="584.954844" y="356.8032" style="stroke: #000000; stroke-width: 0.6"/>
      </g>
     </g>
    </g>
    <g id="xtick_31">
     <g id="line2d_37">
      <g>
       <use xlink:href="#m2cb879b8cb" x="597.691683" y="356.8032" style="stroke: #000000; stroke-width: 0.6"/>
      </g>
     </g>
    </g>
    <g id="xtick_32">
     <g id="line2d_38">
      <g>
       <use xlink:href="#m2cb879b8cb" x="608.460526" y="356.8032" style="stroke: #000000; stroke-width: 0.6"/>
      </g>
     </g>
    </g>
    <g id="xtick_33">
     <g id="line2d_39">
      <g>
       <use xlink:href="#m2cb879b8cb" x="617.788923" y="356.8032" style="stroke: #000000; stroke-width: 0.6"/>
      </g>
     </g>
    </g>
    <g id="xtick_34">
     <g id="line2d_40">
      <g>
       <use xlink:href="#m2cb879b8cb" x="626.017152" y="356.8032" style="stroke: #000000; stroke-width: 0.6"/>
      </g>
     </g>
    </g>
    <g id="xtick_35">
     <g id="line2d_41">
      <g>
       <use xlink:href="#m2cb879b8cb" x="681.800264" y="356.8032" style="stroke: #000000; stroke-width: 0.6"/>
      </g>
     </g>
    </g>
    <g id="xtick_36">
     <g id="line2d_42">
      <g>
       <use xlink:href="#m2cb879b8cb" x="710.125733" y="356.8032" style="stroke: #000000; stroke-width: 0.6"/>
      </g>
     </g>
    </g>
    <g id="xtick_37">
     <g id="line2d_43">
      <g>
       <use xlink:href="#m2cb879b8cb" x="730.222973" y="356.8032" style="stroke: #000000; stroke-width: 0.6"/>
      </g>
     </g>
    </g>
    <g id="xtick_38">
     <g id="line2d_44">
      <g>
       <use xlink:href="#m2cb879b8cb" x="745.811604" y="356.8032" style="stroke: #000000; stroke-width: 0.6"/>
      </g>
     </g>
    </g>
    <g id="xtick_39">
     <g id="line2d_45">
      <g>
       <use xlink:href="#m2cb879b8cb" x="758.548443" y="356.8032" style="stroke: #000000; stroke-width: 0.6"/>
      </g>
     </g>
    </g>
    <g id="xtick_40">
     <g id="line2d_46">
      <g>
       <use xlink:href="#m2cb879b8cb" x="769.317287" y="356.8032" style="stroke: #000000; stroke-width: 0.6"/>
      </g>
     </g>
    </g>
    <g id="xtick_41">
     <g id="line2d_47">
      <g>
       <use xlink:href="#m2cb879b8cb" x="778.645683" y="356.8032" style="stroke: #000000; stroke-width: 0.6"/>
      </g>
     </g>
    </g>
    <g id="xtick_42">
     <g id="line2d_48">
      <g>
       <use xlink:href="#m2cb879b8cb" x="786.873912" y="356.8032" style="stroke: #000000; stroke-width: 0.6"/>
      </g>
     </g>
    </g>
    <g id="xtick_43">
     <g id="line2d_49">
      <g>
       <use xlink:href="#m2cb879b8cb" x="842.657024" y="356.8032" style="stroke: #000000; stroke-width: 0.6"/>
      </g>
     </g>
    </g>
    <g id="xtick_44">
     <g id="line2d_50">
      <g>
       <use xlink:href="#m2cb879b8cb" x="870.982493" y="356.8032" style="stroke: #000000; stroke-width: 0.6"/>
      </g>
     </g>
    </g>
    <g id="xtick_45">
     <g id="line2d_51">
      <g>
       <use xlink:href="#m2cb879b8cb" x="891.079734" y="356.8032" style="stroke: #000000; stroke-width: 0.6"/>
      </g>
     </g>
    </g>
    <g id="xtick_46">
     <g id="line2d_52">
      <g>
       <use xlink:href="#m2cb879b8cb" x="906.668364" y="356.8032" style="stroke: #000000; stroke-width: 0.6"/>
      </g>
     </g>
    </g>
    <g id="xtick_47">
     <g id="line2d_53">
      <g>
       <use xlink:href="#m2cb879b8cb" x="919.405203" y="356.8032" style="stroke: #000000; stroke-width: 0.6"/>
      </g>
     </g>
    </g>
    <g id="xtick_48">
     <g id="line2d_54">
      <g>
       <use xlink:href="#m2cb879b8cb" x="930.174047" y="356.8032" style="stroke: #000000; stroke-width: 0.6"/>
      </g>
     </g>
    </g>
    <g id="xtick_49">
     <g id="line2d_55">
      <g>
       <use xlink:href="#m2cb879b8cb" x="939.502444" y="356.8032" style="stroke: #000000; stroke-width: 0.6"/>
      </g>
     </g>
    </g>
    <g id="xtick_50">
     <g id="line2d_56">
      <g>
       <use xlink:href="#m2cb879b8cb" x="947.730673" y="356.8032" style="stroke: #000000; stroke-width: 0.6"/>
      </g>
     </g>
    </g>
    <g id="text_7">
     <!-- budget -->
     <g transform="translate(535.231875 385.079763) scale(0.1 -0.1)">
      <defs>
       <path id="DejaVuSans-62" d="M 3116 1747 
Q 3116 2381 2855 2742 
Q 2594 3103 2138 3103 
Q 1681 3103 1420 2742 
Q 1159 2381 1159 1747 
Q 1159 1113 1420 752 
Q 1681 391 2138 391 
Q 2594 391 2855 752 
Q 3116 1113 3116 1747 
z
M 1159 2969 
Q 1341 3281 1617 3432 
Q 1894 3584 2278 3584 
Q 2916 3584 3314 3078 
Q 3713 2572 3713 1747 
Q 3713 922 3314 415 
Q 2916 -91 2278 -91 
Q 1894 -91 1617 61 
Q 1341 213 1159 525 
L 1159 0 
L 581 0 
L 581 4863 
L 1159 4863 
L 1159 2969 
z
" transform="scale(0.015625)"/>
       <path id="DejaVuSans-75" d="M 544 1381 
L 544 3500 
L 1119 3500 
L 1119 1403 
Q 1119 906 1312 657 
Q 1506 409 1894 409 
Q 2359 409 2629 706 
Q 2900 1003 2900 1516 
L 2900 3500 
L 3475 3500 
L 3475 0 
L 2900 0 
L 2900 538 
Q 2691 219 2414 64 
Q 2138 -91 1772 -91 
Q 1169 -91 856 284 
Q 544 659 544 1381 
z
M 1991 3584 
L 1991 3584 
z
" transform="scale(0.015625)"/>
       <path id="DejaVuSans-64" d="M 2906 2969 
L 2906 4863 
L 3481 4863 
L 3481 0 
L 2906 0 
L 2906 525 
Q 2725 213 2448 61 
Q 2172 -91 1784 -91 
Q 1150 -91 751 415 
Q 353 922 353 1747 
Q 353 2572 751 3078 
Q 1150 3584 1784 3584 
Q 2172 3584 2448 3432 
Q 2725 3281 2906 2969 
z
M 947 1747 
Q 947 1113 1208 752 
Q 1469 391 1925 391 
Q 2381 391 2643 752 
Q 2906 1113 2906 1747 
Q 2906 2381 2643 2742 
Q 2381 3103 1925 3103 
Q 1469 3103 1208 2742 
Q 947 2381 947 1747 
z
" transform="scale(0.015625)"/>
       <path id="DejaVuSans-67" d="M 2906 1791 
Q 2906 2416 2648 2759 
Q 2391 3103 1925 3103 
Q 1463 3103 1205 2759 
Q 947 2416 947 1791 
Q 947 1169 1205 825 
Q 1463 481 1925 481 
Q 2391 481 2648 825 
Q 2906 1169 2906 1791 
z
M 3481 434 
Q 3481 -459 3084 -895 
Q 2688 -1331 1869 -1331 
Q 1566 -1331 1297 -1286 
Q 1028 -1241 775 -1147 
L 775 -588 
Q 1028 -725 1275 -790 
Q 1522 -856 1778 -856 
Q 2344 -856 2625 -561 
Q 2906 -266 2906 331 
L 2906 616 
Q 2728 306 2450 153 
Q 2172 0 1784 0 
Q 1141 0 747 490 
Q 353 981 353 1791 
Q 353 2603 747 3093 
Q 1141 3584 1784 3584 
Q 2172 3584 2450 3431 
Q 2728 3278 2906 2969 
L 2906 3500 
L 3481 3500 
L 3481 434 
z
" transform="scale(0.015625)"/>
       <path id="DejaVuSans-65" d="M 3597 1894 
L 3597 1613 
L 953 1613 
Q 991 1019 1311 708 
Q 1631 397 2203 397 
Q 2534 397 2845 478 
Q 3156 559 3463 722 
L 3463 178 
Q 3153 47 2828 -22 
Q 2503 -91 2169 -91 
Q 1331 -91 842 396 
Q 353 884 353 1716 
Q 353 2575 817 3079 
Q 1281 3584 2069 3584 
Q 2775 3584 3186 3129 
Q 3597 2675 3597 1894 
z
M 3022 2063 
Q 3016 2534 2758 2815 
Q 2500 3097 2075 3097 
Q 1594 3097 1305 2825 
Q 1016 2553 972 2059 
L 3022 2063 
z
" transform="scale(0.015625)"/>
       <path id="DejaVuSans-74" d="M 1172 4494 
L 1172 3500 
L 2356 3500 
L 2356 3053 
L 1172 3053 
L 1172 1153 
Q 1172 725 1289 603 
Q 1406 481 1766 481 
L 2356 481 
L 2356 0 
L 1766 0 
Q 1100 0 847 248 
Q 594 497 594 1153 
L 594 3053 
L 172 3053 
L 172 3500 
L 594 3500 
L 594 4494 
L 1172 4494 
z
" transform="scale(0.015625)"/>
      </defs>
      <use xlink:href="#DejaVuSans-62"/>
      <use xlink:href="#DejaVuSans-75" x="63.476562"/>
      <use xlink:href="#DejaVuSans-64" x="126.855469"/>
      <use xlink:href="#DejaVuSans-67" x="190.332031"/>
      <use xlink:href="#DejaVuSans-65" x="253.808594"/>
      <use xlink:href="#DejaVuSans-74" x="315.332031"/>
     </g>
    </g>
   </g>
   <g id="matplotlib.axis_2">
    <g id="ytick_1">
     <g id="line2d_57">
      <path d="M 110.592 300.541901 
L 995.328 300.541901 
" clip-path="url(#p534ecba64f)" style="fill: none; stroke: #b0b0b0; stroke-width: 0.8; stroke-linecap: square"/>
     </g>
     <g id="line2d_58">
      <defs>
       <path id="m6ff978b3ea" d="M 0 0 
L -3.5 0 
" style="stroke: #000000; stroke-width: 0.8"/>
      </defs>
      <g>
       <use xlink:href="#m6ff978b3ea" x="110.592" y="300.541901" style="stroke: #000000; stroke-width: 0.8"/>
      </g>
     </g>
     <g id="text_8">
      <!-- 26 -->
      <g transform="translate(90.867 304.34112) scale(0.1 -0.1)">
       <defs>
        <path id="DejaVuSans-36" d="M 2113 2584 
Q 1688 2584 1439 2293 
Q 1191 2003 1191 1497 
Q 1191 994 1439 701 
Q 1688 409 2113 409 
Q 2538 409 2786 701 
Q 3034 994 3034 1497 
Q 3034 2003 2786 2293 
Q 2538 2584 2113 2584 
z
M 3366 4563 
L 3366 3988 
Q 3128 4100 2886 4159 
Q 2644 4219 2406 4219 
Q 1781 4219 1451 3797 
Q 1122 3375 1075 2522 
Q 1259 2794 1537 2939 
Q 1816 3084 2150 3084 
Q 2853 3084 3261 2657 
Q 3669 2231 3669 1497 
Q 3669 778 3244 343 
Q 2819 -91 2113 -91 
Q 1303 -91 875 529 
Q 447 1150 447 2328 
Q 447 3434 972 4092 
Q 1497 4750 2381 4750 
Q 2619 4750 2861 4703 
Q 3103 4656 3366 4563 
z
" transform="scale(0.015625)"/>
       </defs>
       <use xlink:href="#DejaVuSans-32"/>
       <use xlink:href="#DejaVuSans-36" x="63.623047"/>
      </g>
     </g>
    </g>
    <g id="ytick_2">
     <g id="line2d_59">
      <path d="M 110.592 243.083808 
L 995.328 243.083808 
" clip-path="url(#p534ecba64f)" style="fill: none; stroke: #b0b0b0; stroke-width: 0.8; stroke-linecap: square"/>
     </g>
     <g id="line2d_60">
      <g>
       <use xlink:href="#m6ff978b3ea" x="110.592" y="243.083808" style="stroke: #000000; stroke-width: 0.8"/>
      </g>
     </g>
     <g id="text_9">
      <!-- 28 -->
      <g transform="translate(90.867 246.883027) scale(0.1 -0.1)">
       <defs>
        <path id="DejaVuSans-38" d="M 2034 2216 
Q 1584 2216 1326 1975 
Q 1069 1734 1069 1313 
Q 1069 891 1326 650 
Q 1584 409 2034 409 
Q 2484 409 2743 651 
Q 3003 894 3003 1313 
Q 3003 1734 2745 1975 
Q 2488 2216 2034 2216 
z
M 1403 2484 
Q 997 2584 770 2862 
Q 544 3141 544 3541 
Q 544 4100 942 4425 
Q 1341 4750 2034 4750 
Q 2731 4750 3128 4425 
Q 3525 4100 3525 3541 
Q 3525 3141 3298 2862 
Q 3072 2584 2669 2484 
Q 3125 2378 3379 2068 
Q 3634 1759 3634 1313 
Q 3634 634 3220 271 
Q 2806 -91 2034 -91 
Q 1263 -91 848 271 
Q 434 634 434 1313 
Q 434 1759 690 2068 
Q 947 2378 1403 2484 
z
M 1172 3481 
Q 1172 3119 1398 2916 
Q 1625 2713 2034 2713 
Q 2441 2713 2670 2916 
Q 2900 3119 2900 3481 
Q 2900 3844 2670 4047 
Q 2441 4250 2034 4250 
Q 1625 4250 1398 4047 
Q 1172 3844 1172 3481 
z
" transform="scale(0.015625)"/>
       </defs>
       <use xlink:href="#DejaVuSans-32"/>
       <use xlink:href="#DejaVuSans-38" x="63.623047"/>
      </g>
     </g>
    </g>
    <g id="ytick_3">
     <g id="line2d_61">
      <path d="M 110.592 185.625715 
L 995.328 185.625715 
" clip-path="url(#p534ecba64f)" style="fill: none; stroke: #b0b0b0; stroke-width: 0.8; stroke-linecap: square"/>
     </g>
     <g id="line2d_62">
      <g>
       <use xlink:href="#m6ff978b3ea" x="110.592" y="185.625715" style="stroke: #000000; stroke-width: 0.8"/>
      </g>
     </g>
     <g id="text_10">
      <!-- 30 -->
      <g transform="translate(90.867 189.424934) scale(0.1 -0.1)">
       <use xlink:href="#DejaVuSans-33"/>
       <use xlink:href="#DejaVuSans-30" x="63.623047"/>
      </g>
     </g>
    </g>
    <g id="ytick_4">
     <g id="line2d_63">
      <path d="M 110.592 128.167622 
L 995.328 128.167622 
" clip-path="url(#p534ecba64f)" style="fill: none; stroke: #b0b0b0; stroke-width: 0.8; stroke-linecap: square"/>
     </g>
     <g id="line2d_64">
      <g>
       <use xlink:href="#m6ff978b3ea" x="110.592" y="128.167622" style="stroke: #000000; stroke-width: 0.8"/>
      </g>
     </g>
     <g id="text_11">
      <!-- 32 -->
      <g transform="translate(90.867 131.966841) scale(0.1 -0.1)">
       <use xlink:href="#DejaVuSans-33"/>
       <use xlink:href="#DejaVuSans-32" x="63.623047"/>
      </g>
     </g>
    </g>
    <g id="ytick_5">
     <g id="line2d_65">
      <path d="M 110.592 70.709529 
L 995.328 70.709529 
" clip-path="url(#p534ecba64f)" style="fill: none; stroke: #b0b0b0; stroke-width: 0.8; stroke-linecap: square"/>
     </g>
     <g id="line2d_66">
      <g>
       <use xlink:href="#m6ff978b3ea" x="110.592" y="70.709529" style="stroke: #000000; stroke-width: 0.8"/>
      </g>
     </g>
     <g id="text_12">
      <!-- 34 -->
      <g transform="translate(90.867 74.508747) scale(0.1 -0.1)">
       <use xlink:href="#DejaVuSans-33"/>
       <use xlink:href="#DejaVuSans-34" x="63.623047"/>
      </g>
     </g>
    </g>
    <g id="text_13">
     <!-- fitness -->
     <g transform="translate(84.787313 208.688863) rotate(-90) scale(0.1 -0.1)">
      <defs>
       <path id="DejaVuSans-66" d="M 2375 4863 
L 2375 4384 
L 1825 4384 
Q 1516 4384 1395 4259 
Q 1275 4134 1275 3809 
L 1275 3500 
L 2222 3500 
L 2222 3053 
L 1275 3053 
L 1275 0 
L 697 0 
L 697 3053 
L 147 3053 
L 147 3500 
L 697 3500 
L 697 3744 
Q 697 4328 969 4595 
Q 1241 4863 1831 4863 
L 2375 4863 
z
" transform="scale(0.015625)"/>
       <path id="DejaVuSans-69" d="M 603 3500 
L 1178 3500 
L 1178 0 
L 603 0 
L 603 3500 
z
M 603 4863 
L 1178 4863 
L 1178 4134 
L 603 4134 
L 603 4863 
z
" transform="scale(0.015625)"/>
       <path id="DejaVuSans-6e" d="M 3513 2113 
L 3513 0 
L 2938 0 
L 2938 2094 
Q 2938 2591 2744 2837 
Q 2550 3084 2163 3084 
Q 1697 3084 1428 2787 
Q 1159 2491 1159 1978 
L 1159 0 
L 581 0 
L 581 3500 
L 1159 3500 
L 1159 2956 
Q 1366 3272 1645 3428 
Q 1925 3584 2291 3584 
Q 2894 3584 3203 3211 
Q 3513 2838 3513 2113 
z
" transform="scale(0.015625)"/>
       <path id="DejaVuSans-73" d="M 2834 3397 
L 2834 2853 
Q 2591 2978 2328 3040 
Q 2066 3103 1784 3103 
Q 1356 3103 1142 2972 
Q 928 2841 928 2578 
Q 928 2378 1081 2264 
Q 1234 2150 1697 2047 
L 1894 2003 
Q 2506 1872 2764 1633 
Q 3022 1394 3022 966 
Q 3022 478 2636 193 
Q 2250 -91 1575 -91 
Q 1294 -91 989 -36 
Q 684 19 347 128 
L 347 722 
Q 666 556 975 473 
Q 1284 391 1588 391 
Q 1994 391 2212 530 
Q 2431 669 2431 922 
Q 2431 1156 2273 1281 
Q 2116 1406 1581 1522 
L 1381 1569 
Q 847 1681 609 1914 
Q 372 2147 372 2553 
Q 372 3047 722 3315 
Q 1072 3584 1716 3584 
Q 2034 3584 2315 3537 
Q 2597 3491 2834 3397 
z
" transform="scale(0.015625)"/>
      </defs>
      <use xlink:href="#DejaVuSans-66"/>
      <use xlink:href="#DejaVuSans-69" x="35.205078"/>
      <use xlink:href="#DejaVuSans-74" x="62.988281"/>
      <use xlink:href="#DejaVuSans-6e" x="102.197266"/>
      <use xlink:href="#DejaVuSans-65" x="165.576172"/>
      <use xlink:href="#DejaVuSans-73" x="227.099609"/>
      <use xlink:href="#DejaVuSans-73" x="279.199219"/>
     </g>
    </g>
   </g>
   <g id="line2d_67">
    <path d="M 150.807273 341.832436 
L 473.215916 125.290982 
L 521.291929 76.32261 
L 549.501449 61.842596 
L 569.540643 59.500891 
L 585.094423 58.766002 
L 597.808018 58.556567 
L 608.659839 53.805358 
L 617.963353 52.116377 
L 640.162748 52.050013 
L 640.226113 51.798921 
L 646.230727 51.714745 
L 646.288822 51.479167 
L 661.842602 50.02519 
L 666.342496 49.834429 
L 666.386063 48.728935 
L 678.363872 48.712847 
L 681.974694 48.386772 
L 694.653437 48.234796 
L 697.50058 48.208652 
L 700.236215 48.124476 
L 719.01321 47.514271 
L 721.034156 47.348792 
L 722.998277 47.057192 
L 732.101161 46.588908 
L 735.388869 45.141252 
L 744.55691 44.806846 
L 770.416363 44.795354 
L 771.391929 44.32506 
L 786.242333 43.674634 
L 799.091349 43.520072 
L 799.720628 43.067589 
L 800.363489 43.020474 
L 813.247353 42.913027 
L 897.723736 42.546732 
L 908.329275 42.428081 
L 908.465578 42.417164 
L 955.092471 42.417164 
L 955.093869 42.417164 
L 955.094567 42.417164 
L 955.096663 42.417164 
L 955.105045 42.417164 
L 955.10714 42.417164 
L 955.108537 42.417164 
L 955.111331 42.417164 
" clip-path="url(#p534ecba64f)" style="fill: none; stroke: #8000ff; stroke-width: 1.5; stroke-linecap: square"/>
   </g>
   <g id="line2d_68">
    <path d="M 150.807273 341.832436 
L 426.838011 307.639412 
L 432.015135 306.440262 
L 435.66079 304.863325 
L 436.834922 303.834825 
L 441.343532 302.152452 
L 443.493215 302.046154 
L 476.591413 298.530294 
L 480.437845 298.345566 
L 482.284451 296.783855 
L 483.48895 294.896356 
L 490.849352 292.850848 
L 492.443167 291.841597 
L 493.485861 291.680427 
L 508.763314 290.235931 
L 509.59006 289.915314 
L 512.802544 289.117796 
L 514.355034 287.573035 
L 514.737825 286.218748 
L 518.454617 285.277872 
L 520.241395 284.683755 
L 521.98361 283.440362 
L 522.326899 281.769193 
L 530.402763 280.185361 
L 531.010238 279.111469 
L 531.312007 277.416743 
L 537.088784 275.628934 
L 540.073515 273.112557 
L 541.128013 271.493101 
L 543.190427 269.628298 
L 546.900637 268.995685 
L 548.801685 268.378872 
L 549.03572 267.683342 
L 549.964095 267.049004 
L 553.995552 265.374101 
L 554.64541 265.314345 
L 556.768953 264.688051 
L 557.60062 263.530845 
L 559.436442 263.281477 
L 560.435876 261.002115 
L 562.969402 260.705056 
L 563.351147 258.325142 
L 568.132853 256.844734 
L 568.487469 255.05118 
L 570.578175 254.93454 
L 571.2614 253.520209 
L 571.938008 249.973034 
L 572.774655 249.005152 
L 573.601401 248.867253 
L 575.065326 247.489982 
L 575.706241 246.698497 
L 580.184938 246.533592 
L 581.95736 245.420629 
L 582.103052 242.945622 
L 582.970879 240.986301 
L 584.252735 240.649883 
L 585.094423 239.98337 
L 585.92609 238.463028 
L 586.201126 237.503766 
L 589.550723 236.714866 
L 590.589541 236.690159 
L 591.231044 235.398788 
L 591.993152 231.499395 
L 593.245142 230.659932 
L 593.862823 230.431249 
L 594.353065 230.397923 
L 594.961069 229.064895 
L 595.323347 227.106724 
L 598.27143 226.528982 
L 599.530189 226.076787 
L 599.643505 225.629476 
L 601.100125 225.42119 
L 601.872057 224.467673 
L 602.200292 222.712041 
L 603.175844 222.58075 
L 603.498024 222.119074 
L 603.818724 220.735483 
L 606.126596 220.575175 
L 607.150943 219.982782 
L 607.758418 218.924404 
L 609.056768 218.853156 
L 609.352991 218.525645 
L 610.622306 217.784148 
L 610.911978 217.357522 
L 611.104428 215.163197 
L 611.583245 211.907621 
L 611.773857 211.766849 
L 613.280313 210.855277 
L 614.021532 208.367628 
L 615.209487 207.414973 
L 616.109747 207.176809 
L 616.288415 206.876016 
L 617.701544 206.774315 
L 617.963353 206.38475 
L 618.570451 203.891643 
L 619.000885 203.633943 
L 619.938606 203.117108 
L 620.612766 201.206339 
L 623.969272 199.686285 
L 625.549865 197.279366 
L 625.627963 195.807864 
L 626.172222 194.20938 
L 626.789085 191.810217 
L 628.157426 189.893128 
L 628.532812 187.380198 
L 629.054987 187.121062 
L 629.794245 186.470062 
L 630.961023 186.152319 
L 631.680486 184.582276 
L 631.894887 183.225116 
L 632.108633 180.879677 
L 632.534173 179.028951 
L 634.486453 178.786766 
L 634.760949 178.433398 
L 635.238738 178.320206 
L 637.05162 177.723216 
L 637.514047 177.374158 
L 637.711297 175.923916 
L 638.299726 174.579397 
L 638.689276 174.404437 
L 640.352669 172.370708 
L 642.22401 169.506709 
L 642.714682 169.32629 
L 643.080438 169.063707 
L 643.504747 166.779173 
L 643.986536 164.351569 
L 645.176671 161.030778 
L 645.353455 159.819849 
L 647.554839 159.113114 
L 648.066214 159.07117 
L 648.179347 158.560655 
L 649.411859 155.422581 
L 650.020055 154.264226 
L 650.40435 152.037438 
L 652.294742 150.918728 
L 652.348008 149.498939 
L 652.98406 143.522723 
L 653.247382 143.061622 
L 653.718874 142.99813 
L 655.063357 140.535764 
L 656.332175 140.232385 
L 656.633292 139.177167 
L 657.032774 136.911882 
L 657.677099 136.216352 
L 657.923343 134.634243 
L 658.462042 132.535012 
L 658.94819 131.201122 
L 659.141706 130.15165 
L 660.101326 129.366485 
L 660.765302 128.661474 
L 661.282605 128.514956 
L 662.074615 127.352866 
L 662.398145 125.059714 
L 662.857747 125.003117 
L 663.268819 124.195544 
L 663.948609 121.518571 
L 664.75572 121.064652 
L 665.509524 120.906643 
L 666.080524 120.45732 
L 666.342496 117.308042 
L 666.690271 117.096022 
L 667.036324 117.080508 
L 667.466493 116.164914 
L 667.723328 114.436287 
L 668.10682 112.937205 
L 668.572691 111.596995 
L 669.41185 111.532642 
L 670.034671 111.229838 
L 670.24105 108.748797 
L 670.446821 108.706853 
L 670.52896 107.668011 
L 671.426171 107.632099 
L 671.709248 104.128592 
L 672.031366 104.1013 
L 672.271983 103.593657 
L 673.186748 103.435648 
L 673.69854 103.025397 
L 673.816115 102.635831 
L 674.011635 102.374684 
L 674.362197 99.160765 
L 674.788288 98.247182 
L 675.250168 95.852903 
L 675.441721 95.746606 
L 675.823258 93.298316 
L 676.99295 92.049752 
L 677.328902 91.493845 
L 677.626176 90.332617 
L 678.839231 90.097039 
L 679.238947 89.465861 
L 679.275171 88.967412 
L 680.067398 88.159552 
L 680.317597 86.59152 
L 680.815324 85.308481 
L 681.274345 85.178913 
L 681.870088 84.197816 
L 682.252879 83.302044 
L 682.460793 83.298597 
L 682.737054 80.76096 
L 683.559339 80.628807 
L 683.865218 80.592033 
L 684.169763 80.319682 
L 684.640877 79.543998 
L 685.208706 79.021129 
L 686.10117 74.405808 
L 686.787512 73.923447 
L 686.820027 73.427297 
L 687.40273 71.836857 
L 687.788516 71.752968 
L 688.458557 70.199301 
L 688.775379 68.56548 
L 688.933253 68.493945 
L 689.059296 67.768824 
L 689.686121 67.500782 
L 689.904188 65.931888 
L 690.831126 65.852596 
L 691.987862 64.539966 
L 692.108517 63.734691 
L 692.469237 63.474406 
L 692.947317 61.721646 
L 693.540353 60.597766 
L 693.776165 60.578805 
L 694.478862 60.377702 
L 694.566204 59.027437 
L 694.914485 58.955327 
L 695.347409 57.309727 
L 696.432289 57.179872 
L 696.630311 57.170966 
L 697.27703 56.700958 
L 697.332985 55.948832 
L 697.973261 55.856612 
L 698.580256 55.668724 
L 699.399568 55.666138 
L 699.859615 55.412461 
L 700.503978 55.236639 
L 701.274736 55.225722 
L 702.324086 53.924296 
L 704.427202 53.844429 
L 704.729733 53.627812 
L 705.405674 53.534443 
L 706.738246 52.644992 
L 707.079618 52.589544 
L 709.093543 48.772603 
L 709.376565 48.657687 
L 710.125733 48.631831 
L 711.623185 47.261743 
L 714.525102 46.985944 
L 716.656894 46.958939 
L 718.746141 46.779095 
L 738.264662 46.143896 
L 739.758457 45.891367 
L 748.940049 45.491746 
L 750.197853 45.234334 
L 753.890641 45.042711 
L 757.457146 44.828967 
L 827.836967 43.258925 
L 835.525231 42.93917 
L 947.000332 42.786906 
L 947.078726 42.671703 
L 951.730225 42.417164 
L 955.112727 42.417164 
L 955.112727 42.417164 
" clip-path="url(#p534ecba64f)" style="fill: none; stroke: #4e4dfc; stroke-width: 1.5; stroke-linecap: square"/>
   </g>
   <g id="line2d_69">
    <path d="M 150.807273 341.832436 
L 446.59858 332.791693 
L 448.594693 314.830867 
L 451.485831 276.487071 
L 453.348854 245.681201 
L 454.262059 220.38585 
L 456.053419 197.535054 
L 456.932163 160.504175 
L 461.984426 127.048626 
L 489.218324 122.622054 
L 490.849352 119.108492 
L 491.384674 115.294136 
L 492.443167 109.567288 
L 492.966459 103.576707 
L 497.017403 102.049758 
L 498.477927 92.534985 
L 500.846263 86.183855 
L 501.310445 81.421154 
L 513.193913 79.642826 
L 513.970134 79.570716 
L 514.355034 78.150926 
L 515.11853 78.009292 
L 516.248353 75.826459 
L 519.887677 74.366449 
L 521.638625 70.201886 
L 523.683431 69.475616 
L 524.351945 64.157582 
L 533.095743 63.533875 
L 536.532134 63.085414 
L 537.641033 62.614258 
L 539.807384 62.551054 
L 540.338635 61.344721 
L 549.501449 60.609832 
L 560.435876 60.400398 
L 573.106528 60.041572 
L 575.065326 56.928205 
L 576.024506 55.084375 
L 581.07677 54.865172 
L 581.665062 53.632696 
L 583.114475 52.771399 
L 609.549778 51.994566 
L 614.389213 51.758988 
L 625.627963 51.651254 
L 627.476606 51.38551 
L 629.129266 50.280016 
L 630.160961 50.221696 
L 645.822704 49.895622 
L 650.732072 49.554321 
L 669.744712 49.514675 
L 671.830216 49.495713 
L 681.695396 48.885508 
L 682.009527 48.628096 
L 683.491184 48.462617 
L 685.208706 48.171017 
L 690.461825 47.952389 
L 692.048216 46.427451 
L 697.360945 45.829887 
L 700.956832 45.813799 
L 703.970936 45.523348 
L 709.658446 45.492895 
L 710.520484 45.158489 
L 739.682233 44.971176 
L 749.379542 44.32075 
L 754.374355 44.161591 
L 757.799275 43.339366 
L 758.256755 43.020474 
L 776.229152 42.913027 
L 860.391951 42.546732 
L 905.352476 42.417164 
L 955.091074 42.417164 
L 955.091773 42.417164 
L 955.092471 42.417164 
L 955.09317 42.417164 
L 955.093869 42.417164 
L 955.095964 42.417164 
L 955.102251 42.417164 
L 955.104346 42.417164 
" clip-path="url(#p534ecba64f)" style="fill: none; stroke: #18cde4; stroke-width: 1.5; stroke-linecap: square"/>
   </g>
   <g id="line2d_70">
    <path d="M 150.807273 341.832436 
L 426.838011 177.832674 
L 474.585748 154.044736 
L 475.260721 153.473028 
L 475.929235 152.364087 
L 476.591413 151.020717 
L 502.684769 138.796795 
L 503.136934 137.698196 
L 503.586191 133.115051 
L 504.032577 130.081264 
L 523.008458 127.555406 
L 523.346759 125.328905 
L 523.683431 120.502712 
L 524.683819 119.63136 
L 538.732606 116.424624 
L 539.002854 116.407387 
L 539.272062 115.347859 
L 539.540236 115.005409 
L 540.073515 112.675484 
L 551.559644 105.531432 
L 551.784633 104.847967 
L 552.0089 103.625259 
L 552.23245 101.007756 
L 552.898839 95.015739 
L 562.392844 91.061185 
L 562.585559 88.451151 
L 563.160535 85.828477 
L 563.54124 85.323133 
L 564.296482 82.842092 
L 571.769469 79.223094 
L 572.27387 74.770954 
L 573.271876 74.333985 
L 579.885113 74.295488 
L 580.33437 74.059336 
L 580.632277 71.16 
L 581.371535 69.654311 
L 587.828987 68.497105 
L 587.962945 67.651896 
L 588.096647 64.300366 
L 594.47509 63.503997 
L 594.596902 62.218084 
L 600.65516 59.401201 
L 606.126596 58.753649 
L 606.229709 56.155681 
L 611.296349 55.515598 
L 616.199138 54.283122 
L 628.3829 54.186305 
L 653.875334 53.173893 
L 656.883236 53.157805 
L 656.933118 52.971353 
L 659.430979 51.55415 
L 662.167206 51.446416 
L 662.352018 51.267434 
L 664.666501 51.180672 
L 674.981109 50.585406 
L 676.918074 50.514733 
L 678.72982 49.887578 
L 678.80278 49.722098 
L 680.637971 49.430498 
L 688.076464 49.089197 
L 699.751641 48.809377 
L 701.115965 48.763123 
L 717.227176 48.168719 
L 718.291837 47.521166 
L 724.530759 47.230715 
L 729.184875 46.783691 
L 729.220319 46.557307 
L 730.118106 46.207387 
L 732.794768 45.723302 
L 733.648047 45.083219 
L 736.195194 45.052766 
L 738.590781 44.939574 
L 746.851711 44.6474 
L 758.104594 44.049835 
L 767.681543 43.715429 
L 770.406538 43.528116 
L 804.046553 43.256052 
L 807.400628 42.546732 
L 869.197091 42.417164 
L 955.091074 42.417164 
L 955.091773 42.417164 
L 955.092471 42.417164 
" clip-path="url(#p534ecba64f)" style="fill: none; stroke: #4df3ce; stroke-width: 1.5; stroke-linecap: square"/>
   </g>
   <g id="line2d_71">
    <path d="M 150.807273 341.832436 
L 446.59858 340.2713 
L 448.594693 336.107025 
L 451.485831 328.721936 
L 453.348854 325.297146 
L 454.262059 322.326563 
L 456.053419 319.208599 
L 456.932163 311.005308 
L 461.984426 305.866256 
L 494.00143 304.401649 
L 496.026476 301.799085 
L 498.477927 299.308563 
L 498.958061 296.222202 
L 500.846263 292.856594 
L 501.310445 290.089987 
L 503.586191 287.396352 
L 504.476129 281.630432 
L 508.346243 276.915995 
L 521.638625 275.241379 
L 525.670082 270.324978 
L 525.995767 268.192708 
L 528.547985 264.883983 
L 528.860555 262.390302 
L 531.312007 257.586518 
L 531.91166 254.755271 
L 535.120789 250.906153 
L 541.128013 249.595821 
L 543.190427 247.271067 
L 544.698238 245.183614 
L 545.193696 243.32542 
L 548.094841 240.746988 
L 548.331251 238.47136 
L 550.652368 234.079263 
L 550.880294 231.446821 
L 554.212844 227.779271 
L 555.71525 226.759102 
L 558.01277 224.818455 
L 559.436442 219.87275 
L 563.351147 215.355969 
L 565.414253 211.397681 
L 565.598822 209.549541 
L 567.418175 208.645438 
L 568.840294 205.881704 
L 570.920623 202.693642 
L 571.2614 200.774829 
L 575.546562 198.749144 
L 575.706241 196.415483 
L 577.283265 194.159966 
L 577.594442 190.730867 
L 580.33437 188.945931 
L 580.92892 186.94524 
L 581.224308 185.097675 
L 585.649966 183.264475 
L 586.063743 180.321471 
L 587.155316 178.767804 
L 587.560298 176.177306 
L 588.496224 173.922651 
L 589.811879 172.936095 
L 591.103214 170.973614 
L 593.739723 170.306238 
L 594.961069 166.55681 
L 596.042316 162.261818 
L 596.280337 159.389201 
L 597.224395 158.581627 
L 599.756637 156.735786 
L 600.543475 155.584038 
L 601.98164 153.7856 
L 602.091052 153.394023 
L 603.175844 148.949065 
L 603.818724 147.523242 
L 603.925298 145.720495 
L 606.43548 145.077539 
L 607.252556 143.429066 
L 607.859152 143.418436 
L 608.759283 140.72595 
L 609.549778 138.970893 
L 609.941696 136.746403 
L 610.525481 135.723936 
L 610.718997 134.624475 
L 613.187105 133.787311 
L 614.754969 129.723874 
L 615.480785 128.997029 
L 615.751034 126.025584 
L 616.555563 125.01346 
L 616.733096 123.853381 
L 617.963353 123.842751 
L 619.172319 123.097807 
L 619.769045 121.654747 
L 620.023233 120.375155 
L 620.528851 119.623029 
L 620.947421 118.103262 
L 621.197365 115.765292 
L 622.024111 114.847112 
L 622.188292 113.868314 
L 622.433843 113.83269 
L 624.921912 111.28586 
L 625.315044 108.893592 
L 625.861737 107.517183 
L 626.017152 106.608771 
L 626.558399 106.598141 
L 627.019011 105.685419 
L 627.248183 104.835614 
L 627.855658 104.567285 
L 629.203466 104.431396 
L 629.425594 102.838945 
L 630.087771 101.594978 
L 630.38007 101.3752 
L 630.452954 98.084863 
L 631.608872 97.218107 
L 631.894887 96.165762 
L 633.377554 95.773036 
L 633.586818 94.884734 
L 634.41766 94.787343 
L 634.623836 93.682136 
L 634.692426 92.523494 
L 635.848274 92.29596 
L 636.184621 91.924206 
L 637.05162 91.573712 
L 637.448173 90.999992 
L 638.169391 90.566184 
L 638.624502 89.443165 
L 638.818645 88.462643 
L 639.653754 86.625708 
L 640.162748 84.79538 
L 640.478997 84.568995 
L 641.044662 83.770041 
L 641.667852 81.507341 
L 642.714682 79.538252 
L 643.2626 78.979759 
L 643.685808 78.871738 
L 643.8664 78.500559 
L 644.405394 77.967635 
L 644.94026 77.757913 
L 646.288822 76.089043 
L 646.69414 73.694477 
L 647.44069 72.82571 
L 647.554839 72.457117 
L 648.009579 72.266356 
L 648.910275 71.556174 
L 649.578256 70.136384 
L 649.688968 69.320479 
L 650.513762 69.178558 
L 650.895358 68.700219 
L 651.920734 68.022788 
L 652.613734 67.830016 
L 652.772686 67.439301 
L 653.614373 67.230441 
L 654.135324 66.582601 
L 654.806804 65.51072 
L 655.420955 65.078061 
L 655.675266 64.594551 
L 655.928655 64.507789 
L 657.231662 64.224808 
L 657.528935 63.601101 
L 658.070673 63.410053 
L 658.462042 62.904421 
L 661.047942 62.356271 
L 662.536344 62.085069 
L 662.99504 60.721014 
L 664.844827 60.550363 
L 665.28866 60.511866 
L 665.465407 60.204753 
L 665.817565 60.192974 
L 668.021781 59.90712 
L 672.511775 58.705097 
L 674.594932 57.777436 
L 676.617766 57.290766 
L 678.510481 57.250832 
L 679.600351 56.720781 
L 681.625397 55.873274 
L 685.408019 54.737041 
L 690.492675 53.724055 
L 700.98338 53.254909 
L 702.402156 52.388154 
L 704.199442 51.858678 
L 706.346053 51.728535 
L 735.193958 51.648668 
L 736.849505 50.935613 
L 737.654944 50.700035 
L 752.202652 50.566732 
L 752.875173 50.091841 
L 754.163917 49.990715 
L 764.920362 49.861434 
L 765.544629 48.879188 
L 766.610883 48.78783 
L 780.82923 48.537887 
L 798.81711 48.390794 
L 799.539562 48.009273 
L 800.561581 47.68406 
L 800.886256 47.654469 
L 801.20943 47.362869 
L 803.019193 47.21118 
L 803.650852 46.921016 
L 836.103092 45.144987 
L 850.120392 44.873784 
L 850.442967 44.706294 
L 858.240066 44.468992 
L 858.527317 43.705661 
L 862.914756 43.541331 
L 897.945708 43.39625 
L 898.108566 42.701294 
L 902.828681 42.661935 
L 902.903923 42.546732 
L 955.105045 42.417164 
L 955.105045 42.417164 
" clip-path="url(#p534ecba64f)" style="fill: none; stroke: #80ffb4; stroke-width: 1.5; stroke-linecap: square"/>
   </g>
   <g id="line2d_72">
    <path d="M 150.807273 341.832436 
L 199.229983 336.747395 
L 227.555452 329.423212 
L 247.652692 329.278992 
L 263.241323 318.752669 
L 275.978162 316.636775 
L 296.075402 314.662515 
L 304.303631 309.811903 
L 311.664033 304.778861 
L 318.322326 298.802358 
L 324.400872 295.487888 
L 329.992592 286.543099 
L 335.169715 278.744887 
L 339.989502 273.768728 
L 344.498112 271.560039 
L 348.7333 269.877666 
L 352.726341 265.321814 
L 356.503434 257.01165 
L 360.086743 256.215855 
L 363.495185 254.175806 
L 366.745036 250.281296 
L 369.850401 245.005207 
L 375.675374 235.621438 
L 378.415301 230.09397 
L 381.051811 218.801156 
L 386.043877 218.020301 
L 388.412212 216.870852 
L 390.702883 213.88734 
L 392.920822 213.332869 
L 395.070506 211.499382 
L 397.15601 211.372687 
L 399.181056 209.488348 
L 403.063122 201.490182 
L 404.926144 201.356017 
L 406.740771 195.43927 
L 408.509453 194.638879 
L 411.917895 189.82504 
L 413.561717 187.492529 
L 415.167746 183.116807 
L 416.737682 176.980858 
L 418.273111 175.093647 
L 419.775517 171.978556 
L 421.246291 171.966777 
L 422.686738 169.732232 
L 424.098083 167.233092 
L 425.481479 164.309912 
L 428.168703 162.716886 
L 430.756377 162.102084 
L 432.015135 161.76854 
L 433.251614 158.650577 
L 434.466587 154.029797 
L 435.66079 153.377935 
L 436.834922 151.184185 
L 437.989646 149.662695 
L 439.125593 147.314957 
L 440.243364 146.782033 
L 443.493215 145.032721 
L 445.57872 143.114483 
L 446.59858 141.361437 
L 447.603766 138.55346 
L 449.571761 137.815698 
L 451.485831 134.914926 
L 452.423553 134.629072 
L 453.348854 133.591091 
L 454.262059 129.800868 
L 455.163481 129.261049 
L 457.79999 126.985422 
L 458.657169 125.465655 
L 460.340605 125.23927 
L 462.792056 122.231052 
L 463.590456 120.719042 
L 464.379834 120.122914 
L 471.109448 119.093265 
L 471.818685 118.632451 
L 472.520793 116.370326 
L 473.215916 115.913247 
L 473.904189 114.387735 
L 475.260721 113.738746 
L 477.247373 112.472944 
L 478.541099 112.365784 
L 479.179087 111.703005 
L 480.437845 111.678586 
L 481.674323 110.259083 
L 482.284451 108.015058 
L 488.109424 107.508564 
L 489.218324 104.36101 
L 491.915925 103.081706 
L 492.966459 102.364054 
L 495.02129 102.356872 
L 498.958061 101.356814 
L 499.434918 99.093539 
L 504.032577 96.191331 
L 505.790134 95.875599 
L 507.079879 93.822334 
L 507.504556 92.841812 
L 508.763314 91.690064 
L 509.999793 91.099682 
L 512.40897 90.875883 
L 514.737825 90.767862 
L 516.248353 90.544924 
L 519.887677 90.324573 
L 522.326899 87.015561 
L 524.683819 86.623122 
L 525.670082 84.883004 
L 526.963808 84.867777 
L 528.234011 84.397483 
L 533.970817 83.813134 
L 537.365454 80.584851 
L 541.389169 78.778943 
L 546.659327 77.114382 
L 551.784633 76.933389 
L 552.455287 76.407935 
L 554.64541 75.875873 
L 555.289278 74.907992 
L 557.39363 74.475332 
L 560.435876 74.161611 
L 563.351147 73.621792 
L 563.919882 73.342833 
L 565.414253 71.925342 
L 572.774655 71.378054 
L 575.865555 69.964297 
L 576.656721 69.023708 
L 581.518453 68.802495 
L 581.665062 68.680109 
L 583.969904 68.628971 
L 586.884017 68.063009 
L 589.419778 65.939358 
L 590.072063 64.358973 
L 593.369116 63.272728 
L 607.758418 62.681771 
L 619.599071 61.526576 
L 620.780294 61.488079 
L 623.488036 60.919819 
L 623.568472 59.507499 
L 625.000716 59.192629 
L 625.627963 58.546225 
L 627.400548 56.966702 
L 627.855658 56.243305 
L 636.318708 56.10167 
L 636.985309 54.49112 
L 639.97231 54.399474 
L 642.22401 53.102645 
L 653.247382 52.556793 
L 664.173744 52.531799 
L 664.933819 51.114308 
L 666.298902 50.56271 
L 668.361316 50.462446 
L 677.067746 49.80886 
L 681.098155 49.673546 
L 682.702581 48.675499 
L 682.84037 48.300872 
L 684.13599 48.158951 
L 688.933253 48.033118 
L 691.045653 47.458824 
L 693.540353 47.345344 
L 696.517225 45.933312 
L 706.370629 45.733932 
L 774.267356 45.608673 
L 774.313826 45.398951 
L 775.25514 45.163948 
L 778.53207 45.051043 
L 805.962592 44.684747 
L 830.821123 44.538516 
L 830.986441 44.225083 
L 831.188424 44.185149 
L 831.680623 43.797307 
L 839.425799 43.750191 
L 839.550071 43.514613 
L 840.222411 43.356603 
L 840.25134 43.180207 
L 867.826833 42.807879 
L 870.590182 42.546732 
L 955.091074 42.417164 
L 955.091074 42.417164 
" clip-path="url(#p534ecba64f)" style="fill: none; stroke: #ff0000; stroke-width: 1.5; stroke-linecap: square"/>
   </g>
   <g id="line2d_73">
    <path d="M 150.807273 341.832436 
L 473.215916 323.14965 
L 521.291929 305.896134 
L 549.501449 291.797067 
L 569.540643 282.609805 
L 585.094423 275.252296 
L 597.808018 264.661908 
L 608.560254 252.127712 
L 617.876192 237.434241 
L 626.09473 227.225662 
L 633.447378 215.898948 
L 640.099326 206.405147 
L 646.172584 195.929388 
L 651.759829 185.681162 
L 656.933118 176.127892 
L 661.74958 168.570429 
L 666.255281 162.778941 
L 670.487902 156.777156 
L 674.478662 150.169188 
L 678.253713 143.605175 
L 681.835184 134.910904 
L 685.241964 130.518232 
L 688.490304 120.453586 
L 691.594288 112.07993 
L 694.566204 103.247185 
L 697.416832 99.057628 
L 700.155686 91.659899 
L 702.7912 82.404549 
L 705.330891 78.166153 
L 707.781483 72.847257 
L 710.149015 69.859724 
L 712.438935 67.36949 
L 714.65617 63.085702 
L 716.805192 58.989514 
L 718.890074 58.06645 
L 720.914534 56.574551 
L 722.881974 55.777319 
L 724.795521 54.702853 
L 726.658046 53.625801 
L 728.472202 53.292257 
L 730.240436 52.746692 
L 731.965016 52.304265 
L 733.648047 51.144761 
L 735.291482 49.176246 
L 736.897142 47.838335 
L 738.466725 47.421189 
L 740.001816 46.246746 
L 741.5039 45.950262 
L 763.07888 45.904008 
L 764.161654 45.658949 
L 765.227902 44.13947 
L 766.278121 43.953018 
L 767.312784 43.868842 
L 768.332347 43.831207 
L 769.337243 43.747031 
L 773.21823 43.696181 
L 774.1557 43.38131 
L 775.080756 43.05581 
L 775.993723 43.006684 
L 776.894912 42.929115 
L 777.784623 42.842066 
L 778.663146 42.816497 
L 779.530758 42.761625 
L 780.387726 42.715371 
L 811.496134 42.684631 
L 836.087744 42.611659 
L 836.470431 42.578908 
L 836.851032 42.571726 
L 955.106442 42.571726 
L 955.10714 42.571726 
L 955.107838 42.571726 
L 955.108537 42.571726 
L 955.110632 42.571726 
L 955.111331 42.571726 
" clip-path="url(#p534ecba64f)" style="fill: none; stroke: #1996f3; stroke-width: 1.5; stroke-linecap: square"/>
   </g>
   <g id="line2d_74">
    <path d="M 150.807273 341.832436 
L 199.229983 334.079329 
L 227.555452 330.420397 
L 247.652692 326.579611 
L 263.241323 322.256464 
L 275.978162 319.587823 
L 286.747006 317.030076 
L 296.075402 312.955148 
L 304.303631 310.227612 
L 311.664033 307.06397 
L 318.322326 306.101259 
L 324.400872 303.776218 
L 329.992592 297.7164 
L 335.169715 296.082579 
L 344.498112 292.37251 
L 348.7333 289.956397 
L 352.726341 289.65704 
L 356.503434 288.036435 
L 360.086743 287.928701 
L 363.495185 285.958463 
L 366.745036 284.391006 
L 369.850401 282.238339 
L 372.823582 279.392727 
L 375.675374 275.295677 
L 381.051811 268.063427 
L 386.043877 267.962301 
L 388.412212 267.766369 
L 390.702883 264.795785 
L 392.920822 262.248093 
L 395.070506 262.236314 
L 397.15601 260.341921 
L 403.063122 258.150757 
L 404.926144 257.204709 
L 406.740771 256.923739 
L 408.509453 254.092492 
L 413.561717 249.101394 
L 416.737682 248.999981 
L 418.273111 247.987857 
L 419.775517 245.578639 
L 421.246291 245.496761 
L 424.098083 243.948265 
L 425.481479 237.52876 
L 426.838011 236.152064 
L 428.168703 235.266347 
L 429.474521 234.58001 
L 430.756377 233.549787 
L 432.015135 233.498362 
L 434.466587 232.196361 
L 439.125593 230.60822 
L 440.243364 230.484972 
L 441.343532 226.516916 
L 442.426642 220.733472 
L 443.493215 219.60442 
L 446.59858 219.009729 
L 449.571761 218.126598 
L 450.535351 211.07333 
L 451.485831 210.433821 
L 453.348854 209.626535 
L 455.163481 209.071777 
L 456.053419 206.376705 
L 456.932163 205.47289 
L 457.79999 204.752365 
L 458.657169 203.768683 
L 459.503957 203.653479 
L 463.590456 203.325106 
L 465.160392 201.982023 
L 465.932324 200.319186 
L 467.451063 199.076942 
L 468.937485 194.502703 
L 470.392937 194.190418 
L 471.109448 192.599404 
L 472.520793 190.694668 
L 473.215916 190.396461 
L 473.904189 187.902779 
L 476.591413 187.572683 
L 477.247373 186.39077 
L 478.541099 185.507639 
L 479.179087 184.338941 
L 480.437845 183.472186 
L 482.284451 180.670242 
L 482.889297 179.101349 
L 485.83738 178.221091 
L 486.982638 178.098992 
L 488.666074 175.816757 
L 489.766242 173.611802 
L 490.309896 171.210629 
L 490.849352 170.841748 
L 492.966459 169.125187 
L 494.513221 168.584219 
L 498.958061 162.800488 
L 501.771564 160.860128 
L 502.229659 158.034626 
L 503.586191 157.565193 
L 504.916882 156.916204 
L 505.354872 154.685394 
L 507.079879 153.502619 
L 508.346243 151.656778 
L 509.17791 151.206881 
L 509.999793 148.014509 
L 511.214766 147.31352 
L 511.615106 143.16677 
L 512.802544 142.9536 
L 513.970134 141.589832 
L 515.873772 139.652058 
L 516.991544 139.361608 
L 518.815647 137.093162 
L 519.532158 135.849194 
L 520.241395 132.959627 
L 520.943503 131.59471 
L 521.638625 128.736744 
L 522.668509 126.889467 
L 523.683431 126.258577 
L 524.351945 122.949852 
L 524.683819 122.493348 
L 525.342873 121.169226 
L 526.963808 119.35039 
L 528.547985 118.28799 
L 529.789959 117.927153 
L 530.707161 116.48553 
L 531.312007 115.22059 
L 532.209568 111.362853 
L 533.680342 111.136468 
L 534.835066 110.470242 
L 535.971013 107.837799 
L 538.188952 107.61084 
L 538.461308 102.592737 
L 538.732606 101.067225 
L 539.272062 99.98098 
L 540.073515 97.220406 
L 540.338635 97.181909 
L 540.602753 94.465577 
L 543.190427 94.425644 
L 545.685664 94.192077 
L 546.174192 93.515508 
L 546.417181 90.745166 
L 547.141117 90.457301 
L 550.194274 88.626111 
L 550.652368 86.979075 
L 552.898839 84.948219 
L 554.212844 84.80601 
L 555.502589 83.88783 
L 555.927266 81.669085 
L 557.806999 79.933276 
L 558.422503 79.723554 
L 559.032631 77.081344 
L 560.237129 76.861279 
L 561.028744 76.545835 
L 561.811488 75.577953 
L 565.229196 73.406899 
L 566.14962 72.974239 
L 566.332259 72.581513 
L 568.310386 72.069562 
L 571.600523 70.946831 
L 572.106141 69.978949 
L 572.27387 67.593002 
L 578.977838 67.568582 
L 596.280337 66.006584 
L 599.075078 65.879889 
L 599.189134 65.745724 
L 602.200292 63.670338 
L 626.865811 63.611443 
L 627.171876 63.281634 
L 627.628474 62.377818 
L 628.906192 62.086218 
L 629.941162 62.014108 
L 630.888667 61.140171 
L 631.249698 59.722679 
L 632.816433 58.961647 
L 633.097556 58.58702 
L 635.238738 57.62431 
L 651.598554 57.140513 
L 653.036804 56.516805 
L 653.457327 56.166023 
L 654.44604 55.535708 
L 672.988903 54.570412 
L 683.695451 54.499451 
L 685.903828 53.749336 
L 686.820027 52.726582 
L 688.648823 52.595003 
L 689.561205 52.004621 
L 690.554334 51.98566 
L 691.654983 51.061159 
L 694.827578 50.891945 
L 696.006057 49.988129 
L 700.128822 49.723822 
L 700.956832 48.916823 
L 738.590781 47.710778 
L 741.578163 47.296505 
L 764.88847 46.921016 
L 768.514298 46.533461 
L 768.926983 46.063167 
L 777.421211 45.875854 
L 778.80269 45.440034 
L 784.264267 45.026623 
L 826.744545 44.289723 
L 861.025874 44.258696 
L 862.152638 43.8924 
L 875.889472 43.661993 
L 876.880919 43.523232 
L 919.861289 43.38562 
L 925.962869 42.896364 
L 939.417688 42.787194 
L 939.448282 42.577472 
L 955.091074 42.577472 
L 955.091074 42.577472 
" clip-path="url(#p534ecba64f)" style="fill: none; stroke: #e6cd73; stroke-width: 1.5; stroke-linecap: square"/>
   </g>
   <g id="line2d_75">
    <path d="M 150.807273 341.832436 
L 425.481479 305.866256 
L 473.215916 276.915995 
L 501.310445 250.906153 
L 521.291929 227.505483 
L 536.811013 207.735877 
L 549.501449 190.521145 
L 560.237129 174.531419 
L 569.540643 160.384087 
L 577.749513 146.971645 
L 585.094423 134.052193 
L 591.740038 123.451749 
L 597.808018 113.374174 
L 603.390795 104.406402 
L 608.560254 96.705581 
L 613.373397 90.55498 
L 617.876192 85.871858 
L 622.10625 80.177473 
L 626.09473 76.852661 
L 629.867742 71.525721 
L 633.447378 68.782959 
L 636.852497 65.445506 
L 640.099326 64.295769 
L 643.201932 63.152928 
L 646.172584 61.837425 
L 649.022049 61.03531 
L 651.759829 60.859201 
L 654.39435 60.728196 
L 656.933118 60.689699 
L 664.083777 60.673324 
L 666.298902 59.567255 
L 668.445943 58.560302 
L 670.52896 57.816794 
L 672.55166 57.301683 
L 674.51744 56.927056 
L 676.429415 56.580009 
L 678.290452 56.288696 
L 680.103195 56.233824 
L 690.090562 55.819551 
L 691.624642 54.855979 
L 693.125757 54.423319 
L 694.595294 54.331674 
L 694.624372 54.236293 
L 696.034554 54.197796 
L 696.063039 53.971124 
L 697.472675 53.899014 
L 712.483977 53.83265 
L 713.600676 53.693602 
L 714.699805 53.573802 
L 715.781908 53.458885 
L 720.95443 53.395107 
L 720.97437 52.683776 
L 721.944515 52.301105 
L 722.920763 51.970721 
L 723.883557 51.735143 
L 725.770229 50.812078 
L 742.287099 50.203597 
L 743.018004 49.961699 
L 743.74134 49.848506 
L 743.755731 49.75054 
L 744.457264 49.731866 
L 744.471508 49.604884 
L 745.165925 49.597414 
L 745.180025 49.542542 
L 745.867469 49.458653 
L 745.881428 49.412399 
L 753.16502 49.283118 
L 768.372822 49.275649 
L 768.876786 49.143208 
L 769.37714 49.057021 
L 769.873937 49.035761 
L 770.367225 49.033176 
L 772.315828 48.993817 
L 772.792229 48.702792 
L 773.265404 47.87166 
L 773.735395 47.421476 
L 774.202245 47.299091 
L 774.665996 47.226981 
L 775.126689 47.19739 
L 775.584364 46.90579 
L 782.120626 46.893149 
L 782.534829 46.722786 
L 782.94659 46.602698 
L 787.707233 46.041907 
L 804.963227 46.025819 
L 806.157227 45.873555 
L 806.451099 45.697159 
L 806.743741 45.551215 
L 807.035161 45.406996 
L 807.325371 45.396366 
L 822.857215 45.293516 
L 833.790166 45.258754 
L 833.988168 45.138954 
L 838.959641 45.022314 
L 839.143539 44.909983 
L 839.326955 44.854823 
L 842.190909 44.468992 
L 842.366505 44.019095 
L 842.541661 43.705661 
L 889.55424 43.640734 
L 889.643434 43.501972 
L 889.732516 43.386769 
L 898.910968 42.968187 
L 898.988988 42.913027 
L 955.091074 42.913027 
" clip-path="url(#p534ecba64f)" style="fill: none; stroke: #b2f396; stroke-width: 1.5; stroke-linecap: square"/>
   </g>
   <g id="line2d_76">
    <path d="M 150.807273 341.832436 
L 199.229983 334.079329 
L 227.555452 332.712401 
L 247.652692 328.696654 
L 263.241323 325.440792 
L 275.978162 323.321737 
L 286.747006 321.900798 
L 296.075402 320.509738 
L 304.303631 317.73681 
L 311.664033 314.003184 
L 329.992592 311.678142 
L 335.169715 307.430265 
L 339.989502 306.605167 
L 344.498112 305.16498 
L 348.7333 304.974219 
L 356.503434 302.207899 
L 360.086743 300.484443 
L 363.495185 299.521733 
L 369.850401 296.783855 
L 381.051811 294.197953 
L 383.592425 289.463119 
L 386.043877 285.994374 
L 388.412212 284.529767 
L 392.920822 283.092453 
L 395.070506 281.005001 
L 397.15601 279.476615 
L 403.063122 278.532866 
L 410.234459 272.316188 
L 411.917895 271.953053 
L 415.167746 270.401684 
L 418.273111 269.944318 
L 419.775517 269.461382 
L 424.098083 267.669839 
L 426.838011 266.998441 
L 428.168703 266.148923 
L 429.474521 266.062162 
L 434.466587 263.085545 
L 435.66079 262.958563 
L 437.989646 260.387888 
L 440.243364 257.69023 
L 443.493215 256.401445 
L 444.54375 255.389321 
L 445.57872 250.759635 
L 448.594693 250.563703 
L 449.571761 249.29905 
L 451.485831 248.413334 
L 455.163481 248.401555 
L 457.79999 247.82525 
L 459.503957 245.234465 
L 460.340605 245.152587 
L 461.984426 243.63282 
L 462.792056 241.934646 
L 468.198227 241.677809 
L 468.937485 240.773993 
L 471.109448 238.388046 
L 472.520793 236.25003 
L 473.215916 236.198605 
L 474.585748 234.021231 
L 475.929235 233.960612 
L 477.247373 233.756061 
L 479.811301 233.66499 
L 484.0835 228.612413 
L 484.673033 223.744563 
L 485.83738 222.196068 
L 487.548303 219.078104 
L 488.109424 218.467325 
L 489.218324 216.824885 
L 490.309896 212.976055 
L 494.513221 212.366999 
L 495.02129 211.483868 
L 496.523696 210.107459 
L 497.507645 209.983637 
L 497.994471 209.260527 
L 499.434918 206.806779 
L 499.908541 206.252309 
L 500.378975 205.092804 
L 502.229659 203.786782 
L 504.032577 201.000926 
L 504.916882 200.283275 
L 507.504556 197.766897 
L 508.763314 195.273216 
L 509.59006 192.394853 
L 512.013166 191.993796 
L 512.40897 190.074983 
L 513.193913 189.776775 
L 515.11853 185.839459 
L 516.991544 185.795791 
L 517.360195 184.242124 
L 518.091711 183.689377 
L 518.815647 182.843594 
L 519.887677 180.903234 
L 520.241395 179.342098 
L 521.98361 178.475343 
L 524.351945 178.09181 
L 525.670082 177.208679 
L 525.995767 175.207701 
L 526.31994 174.025501 
L 526.642616 173.713216 
L 527.918619 173.344335 
L 530.097033 173.222237 
L 530.707161 170.939714 
L 533.680342 170.937128 
L 534.26009 170.741483 
L 534.835066 170.092494 
L 535.120789 169.559283 
L 535.405348 168.711489 
L 536.532134 167.724646 
L 537.641033 166.253719 
L 538.461308 165.906672 
L 540.865877 165.235274 
L 541.128013 163.891904 
L 541.389169 161.033938 
L 542.166831 160.329215 
L 543.696656 160.138741 
L 544.449186 153.396034 
L 544.698238 153.202975 
L 545.193696 151.032208 
L 546.900637 150.599549 
L 548.331251 148.6951 
L 549.03572 148.030885 
L 550.194274 147.697628 
L 551.559644 147.394536 
L 552.455287 146.53324 
L 553.339592 144.216529 
L 554.860692 143.704578 
L 555.71525 142.821447 
L 558.422503 141.160908 
L 559.234828 138.460665 
L 559.436442 138.233705 
L 559.837933 136.708193 
L 560.237129 136.619133 
L 560.435876 136.169236 
L 561.028744 133.248928 
L 561.421212 132.484448 
L 562.585559 131.050007 
L 566.877327 127.197442 
L 567.418175 122.578099 
L 567.954868 121.90153 
L 568.132853 117.958468 
L 569.016041 117.958181 
L 572.774655 117.425257 
L 572.940789 117.275866 
L 573.106528 116.644976 
L 573.601401 113.235125 
L 574.74265 111.911004 
L 575.226107 109.65405 
L 575.386518 108.253509 
L 576.341329 108.181399 
L 578.212669 107.653072 
L 579.129871 106.470584 
L 579.734716 105.112275 
L 580.483482 104.82441 
L 581.07677 102.978568 
L 581.371535 101.077855 
L 581.95736 100.015742 
L 582.24844 99.015684 
L 582.826988 98.991264 
L 583.257776 98.023382 
L 584.111463 95.747755 
L 586.063743 93.809693 
L 586.611661 93.788434 
L 587.694772 92.523781 
L 588.363286 91.5559 
L 589.157149 91.485801 
L 589.288587 89.161333 
L 589.681423 89.019412 
L 591.993152 87.775732 
L 592.245351 84.467007 
L 593.120948 83.008721 
L 594.353065 77.682643 
L 595.323347 76.441835 
L 597.107083 75.985331 
L 598.155865 73.578986 
L 598.501989 73.48734 
L 598.731789 73.171608 
L 600.207343 73.131675 
L 601.100125 72.33272 
L 602.091052 72.304853 
L 603.605088 71.392418 
L 603.711988 70.30646 
L 604.244048 69.914021 
L 606.947271 69.776409 
L 608.560254 68.858229 
L 613.373397 68.152931 
L 614.297474 67.568582 
L 628.980629 66.545828 
L 630.160961 66.254515 
L 633.725979 65.879889 
L 651.382939 65.745724 
L 654.031444 63.670338 
L 656.783366 62.909305 
L 656.982964 62.579496 
L 658.119714 61.67568 
L 660.481513 61.60357 
L 660.953856 60.182344 
L 665.421263 59.516405 
L 676.99295 59.165623 
L 684.000735 57.427803 
L 697.444759 56.94889 
L 698.79968 55.167402 
L 704.123356 54.202106 
L 718.146665 53.439637 
L 718.992703 52.718251 
L 720.95443 52.358276 
L 728.436377 52.093968 
L 729.291152 51.286969 
L 735.744799 51.189865 
L 736.114979 50.286049 
L 736.897142 50.21394 
L 750.928823 50.085233 
L 763.55737 48.992093 
L 768.007703 48.879188 
L 779.874808 47.755595 
L 786.695155 47.647574 
L 794.54102 47.395907 
L 819.698288 47.208594 
L 837.639855 45.603215 
L 857.0791 45.312477 
L 857.221027 44.93785 
L 862.54262 44.68762 
L 863.73326 44.188022 
L 889.819705 43.821727 
L 895.529921 43.505995 
L 910.637417 43.208936 
L 910.702067 43.136826 
L 955.091074 43.136826 
L 955.091074 43.136826 
" clip-path="url(#p534ecba64f)" style="fill: none; stroke: #ff964f; stroke-width: 1.5; stroke-linecap: square"/>
   </g>
   <g id="line2d_77">
    <path d="M 150.807273 341.832436 
L 425.481479 341.247226 
L 473.215916 340.194593 
L 501.310445 338.605015 
L 521.291929 336.485099 
L 536.811013 333.633454 
L 549.501449 330.257791 
L 560.237129 325.471532 
L 569.540643 320.474976 
L 577.749513 315.429006 
L 585.094423 310.223303 
L 591.740038 304.162336 
L 597.808018 298.704104 
L 603.390795 291.877508 
L 608.560254 282.83619 
L 613.373397 273.748043 
L 617.876192 263.456437 
L 622.10625 253.725047 
L 626.09473 244.807551 
L 629.867742 236.071623 
L 633.447378 226.21756 
L 636.852497 213.676469 
L 640.099326 207.970306 
L 643.201932 199.505867 
L 646.172584 192.011608 
L 649.022049 185.353651 
L 651.759829 178.563828 
L 654.39435 169.377715 
L 656.933118 157.264688 
L 659.38285 145.129538 
L 661.74958 137.422684 
L 664.03875 130.8196 
L 666.255281 117.74616 
L 668.403642 108.97432 
L 670.487902 104.691969 
L 672.511775 99.169959 
L 674.478662 96.812453 
L 676.391684 92.764818 
L 678.253713 92.138237 
L 680.067398 90.137546 
L 681.835184 87.991774 
L 683.559339 85.359044 
L 685.241964 85.10077 
L 686.885012 84.548023 
L 688.490304 81.540092 
L 708.998947 81.109444 
L 721.92485 80.861512 
L 722.901372 78.894434 
L 728.508009 76.859843 
L 729.379592 75.811233 
L 731.142529 74.015955 
L 736.928882 73.262966 
L 737.717725 72.528365 
L 739.269181 72.44505 
L 740.032177 71.556461 
L 744.443017 69.555196 
L 749.273252 69.457804 
L 751.226841 68.842428 
L 751.870353 67.719697 
L 766.309384 65.661835 
L 777.36787 63.818005 
L 777.376763 62.885747 
L 784.553739 61.14764 
L 795.658791 59.566681 
L 797.014534 59.284849 
L 799.013105 59.016232 
L 805.244254 56.950614 
L 807.884963 56.13356 
L 810.146342 55.745718 
L 820.484722 54.781858 
L 823.531029 53.345693 
L 827.325525 52.380684 
L 837.827256 52.251404 
L 846.602312 51.99945 
L 861.826867 51.238705 
L 862.762996 49.469283 
L 864.94712 48.937508 
L 921.400037 48.015593 
L 950.223118 47.731463 
L 952.870251 47.257721 
L 954.360028 47.241632 
L 955.091074 47.241632 
" clip-path="url(#p534ecba64f)" style="fill: none; stroke: #ff4d27; stroke-width: 1.5; stroke-linecap: square"/>
   </g>
   <g id="patch_3">
    <path d="M 110.592 356.8032 
L 110.592 27.4464 
" style="fill: none; stroke: #000000; stroke-width: 0.8; stroke-linejoin: miter; stroke-linecap: square"/>
   </g>
   <g id="patch_4">
    <path d="M 995.328 356.8032 
L 995.328 27.4464 
" style="fill: none; stroke: #000000; stroke-width: 0.8; stroke-linejoin: miter; stroke-linecap: square"/>
   </g>
   <g id="patch_5">
    <path d="M 110.592 356.8032 
L 995.328 356.8032 
" style="fill: none; stroke: #000000; stroke-width: 0.8; stroke-linejoin: miter; stroke-linecap: square"/>
   </g>
   <g id="patch_6">
    <path d="M 110.592 27.4464 
L 995.328 27.4464 
" style="fill: none; stroke: #000000; stroke-width: 0.8; stroke-linejoin: miter; stroke-linecap: square"/>
   </g>
   <g id="legend_1">
    <g id="patch_7">
     <path d="M 117.592 199.96515 
L 259.532625 199.96515 
Q 261.532625 199.96515 261.532625 197.96515 
L 261.532625 34.4464 
Q 261.532625 32.4464 259.532625 32.4464 
L 117.592 32.4464 
Q 115.592 32.4464 115.592 34.4464 
L 115.592 197.96515 
Q 115.592 199.96515 117.592 199.96515 
z
" style="fill: #ffffff; opacity: 0.8; stroke: #cccccc; stroke-linejoin: miter"/>
    </g>
    <g id="line2d_78">
     <path d="M 119.592 40.544838 
L 129.592 40.544838 
L 139.592 40.544838 
" style="fill: none; stroke: #8000ff; stroke-width: 1.5; stroke-linecap: square"/>
    </g>
    <g id="text_14">
     <!-- greedy_all_best -->
     <g transform="translate(147.592 44.044838) scale(0.1 -0.1)">
      <defs>
       <path id="DejaVuSans-72" d="M 2631 2963 
Q 2534 3019 2420 3045 
Q 2306 3072 2169 3072 
Q 1681 3072 1420 2755 
Q 1159 2438 1159 1844 
L 1159 0 
L 581 0 
L 581 3500 
L 1159 3500 
L 1159 2956 
Q 1341 3275 1631 3429 
Q 1922 3584 2338 3584 
Q 2397 3584 2469 3576 
Q 2541 3569 2628 3553 
L 2631 2963 
z
" transform="scale(0.015625)"/>
       <path id="DejaVuSans-79" d="M 2059 -325 
Q 1816 -950 1584 -1140 
Q 1353 -1331 966 -1331 
L 506 -1331 
L 506 -850 
L 844 -850 
Q 1081 -850 1212 -737 
Q 1344 -625 1503 -206 
L 1606 56 
L 191 3500 
L 800 3500 
L 1894 763 
L 2988 3500 
L 3597 3500 
L 2059 -325 
z
" transform="scale(0.015625)"/>
       <path id="DejaVuSans-5f" d="M 3263 -1063 
L 3263 -1509 
L -63 -1509 
L -63 -1063 
L 3263 -1063 
z
" transform="scale(0.015625)"/>
       <path id="DejaVuSans-61" d="M 2194 1759 
Q 1497 1759 1228 1600 
Q 959 1441 959 1056 
Q 959 750 1161 570 
Q 1363 391 1709 391 
Q 2188 391 2477 730 
Q 2766 1069 2766 1631 
L 2766 1759 
L 2194 1759 
z
M 3341 1997 
L 3341 0 
L 2766 0 
L 2766 531 
Q 2569 213 2275 61 
Q 1981 -91 1556 -91 
Q 1019 -91 701 211 
Q 384 513 384 1019 
Q 384 1609 779 1909 
Q 1175 2209 1959 2209 
L 2766 2209 
L 2766 2266 
Q 2766 2663 2505 2880 
Q 2244 3097 1772 3097 
Q 1472 3097 1187 3025 
Q 903 2953 641 2809 
L 641 3341 
Q 956 3463 1253 3523 
Q 1550 3584 1831 3584 
Q 2591 3584 2966 3190 
Q 3341 2797 3341 1997 
z
" transform="scale(0.015625)"/>
       <path id="DejaVuSans-6c" d="M 603 4863 
L 1178 4863 
L 1178 0 
L 603 0 
L 603 4863 
z
" transform="scale(0.015625)"/>
      </defs>
      <use xlink:href="#DejaVuSans-67"/>
      <use xlink:href="#DejaVuSans-72" x="63.476562"/>
      <use xlink:href="#DejaVuSans-65" x="102.339844"/>
      <use xlink:href="#DejaVuSans-65" x="163.863281"/>
      <use xlink:href="#DejaVuSans-64" x="225.386719"/>
      <use xlink:href="#DejaVuSans-79" x="288.863281"/>
      <use xlink:href="#DejaVuSans-5f" x="348.042969"/>
      <use xlink:href="#DejaVuSans-61" x="398.042969"/>
      <use xlink:href="#DejaVuSans-6c" x="459.322266"/>
      <use xlink:href="#DejaVuSans-6c" x="487.105469"/>
      <use xlink:href="#DejaVuSans-5f" x="514.888672"/>
      <use xlink:href="#DejaVuSans-62" x="564.888672"/>
      <use xlink:href="#DejaVuSans-65" x="628.365234"/>
      <use xlink:href="#DejaVuSans-73" x="689.888672"/>
      <use xlink:href="#DejaVuSans-74" x="741.988281"/>
     </g>
    </g>
    <g id="line2d_79">
     <path d="M 119.592 55.501088 
L 129.592 55.501088 
L 139.592 55.501088 
" style="fill: none; stroke: #4e4dfc; stroke-width: 1.5; stroke-linecap: square"/>
    </g>
    <g id="text_15">
     <!-- greedy_all_first -->
     <g transform="translate(147.592 59.001088) scale(0.1 -0.1)">
      <use xlink:href="#DejaVuSans-67"/>
      <use xlink:href="#DejaVuSans-72" x="63.476562"/>
      <use xlink:href="#DejaVuSans-65" x="102.339844"/>
      <use xlink:href="#DejaVuSans-65" x="163.863281"/>
      <use xlink:href="#DejaVuSans-64" x="225.386719"/>
      <use xlink:href="#DejaVuSans-79" x="288.863281"/>
      <use xlink:href="#DejaVuSans-5f" x="348.042969"/>
      <use xlink:href="#DejaVuSans-61" x="398.042969"/>
      <use xlink:href="#DejaVuSans-6c" x="459.322266"/>
      <use xlink:href="#DejaVuSans-6c" x="487.105469"/>
      <use xlink:href="#DejaVuSans-5f" x="514.888672"/>
      <use xlink:href="#DejaVuSans-66" x="564.888672"/>
      <use xlink:href="#DejaVuSans-69" x="600.09375"/>
      <use xlink:href="#DejaVuSans-72" x="627.876953"/>
      <use xlink:href="#DejaVuSans-73" x="668.990234"/>
      <use xlink:href="#DejaVuSans-74" x="721.089844"/>
     </g>
    </g>
    <g id="line2d_80">
     <path d="M 119.592 70.457338 
L 129.592 70.457338 
L 139.592 70.457338 
" style="fill: none; stroke: #18cde4; stroke-width: 1.5; stroke-linecap: square"/>
    </g>
    <g id="text_16">
     <!-- greedy_improve_best -->
     <g transform="translate(147.592 73.957338) scale(0.1 -0.1)">
      <defs>
       <path id="DejaVuSans-6d" d="M 3328 2828 
Q 3544 3216 3844 3400 
Q 4144 3584 4550 3584 
Q 5097 3584 5394 3201 
Q 5691 2819 5691 2113 
L 5691 0 
L 5113 0 
L 5113 2094 
Q 5113 2597 4934 2840 
Q 4756 3084 4391 3084 
Q 3944 3084 3684 2787 
Q 3425 2491 3425 1978 
L 3425 0 
L 2847 0 
L 2847 2094 
Q 2847 2600 2669 2842 
Q 2491 3084 2119 3084 
Q 1678 3084 1418 2786 
Q 1159 2488 1159 1978 
L 1159 0 
L 581 0 
L 581 3500 
L 1159 3500 
L 1159 2956 
Q 1356 3278 1631 3431 
Q 1906 3584 2284 3584 
Q 2666 3584 2933 3390 
Q 3200 3197 3328 2828 
z
" transform="scale(0.015625)"/>
       <path id="DejaVuSans-70" d="M 1159 525 
L 1159 -1331 
L 581 -1331 
L 581 3500 
L 1159 3500 
L 1159 2969 
Q 1341 3281 1617 3432 
Q 1894 3584 2278 3584 
Q 2916 3584 3314 3078 
Q 3713 2572 3713 1747 
Q 3713 922 3314 415 
Q 2916 -91 2278 -91 
Q 1894 -91 1617 61 
Q 1341 213 1159 525 
z
M 3116 1747 
Q 3116 2381 2855 2742 
Q 2594 3103 2138 3103 
Q 1681 3103 1420 2742 
Q 1159 2381 1159 1747 
Q 1159 1113 1420 752 
Q 1681 391 2138 391 
Q 2594 391 2855 752 
Q 3116 1113 3116 1747 
z
" transform="scale(0.015625)"/>
       <path id="DejaVuSans-6f" d="M 1959 3097 
Q 1497 3097 1228 2736 
Q 959 2375 959 1747 
Q 959 1119 1226 758 
Q 1494 397 1959 397 
Q 2419 397 2687 759 
Q 2956 1122 2956 1747 
Q 2956 2369 2687 2733 
Q 2419 3097 1959 3097 
z
M 1959 3584 
Q 2709 3584 3137 3096 
Q 3566 2609 3566 1747 
Q 3566 888 3137 398 
Q 2709 -91 1959 -91 
Q 1206 -91 779 398 
Q 353 888 353 1747 
Q 353 2609 779 3096 
Q 1206 3584 1959 3584 
z
" transform="scale(0.015625)"/>
       <path id="DejaVuSans-76" d="M 191 3500 
L 800 3500 
L 1894 563 
L 2988 3500 
L 3597 3500 
L 2284 0 
L 1503 0 
L 191 3500 
z
" transform="scale(0.015625)"/>
      </defs>
      <use xlink:href="#DejaVuSans-67"/>
      <use xlink:href="#DejaVuSans-72" x="63.476562"/>
      <use xlink:href="#DejaVuSans-65" x="102.339844"/>
      <use xlink:href="#DejaVuSans-65" x="163.863281"/>
      <use xlink:href="#DejaVuSans-64" x="225.386719"/>
      <use xlink:href="#DejaVuSans-79" x="288.863281"/>
      <use xlink:href="#DejaVuSans-5f" x="348.042969"/>
      <use xlink:href="#DejaVuSans-69" x="398.042969"/>
      <use xlink:href="#DejaVuSans-6d" x="425.826172"/>
      <use xlink:href="#DejaVuSans-70" x="523.238281"/>
      <use xlink:href="#DejaVuSans-72" x="586.714844"/>
      <use xlink:href="#DejaVuSans-6f" x="625.578125"/>
      <use xlink:href="#DejaVuSans-76" x="686.759766"/>
      <use xlink:href="#DejaVuSans-65" x="745.939453"/>
      <use xlink:href="#DejaVuSans-5f" x="807.462891"/>
      <use xlink:href="#DejaVuSans-62" x="857.462891"/>
      <use xlink:href="#DejaVuSans-65" x="920.939453"/>
      <use xlink:href="#DejaVuSans-73" x="982.462891"/>
      <use xlink:href="#DejaVuSans-74" x="1034.5625"/>
     </g>
    </g>
    <g id="line2d_81">
     <path d="M 119.592 85.413588 
L 129.592 85.413588 
L 139.592 85.413588 
" style="fill: none; stroke: #4df3ce; stroke-width: 1.5; stroke-linecap: square"/>
    </g>
    <g id="text_17">
     <!-- greedy_improve_first -->
     <g transform="translate(147.592 88.913588) scale(0.1 -0.1)">
      <use xlink:href="#DejaVuSans-67"/>
      <use xlink:href="#DejaVuSans-72" x="63.476562"/>
      <use xlink:href="#DejaVuSans-65" x="102.339844"/>
      <use xlink:href="#DejaVuSans-65" x="163.863281"/>
      <use xlink:href="#DejaVuSans-64" x="225.386719"/>
      <use xlink:href="#DejaVuSans-79" x="288.863281"/>
      <use xlink:href="#DejaVuSans-5f" x="348.042969"/>
      <use xlink:href="#DejaVuSans-69" x="398.042969"/>
      <use xlink:href="#DejaVuSans-6d" x="425.826172"/>
      <use xlink:href="#DejaVuSans-70" x="523.238281"/>
      <use xlink:href="#DejaVuSans-72" x="586.714844"/>
      <use xlink:href="#DejaVuSans-6f" x="625.578125"/>
      <use xlink:href="#DejaVuSans-76" x="686.759766"/>
      <use xlink:href="#DejaVuSans-65" x="745.939453"/>
      <use xlink:href="#DejaVuSans-5f" x="807.462891"/>
      <use xlink:href="#DejaVuSans-66" x="857.462891"/>
      <use xlink:href="#DejaVuSans-69" x="892.667969"/>
      <use xlink:href="#DejaVuSans-72" x="920.451172"/>
      <use xlink:href="#DejaVuSans-73" x="961.564453"/>
      <use xlink:href="#DejaVuSans-74" x="1013.664062"/>
     </g>
    </g>
    <g id="line2d_82">
     <path d="M 119.592 100.369838 
L 129.592 100.369838 
L 139.592 100.369838 
" style="fill: none; stroke: #80ffb4; stroke-width: 1.5; stroke-linecap: square"/>
    </g>
    <g id="text_18">
     <!-- greedy_improve_least -->
     <g transform="translate(147.592 103.869838) scale(0.1 -0.1)">
      <use xlink:href="#DejaVuSans-67"/>
      <use xlink:href="#DejaVuSans-72" x="63.476562"/>
      <use xlink:href="#DejaVuSans-65" x="102.339844"/>
      <use xlink:href="#DejaVuSans-65" x="163.863281"/>
      <use xlink:href="#DejaVuSans-64" x="225.386719"/>
      <use xlink:href="#DejaVuSans-79" x="288.863281"/>
      <use xlink:href="#DejaVuSans-5f" x="348.042969"/>
      <use xlink:href="#DejaVuSans-69" x="398.042969"/>
      <use xlink:href="#DejaVuSans-6d" x="425.826172"/>
      <use xlink:href="#DejaVuSans-70" x="523.238281"/>
      <use xlink:href="#DejaVuSans-72" x="586.714844"/>
      <use xlink:href="#DejaVuSans-6f" x="625.578125"/>
      <use xlink:href="#DejaVuSans-76" x="686.759766"/>
      <use xlink:href="#DejaVuSans-65" x="745.939453"/>
      <use xlink:href="#DejaVuSans-5f" x="807.462891"/>
      <use xlink:href="#DejaVuSans-6c" x="857.462891"/>
      <use xlink:href="#DejaVuSans-65" x="885.246094"/>
      <use xlink:href="#DejaVuSans-61" x="946.769531"/>
      <use xlink:href="#DejaVuSans-73" x="1008.048828"/>
      <use xlink:href="#DejaVuSans-74" x="1060.148438"/>
     </g>
    </g>
    <g id="line2d_83">
     <path d="M 119.592 115.326088 
L 129.592 115.326088 
L 139.592 115.326088 
" style="fill: none; stroke: #ff0000; stroke-width: 1.5; stroke-linecap: square"/>
    </g>
    <g id="text_19">
     <!-- hc_random -->
     <g transform="translate(147.592 118.826088) scale(0.1 -0.1)">
      <defs>
       <path id="DejaVuSans-68" d="M 3513 2113 
L 3513 0 
L 2938 0 
L 2938 2094 
Q 2938 2591 2744 2837 
Q 2550 3084 2163 3084 
Q 1697 3084 1428 2787 
Q 1159 2491 1159 1978 
L 1159 0 
L 581 0 
L 581 4863 
L 1159 4863 
L 1159 2956 
Q 1366 3272 1645 3428 
Q 1925 3584 2291 3584 
Q 2894 3584 3203 3211 
Q 3513 2838 3513 2113 
z
" transform="scale(0.015625)"/>
       <path id="DejaVuSans-63" d="M 3122 3366 
L 3122 2828 
Q 2878 2963 2633 3030 
Q 2388 3097 2138 3097 
Q 1578 3097 1268 2742 
Q 959 2388 959 1747 
Q 959 1106 1268 751 
Q 1578 397 2138 397 
Q 2388 397 2633 464 
Q 2878 531 3122 666 
L 3122 134 
Q 2881 22 2623 -34 
Q 2366 -91 2075 -91 
Q 1284 -91 818 406 
Q 353 903 353 1747 
Q 353 2603 823 3093 
Q 1294 3584 2113 3584 
Q 2378 3584 2631 3529 
Q 2884 3475 3122 3366 
z
" transform="scale(0.015625)"/>
      </defs>
      <use xlink:href="#DejaVuSans-68"/>
      <use xlink:href="#DejaVuSans-63" x="63.378906"/>
      <use xlink:href="#DejaVuSans-5f" x="118.359375"/>
      <use xlink:href="#DejaVuSans-72" x="168.359375"/>
      <use xlink:href="#DejaVuSans-61" x="209.472656"/>
      <use xlink:href="#DejaVuSans-6e" x="270.751953"/>
      <use xlink:href="#DejaVuSans-64" x="334.130859"/>
      <use xlink:href="#DejaVuSans-6f" x="397.607422"/>
      <use xlink:href="#DejaVuSans-6d" x="458.789062"/>
     </g>
    </g>
    <g id="line2d_84">
     <path d="M 119.592 130.282338 
L 129.592 130.282338 
L 139.592 130.282338 
" style="fill: none; stroke: #1996f3; stroke-width: 1.5; stroke-linecap: square"/>
    </g>
    <g id="text_20">
     <!-- greedy_all_least -->
     <g transform="translate(147.592 133.782338) scale(0.1 -0.1)">
      <use xlink:href="#DejaVuSans-67"/>
      <use xlink:href="#DejaVuSans-72" x="63.476562"/>
      <use xlink:href="#DejaVuSans-65" x="102.339844"/>
      <use xlink:href="#DejaVuSans-65" x="163.863281"/>
      <use xlink:href="#DejaVuSans-64" x="225.386719"/>
      <use xlink:href="#DejaVuSans-79" x="288.863281"/>
      <use xlink:href="#DejaVuSans-5f" x="348.042969"/>
      <use xlink:href="#DejaVuSans-61" x="398.042969"/>
      <use xlink:href="#DejaVuSans-6c" x="459.322266"/>
      <use xlink:href="#DejaVuSans-6c" x="487.105469"/>
      <use xlink:href="#DejaVuSans-5f" x="514.888672"/>
      <use xlink:href="#DejaVuSans-6c" x="564.888672"/>
      <use xlink:href="#DejaVuSans-65" x="592.671875"/>
      <use xlink:href="#DejaVuSans-61" x="654.195312"/>
      <use xlink:href="#DejaVuSans-73" x="715.474609"/>
      <use xlink:href="#DejaVuSans-74" x="767.574219"/>
     </g>
    </g>
    <g id="line2d_85">
     <path d="M 119.592 145.238588 
L 129.592 145.238588 
L 139.592 145.238588 
" style="fill: none; stroke: #e6cd73; stroke-width: 1.5; stroke-linecap: square"/>
    </g>
    <g id="text_21">
     <!-- hc_cycle -->
     <g transform="translate(147.592 148.738588) scale(0.1 -0.1)">
      <use xlink:href="#DejaVuSans-68"/>
      <use xlink:href="#DejaVuSans-63" x="63.378906"/>
      <use xlink:href="#DejaVuSans-5f" x="118.359375"/>
      <use xlink:href="#DejaVuSans-63" x="168.359375"/>
      <use xlink:href="#DejaVuSans-79" x="223.339844"/>
      <use xlink:href="#DejaVuSans-63" x="282.519531"/>
      <use xlink:href="#DejaVuSans-6c" x="337.5"/>
      <use xlink:href="#DejaVuSans-65" x="365.283203"/>
     </g>
    </g>
    <g id="line2d_86">
     <path d="M 119.592 160.194838 
L 129.592 160.194838 
L 139.592 160.194838 
" style="fill: none; stroke: #b2f396; stroke-width: 1.5; stroke-linecap: square"/>
    </g>
    <g id="text_22">
     <!-- hc_best -->
     <g transform="translate(147.592 163.694838) scale(0.1 -0.1)">
      <use xlink:href="#DejaVuSans-68"/>
      <use xlink:href="#DejaVuSans-63" x="63.378906"/>
      <use xlink:href="#DejaVuSans-5f" x="118.359375"/>
      <use xlink:href="#DejaVuSans-62" x="168.359375"/>
      <use xlink:href="#DejaVuSans-65" x="231.835938"/>
      <use xlink:href="#DejaVuSans-73" x="293.359375"/>
      <use xlink:href="#DejaVuSans-74" x="345.458984"/>
     </g>
    </g>
    <g id="line2d_87">
     <path d="M 119.592 175.151088 
L 129.592 175.151088 
L 139.592 175.151088 
" style="fill: none; stroke: #ff964f; stroke-width: 1.5; stroke-linecap: square"/>
    </g>
    <g id="text_23">
     <!-- hc_first -->
     <g transform="translate(147.592 178.651088) scale(0.1 -0.1)">
      <use xlink:href="#DejaVuSans-68"/>
      <use xlink:href="#DejaVuSans-63" x="63.378906"/>
      <use xlink:href="#DejaVuSans-5f" x="118.359375"/>
      <use xlink:href="#DejaVuSans-66" x="168.359375"/>
      <use xlink:href="#DejaVuSans-69" x="203.564453"/>
      <use xlink:href="#DejaVuSans-72" x="231.347656"/>
      <use xlink:href="#DejaVuSans-73" x="272.460938"/>
      <use xlink:href="#DejaVuSans-74" x="324.560547"/>
     </g>
    </g>
    <g id="line2d_88">
     <path d="M 119.592 190.107338 
L 129.592 190.107338 
L 139.592 190.107338 
" style="fill: none; stroke: #ff4d27; stroke-width: 1.5; stroke-linecap: square"/>
    </g>
    <g id="text_24">
     <!-- hc_least -->
     <g transform="translate(147.592 193.607338) scale(0.1 -0.1)">
      <use xlink:href="#DejaVuSans-68"/>
      <use xlink:href="#DejaVuSans-63" x="63.378906"/>
      <use xlink:href="#DejaVuSans-5f" x="118.359375"/>
      <use xlink:href="#DejaVuSans-6c" x="168.359375"/>
      <use xlink:href="#DejaVuSans-65" x="196.142578"/>
      <use xlink:href="#DejaVuSans-61" x="257.666016"/>
      <use xlink:href="#DejaVuSans-73" x="318.945312"/>
      <use xlink:href="#DejaVuSans-74" x="371.044922"/>
     </g>
    </g>
   </g>
  </g>
  <g id="axes_2">
   <g id="patch_8">
    <path d="M 110.592 439.1424 
L 442.368 439.1424 
L 442.368 411.696 
L 110.592 411.696 
z
" style="fill: #d9d9d9"/>
   </g>
   <g id="matplotlib.axis_3"/>
   <g id="matplotlib.axis_4"/>
   <g id="patch_9">
    <path d="M 110.592 439.1424 
L 110.592 411.696 
" style="fill: none; stroke: #000000; stroke-width: 0.8; stroke-linejoin: miter; stroke-linecap: square"/>
   </g>
   <g id="patch_10">
    <path d="M 442.368 439.1424 
L 442.368 411.696 
" style="fill: none; stroke: #000000; stroke-width: 0.8; stroke-linejoin: miter; stroke-linecap: square"/>
   </g>
   <g id="patch_11">
    <path d="M 110.592 439.1424 
L 442.368 439.1424 
" style="fill: none; stroke: #000000; stroke-width: 0.8; stroke-linejoin: miter; stroke-linecap: square"/>
   </g>
   <g id="patch_12">
    <path d="M 110.592 411.696 
L 442.368 411.696 
" style="fill: none; stroke: #000000; stroke-width: 0.8; stroke-linejoin: miter; stroke-linecap: square"/>
   </g>
   <g id="text_25">
    <!-- NK -->
    <g transform="translate(269.460469 428.178575) scale(0.1 -0.1)">
     <defs>
      <path id="DejaVuSans-4e" d="M 628 4666 
L 1478 4666 
L 3547 763 
L 3547 4666 
L 4159 4666 
L 4159 0 
L 3309 0 
L 1241 3903 
L 1241 0 
L 628 0 
L 628 4666 
z
" transform="scale(0.015625)"/>
      <path id="DejaVuSans-4b" d="M 628 4666 
L 1259 4666 
L 1259 2694 
L 3353 4666 
L 4166 4666 
L 1850 2491 
L 4331 0 
L 3500 0 
L 1259 2247 
L 1259 0 
L 628 0 
L 628 4666 
z
" transform="scale(0.015625)"/>
     </defs>
     <use xlink:href="#DejaVuSans-4e"/>
     <use xlink:href="#DejaVuSans-4b" x="74.804688"/>
    </g>
   </g>
  </g>
  <g id="axes_3">
   <g id="patch_13">
    <path d="M 663.552 439.1424 
L 995.328 439.1424 
L 995.328 411.696 
L 663.552 411.696 
z
" style="fill: #d9d9d9"/>
   </g>
   <g id="matplotlib.axis_5"/>
   <g id="matplotlib.axis_6"/>
   <g id="patch_14">
    <path d="M 663.552 439.1424 
L 663.552 411.696 
" style="fill: none; stroke: #000000; stroke-width: 0.8; stroke-linejoin: miter; stroke-linecap: square"/>
   </g>
   <g id="patch_15">
    <path d="M 995.328 439.1424 
L 995.328 411.696 
" style="fill: none; stroke: #000000; stroke-width: 0.8; stroke-linejoin: miter; stroke-linecap: square"/>
   </g>
   <g id="patch_16">
    <path d="M 663.552 439.1424 
L 995.328 439.1424 
" style="fill: none; stroke: #000000; stroke-width: 0.8; stroke-linejoin: miter; stroke-linecap: square"/>
   </g>
   <g id="patch_17">
    <path d="M 663.552 411.696 
L 995.328 411.696 
" style="fill: none; stroke: #000000; stroke-width: 0.8; stroke-linejoin: miter; stroke-linecap: square"/>
   </g>
   <g id="text_26">
    <!-- anytime -->
    <g transform="translate(808.951719 428.178575) scale(0.1 -0.1)">
     <use xlink:href="#DejaVuSans-61"/>
     <use xlink:href="#DejaVuSans-6e" x="61.279297"/>
     <use xlink:href="#DejaVuSans-79" x="124.658203"/>
     <use xlink:href="#DejaVuSans-74" x="183.837891"/>
     <use xlink:href="#DejaVuSans-69" x="223.046875"/>
     <use xlink:href="#DejaVuSans-6d" x="250.830078"/>
     <use xlink:href="#DejaVuSans-65" x="348.242188"/>
    </g>
   </g>
  </g>
  <g id="axes_4">
   <g id="patch_18">
    <path d="M 663.552 472.07808 
L 829.44 472.07808 
L 829.44 444.63168 
L 663.552 444.63168 
z
" style="fill: #d9d9d9"/>
   </g>
   <g id="matplotlib.axis_7"/>
   <g id="matplotlib.axis_8"/>
   <g id="patch_19">
    <path d="M 663.552 472.07808 
L 663.552 444.63168 
" style="fill: none; stroke: #000000; stroke-width: 0.8; stroke-linejoin: miter; stroke-linecap: square"/>
   </g>
   <g id="patch_20">
    <path d="M 829.44 472.07808 
L 829.44 444.63168 
" style="fill: none; stroke: #000000; stroke-width: 0.8; stroke-linejoin: miter; stroke-linecap: square"/>
   </g>
   <g id="patch_21">
    <path d="M 663.552 472.07808 
L 829.44 472.07808 
" style="fill: none; stroke: #000000; stroke-width: 0.8; stroke-linejoin: miter; stroke-linecap: square"/>
   </g>
   <g id="patch_22">
    <path d="M 663.552 444.63168 
L 829.44 444.63168 
" style="fill: none; stroke: #000000; stroke-width: 0.8; stroke-linejoin: miter; stroke-linecap: square"/>
   </g>
   <g id="text_27">
    <!-- log scale -->
    <g transform="translate(724.400688 461.114255) scale(0.1 -0.1)">
     <defs>
      <path id="DejaVuSans-20" transform="scale(0.015625)"/>
     </defs>
     <use xlink:href="#DejaVuSans-6c"/>
     <use xlink:href="#DejaVuSans-6f" x="27.783203"/>
     <use xlink:href="#DejaVuSans-67" x="88.964844"/>
     <use xlink:href="#DejaVuSans-20" x="152.441406"/>
     <use xlink:href="#DejaVuSans-73" x="184.228516"/>
     <use xlink:href="#DejaVuSans-63" x="236.328125"/>
     <use xlink:href="#DejaVuSans-61" x="291.308594"/>
     <use xlink:href="#DejaVuSans-6c" x="352.587891"/>
     <use xlink:href="#DejaVuSans-65" x="380.371094"/>
    </g>
   </g>
  </g>
  <g id="axes_5">
   <g id="patch_23">
    <path d="M 110.592 472.07808 
L 221.184 472.07808 
L 221.184 444.63168 
L 110.592 444.63168 
z
" style="fill: #d9d9d9"/>
   </g>
   <g id="matplotlib.axis_9"/>
   <g id="matplotlib.axis_10"/>
   <g id="patch_24">
    <path d="M 110.592 472.07808 
L 110.592 444.63168 
" style="fill: none; stroke: #000000; stroke-width: 0.8; stroke-linejoin: miter; stroke-linecap: square"/>
   </g>
   <g id="patch_25">
    <path d="M 221.184 472.07808 
L 221.184 444.63168 
" style="fill: none; stroke: #000000; stroke-width: 0.8; stroke-linejoin: miter; stroke-linecap: square"/>
   </g>
   <g id="patch_26">
    <path d="M 110.592 472.07808 
L 221.184 472.07808 
" style="fill: none; stroke: #000000; stroke-width: 0.8; stroke-linejoin: miter; stroke-linecap: square"/>
   </g>
   <g id="patch_27">
    <path d="M 110.592 444.63168 
L 221.184 444.63168 
" style="fill: none; stroke: #000000; stroke-width: 0.8; stroke-linejoin: miter; stroke-linecap: square"/>
   </g>
   <g id="text_28">
    <!-- N50 -->
    <g transform="translate(155.784875 461.114255) scale(0.1 -0.1)">
     <use xlink:href="#DejaVuSans-4e"/>
     <use xlink:href="#DejaVuSans-35" x="74.804688"/>
     <use xlink:href="#DejaVuSans-30" x="138.427734"/>
    </g>
   </g>
  </g>
  <g id="axes_6">
   <g id="patch_28">
    <path d="M 232.2432 472.07808 
L 342.8352 472.07808 
L 342.8352 444.63168 
L 232.2432 444.63168 
z
" style="fill: #d9d9d9"/>
   </g>
   <g id="matplotlib.axis_11"/>
   <g id="matplotlib.axis_12"/>
   <g id="patch_29">
    <path d="M 232.2432 472.07808 
L 232.2432 444.63168 
" style="fill: none; stroke: #000000; stroke-width: 0.8; stroke-linejoin: miter; stroke-linecap: square"/>
   </g>
   <g id="patch_30">
    <path d="M 342.8352 472.07808 
L 342.8352 444.63168 
" style="fill: none; stroke: #000000; stroke-width: 0.8; stroke-linejoin: miter; stroke-linecap: square"/>
   </g>
   <g id="patch_31">
    <path d="M 232.2432 472.07808 
L 342.8352 472.07808 
" style="fill: none; stroke: #000000; stroke-width: 0.8; stroke-linejoin: miter; stroke-linecap: square"/>
   </g>
   <g id="patch_32">
    <path d="M 232.2432 444.63168 
L 342.8352 444.63168 
" style="fill: none; stroke: #000000; stroke-width: 0.8; stroke-linejoin: miter; stroke-linecap: square"/>
   </g>
   <g id="text_29">
    <!-- K1 -->
    <g transform="translate(281.079044 461.114255) scale(0.1 -0.1)">
     <use xlink:href="#DejaVuSans-4b"/>
     <use xlink:href="#DejaVuSans-31" x="65.576172"/>
    </g>
   </g>
  </g>
  <g id="axes_7">
   <g id="patch_33">
    <path d="M 353.8944 472.07808 
L 464.4864 472.07808 
L 464.4864 444.63168 
L 353.8944 444.63168 
z
" style="fill: #d9d9d9"/>
   </g>
   <g id="matplotlib.axis_13"/>
   <g id="matplotlib.axis_14"/>
   <g id="patch_34">
    <path d="M 353.8944 472.07808 
L 353.8944 444.63168 
" style="fill: none; stroke: #000000; stroke-width: 0.8; stroke-linejoin: miter; stroke-linecap: square"/>
   </g>
   <g id="patch_35">
    <path d="M 464.4864 472.07808 
L 464.4864 444.63168 
" style="fill: none; stroke: #000000; stroke-width: 0.8; stroke-linejoin: miter; stroke-linecap: square"/>
   </g>
   <g id="patch_36">
    <path d="M 353.8944 472.07808 
L 464.4864 472.07808 
" style="fill: none; stroke: #000000; stroke-width: 0.8; stroke-linejoin: miter; stroke-linecap: square"/>
   </g>
   <g id="patch_37">
    <path d="M 353.8944 444.63168 
L 464.4864 444.63168 
" style="fill: none; stroke: #000000; stroke-width: 0.8; stroke-linejoin: miter; stroke-linecap: square"/>
   </g>
   <g id="text_30">
    <!-- AVG -->
    <g transform="translate(398.794306 461.114255) scale(0.1 -0.1)">
     <defs>
      <path id="DejaVuSans-41" d="M 2188 4044 
L 1331 1722 
L 3047 1722 
L 2188 4044 
z
M 1831 4666 
L 2547 4666 
L 4325 0 
L 3669 0 
L 3244 1197 
L 1141 1197 
L 716 0 
L 50 0 
L 1831 4666 
z
" transform="scale(0.015625)"/>
      <path id="DejaVuSans-56" d="M 1831 0 
L 50 4666 
L 709 4666 
L 2188 738 
L 3669 4666 
L 4325 4666 
L 2547 0 
L 1831 0 
z
" transform="scale(0.015625)"/>
      <path id="DejaVuSans-47" d="M 3809 666 
L 3809 1919 
L 2778 1919 
L 2778 2438 
L 4434 2438 
L 4434 434 
Q 4069 175 3628 42 
Q 3188 -91 2688 -91 
Q 1594 -91 976 548 
Q 359 1188 359 2328 
Q 359 3472 976 4111 
Q 1594 4750 2688 4750 
Q 3144 4750 3555 4637 
Q 3966 4525 4313 4306 
L 4313 3634 
Q 3963 3931 3569 4081 
Q 3175 4231 2741 4231 
Q 1884 4231 1454 3753 
Q 1025 3275 1025 2328 
Q 1025 1384 1454 906 
Q 1884 428 2741 428 
Q 3075 428 3337 486 
Q 3600 544 3809 666 
z
" transform="scale(0.015625)"/>
     </defs>
     <use xlink:href="#DejaVuSans-41"/>
     <use xlink:href="#DejaVuSans-56" x="62.033203"/>
     <use xlink:href="#DejaVuSans-47" x="130.441406"/>
    </g>
   </g>
  </g>
 </g>
 <defs>
  <clipPath id="p534ecba64f">
   <rect x="110.592" y="27.4464" width="884.736" height="329.3568"/>
  </clipPath>
 </defs>
</svg>
