<?xml version="1.0" encoding="utf-8" standalone="no"?>
<!DOCTYPE svg PUBLIC "-//W3C//DTD SVG 1.1//EN"
  "http://www.w3.org/Graphics/SVG/1.1/DTD/svg11.dtd">
<svg xmlns:xlink="http://www.w3.org/1999/xlink" width="1105.92pt" height="548.928pt" viewBox="0 0 1105.92 548.928" xmlns="http://www.w3.org/2000/svg" version="1.1">
 <metadata>
  <rdf:RDF xmlns:dc="http://purl.org/dc/elements/1.1/" xmlns:cc="http://creativecommons.org/ns#" xmlns:rdf="http://www.w3.org/1999/02/22-rdf-syntax-ns#">
   <cc:Work>
    <dc:type rdf:resource="http://purl.org/dc/dcmitype/StillImage"/>
    <dc:date>2025-07-02T13:54:43.314060</dc:date>
    <dc:format>image/svg+xml</dc:format>
    <dc:creator>
     <cc:Agent>
      <dc:title>Matplotlib v3.7.1, https://matplotlib.org/</dc:title>
     </cc:Agent>
    </dc:creator>
   </cc:Work>
  </rdf:RDF>
 </metadata>
 <defs>
  <style type="text/css">*{stroke-linejoin: round; stroke-linecap: butt}</style>
 </defs>
 <g id="figure_1">
  <g id="patch_1">
   <path d="M 0 548.928 
L 1105.92 548.928 
L 1105.92 0 
L 0 0 
z
" style="fill: #ffffff"/>
  </g>
  <g id="axes_1">
   <g id="patch_2">
    <path d="M 110.592 356.8032 
L 995.328 356.8032 
L 995.328 27.4464 
L 110.592 27.4464 
z
" style="fill: #ffffff"/>
   </g>
   <g id="matplotlib.axis_1">
    <g id="xtick_1">
     <g id="line2d_1">
      <path d="M 150.807273 356.8032 
L 150.807273 27.4464 
" clip-path="url(#p1e596f0638)" style="fill: none; stroke: #b0b0b0; stroke-width: 0.8; stroke-linecap: square"/>
     </g>
     <g id="line2d_2">
      <defs>
       <path id="m72ef432bd9" d="M 0 0 
L 0 3.5 
" style="stroke: #000000; stroke-width: 0.8"/>
      </defs>
      <g>
       <use xlink:href="#m72ef432bd9" x="150.807273" y="356.8032" style="stroke: #000000; stroke-width: 0.8"/>
      </g>
     </g>
     <g id="text_1">
      <!-- $\mathdefault{10^{0}}$ -->
      <g transform="translate(142.007273 371.401637) scale(0.1 -0.1)">
       <defs>
        <path id="DejaVuSans-31" d="M 794 531 
L 1825 531 
L 1825 4091 
L 703 3866 
L 703 4441 
L 1819 4666 
L 2450 4666 
L 2450 531 
L 3481 531 
L 3481 0 
L 794 0 
L 794 531 
z
" transform="scale(0.015625)"/>
        <path id="DejaVuSans-30" d="M 2034 4250 
Q 1547 4250 1301 3770 
Q 1056 3291 1056 2328 
Q 1056 1369 1301 889 
Q 1547 409 2034 409 
Q 2525 409 2770 889 
Q 3016 1369 3016 2328 
Q 3016 3291 2770 3770 
Q 2525 4250 2034 4250 
z
M 2034 4750 
Q 2819 4750 3233 4129 
Q 3647 3509 3647 2328 
Q 3647 1150 3233 529 
Q 2819 -91 2034 -91 
Q 1250 -91 836 529 
Q 422 1150 422 2328 
Q 422 3509 836 4129 
Q 1250 4750 2034 4750 
z
" transform="scale(0.015625)"/>
       </defs>
       <use xlink:href="#DejaVuSans-31" transform="translate(0 0.765625)"/>
       <use xlink:href="#DejaVuSans-30" transform="translate(63.623047 0.765625)"/>
       <use xlink:href="#DejaVuSans-30" transform="translate(128.203125 39.046875) scale(0.7)"/>
      </g>
     </g>
    </g>
    <g id="xtick_2">
     <g id="line2d_3">
      <path d="M 311.663335 356.8032 
L 311.663335 27.4464 
" clip-path="url(#p1e596f0638)" style="fill: none; stroke: #b0b0b0; stroke-width: 0.8; stroke-linecap: square"/>
     </g>
     <g id="line2d_4">
      <g>
       <use xlink:href="#m72ef432bd9" x="311.663335" y="356.8032" style="stroke: #000000; stroke-width: 0.8"/>
      </g>
     </g>
     <g id="text_2">
      <!-- $\mathdefault{10^{1}}$ -->
      <g transform="translate(302.863335 371.401637) scale(0.1 -0.1)">
       <use xlink:href="#DejaVuSans-31" transform="translate(0 0.684375)"/>
       <use xlink:href="#DejaVuSans-30" transform="translate(63.623047 0.684375)"/>
       <use xlink:href="#DejaVuSans-31" transform="translate(128.203125 38.965625) scale(0.7)"/>
      </g>
     </g>
    </g>
    <g id="xtick_3">
     <g id="line2d_5">
      <path d="M 472.519397 356.8032 
L 472.519397 27.4464 
" clip-path="url(#p1e596f0638)" style="fill: none; stroke: #b0b0b0; stroke-width: 0.8; stroke-linecap: square"/>
     </g>
     <g id="line2d_6">
      <g>
       <use xlink:href="#m72ef432bd9" x="472.519397" y="356.8032" style="stroke: #000000; stroke-width: 0.8"/>
      </g>
     </g>
     <g id="text_3">
      <!-- $\mathdefault{10^{2}}$ -->
      <g transform="translate(463.719397 371.401637) scale(0.1 -0.1)">
       <defs>
        <path id="DejaVuSans-32" d="M 1228 531 
L 3431 531 
L 3431 0 
L 469 0 
L 469 531 
Q 828 903 1448 1529 
Q 2069 2156 2228 2338 
Q 2531 2678 2651 2914 
Q 2772 3150 2772 3378 
Q 2772 3750 2511 3984 
Q 2250 4219 1831 4219 
Q 1534 4219 1204 4116 
Q 875 4013 500 3803 
L 500 4441 
Q 881 4594 1212 4672 
Q 1544 4750 1819 4750 
Q 2544 4750 2975 4387 
Q 3406 4025 3406 3419 
Q 3406 3131 3298 2873 
Q 3191 2616 2906 2266 
Q 2828 2175 2409 1742 
Q 1991 1309 1228 531 
z
" transform="scale(0.015625)"/>
       </defs>
       <use xlink:href="#DejaVuSans-31" transform="translate(0 0.765625)"/>
       <use xlink:href="#DejaVuSans-30" transform="translate(63.623047 0.765625)"/>
       <use xlink:href="#DejaVuSans-32" transform="translate(128.203125 39.046875) scale(0.7)"/>
      </g>
     </g>
    </g>
    <g id="xtick_4">
     <g id="line2d_7">
      <path d="M 633.375459 356.8032 
L 633.375459 27.4464 
" clip-path="url(#p1e596f0638)" style="fill: none; stroke: #b0b0b0; stroke-width: 0.8; stroke-linecap: square"/>
     </g>
     <g id="line2d_8">
      <g>
       <use xlink:href="#m72ef432bd9" x="633.375459" y="356.8032" style="stroke: #000000; stroke-width: 0.8"/>
      </g>
     </g>
     <g id="text_4">
      <!-- $\mathdefault{10^{3}}$ -->
      <g transform="translate(624.575459 371.401637) scale(0.1 -0.1)">
       <defs>
        <path id="DejaVuSans-33" d="M 2597 2516 
Q 3050 2419 3304 2112 
Q 3559 1806 3559 1356 
Q 3559 666 3084 287 
Q 2609 -91 1734 -91 
Q 1441 -91 1130 -33 
Q 819 25 488 141 
L 488 750 
Q 750 597 1062 519 
Q 1375 441 1716 441 
Q 2309 441 2620 675 
Q 2931 909 2931 1356 
Q 2931 1769 2642 2001 
Q 2353 2234 1838 2234 
L 1294 2234 
L 1294 2753 
L 1863 2753 
Q 2328 2753 2575 2939 
Q 2822 3125 2822 3475 
Q 2822 3834 2567 4026 
Q 2313 4219 1838 4219 
Q 1578 4219 1281 4162 
Q 984 4106 628 3988 
L 628 4550 
Q 988 4650 1302 4700 
Q 1616 4750 1894 4750 
Q 2613 4750 3031 4423 
Q 3450 4097 3450 3541 
Q 3450 3153 3228 2886 
Q 3006 2619 2597 2516 
z
" transform="scale(0.015625)"/>
       </defs>
       <use xlink:href="#DejaVuSans-31" transform="translate(0 0.765625)"/>
       <use xlink:href="#DejaVuSans-30" transform="translate(63.623047 0.765625)"/>
       <use xlink:href="#DejaVuSans-33" transform="translate(128.203125 39.046875) scale(0.7)"/>
      </g>
     </g>
    </g>
    <g id="xtick_5">
     <g id="line2d_9">
      <path d="M 794.231521 356.8032 
L 794.231521 27.4464 
" clip-path="url(#p1e596f0638)" style="fill: none; stroke: #b0b0b0; stroke-width: 0.8; stroke-linecap: square"/>
     </g>
     <g id="line2d_10">
      <g>
       <use xlink:href="#m72ef432bd9" x="794.231521" y="356.8032" style="stroke: #000000; stroke-width: 0.8"/>
      </g>
     </g>
     <g id="text_5">
      <!-- $\mathdefault{10^{4}}$ -->
      <g transform="translate(785.431521 371.401637) scale(0.1 -0.1)">
       <defs>
        <path id="DejaVuSans-34" d="M 2419 4116 
L 825 1625 
L 2419 1625 
L 2419 4116 
z
M 2253 4666 
L 3047 4666 
L 3047 1625 
L 3713 1625 
L 3713 1100 
L 3047 1100 
L 3047 0 
L 2419 0 
L 2419 1100 
L 313 1100 
L 313 1709 
L 2253 4666 
z
" transform="scale(0.015625)"/>
       </defs>
       <use xlink:href="#DejaVuSans-31" transform="translate(0 0.684375)"/>
       <use xlink:href="#DejaVuSans-30" transform="translate(63.623047 0.684375)"/>
       <use xlink:href="#DejaVuSans-34" transform="translate(128.203125 38.965625) scale(0.7)"/>
      </g>
     </g>
    </g>
    <g id="xtick_6">
     <g id="line2d_11">
      <path d="M 955.087583 356.8032 
L 955.087583 27.4464 
" clip-path="url(#p1e596f0638)" style="fill: none; stroke: #b0b0b0; stroke-width: 0.8; stroke-linecap: square"/>
     </g>
     <g id="line2d_12">
      <g>
       <use xlink:href="#m72ef432bd9" x="955.087583" y="356.8032" style="stroke: #000000; stroke-width: 0.8"/>
      </g>
     </g>
     <g id="text_6">
      <!-- $\mathdefault{10^{5}}$ -->
      <g transform="translate(946.287583 371.401637) scale(0.1 -0.1)">
       <defs>
        <path id="DejaVuSans-35" d="M 691 4666 
L 3169 4666 
L 3169 4134 
L 1269 4134 
L 1269 2991 
Q 1406 3038 1543 3061 
Q 1681 3084 1819 3084 
Q 2600 3084 3056 2656 
Q 3513 2228 3513 1497 
Q 3513 744 3044 326 
Q 2575 -91 1722 -91 
Q 1428 -91 1123 -41 
Q 819 9 494 109 
L 494 744 
Q 775 591 1075 516 
Q 1375 441 1709 441 
Q 2250 441 2565 725 
Q 2881 1009 2881 1497 
Q 2881 1984 2565 2268 
Q 2250 2553 1709 2553 
Q 1456 2553 1204 2497 
Q 953 2441 691 2322 
L 691 4666 
z
" transform="scale(0.015625)"/>
       </defs>
       <use xlink:href="#DejaVuSans-31" transform="translate(0 0.684375)"/>
       <use xlink:href="#DejaVuSans-30" transform="translate(63.623047 0.684375)"/>
       <use xlink:href="#DejaVuSans-35" transform="translate(128.203125 38.965625) scale(0.7)"/>
      </g>
     </g>
    </g>
    <g id="xtick_7">
     <g id="line2d_13">
      <defs>
       <path id="m84c51cf66b" d="M 0 0 
L 0 2 
" style="stroke: #000000; stroke-width: 0.6"/>
      </defs>
      <g>
       <use xlink:href="#m84c51cf66b" x="115.121557" y="356.8032" style="stroke: #000000; stroke-width: 0.6"/>
      </g>
     </g>
    </g>
    <g id="xtick_8">
     <g id="line2d_14">
      <g>
       <use xlink:href="#m84c51cf66b" x="125.890353" y="356.8032" style="stroke: #000000; stroke-width: 0.6"/>
      </g>
     </g>
    </g>
    <g id="xtick_9">
     <g id="line2d_15">
      <g>
       <use xlink:href="#m84c51cf66b" x="135.21871" y="356.8032" style="stroke: #000000; stroke-width: 0.6"/>
      </g>
     </g>
    </g>
    <g id="xtick_10">
     <g id="line2d_16">
      <g>
       <use xlink:href="#m84c51cf66b" x="143.446903" y="356.8032" style="stroke: #000000; stroke-width: 0.6"/>
      </g>
     </g>
    </g>
    <g id="xtick_11">
     <g id="line2d_17">
      <g>
       <use xlink:href="#m84c51cf66b" x="199.229772" y="356.8032" style="stroke: #000000; stroke-width: 0.6"/>
      </g>
     </g>
    </g>
    <g id="xtick_12">
     <g id="line2d_18">
      <g>
       <use xlink:href="#m84c51cf66b" x="227.555119" y="356.8032" style="stroke: #000000; stroke-width: 0.6"/>
      </g>
     </g>
    </g>
    <g id="xtick_13">
     <g id="line2d_19">
      <g>
       <use xlink:href="#m84c51cf66b" x="247.652272" y="356.8032" style="stroke: #000000; stroke-width: 0.6"/>
      </g>
     </g>
    </g>
    <g id="xtick_14">
     <g id="line2d_20">
      <g>
       <use xlink:href="#m84c51cf66b" x="263.240835" y="356.8032" style="stroke: #000000; stroke-width: 0.6"/>
      </g>
     </g>
    </g>
    <g id="xtick_15">
     <g id="line2d_21">
      <g>
       <use xlink:href="#m84c51cf66b" x="275.977618" y="356.8032" style="stroke: #000000; stroke-width: 0.6"/>
      </g>
     </g>
    </g>
    <g id="xtick_16">
     <g id="line2d_22">
      <g>
       <use xlink:href="#m84c51cf66b" x="286.746415" y="356.8032" style="stroke: #000000; stroke-width: 0.6"/>
      </g>
     </g>
    </g>
    <g id="xtick_17">
     <g id="line2d_23">
      <g>
       <use xlink:href="#m84c51cf66b" x="296.074772" y="356.8032" style="stroke: #000000; stroke-width: 0.6"/>
      </g>
     </g>
    </g>
    <g id="xtick_18">
     <g id="line2d_24">
      <g>
       <use xlink:href="#m84c51cf66b" x="304.302965" y="356.8032" style="stroke: #000000; stroke-width: 0.6"/>
      </g>
     </g>
    </g>
    <g id="xtick_19">
     <g id="line2d_25">
      <g>
       <use xlink:href="#m84c51cf66b" x="360.085834" y="356.8032" style="stroke: #000000; stroke-width: 0.6"/>
      </g>
     </g>
    </g>
    <g id="xtick_20">
     <g id="line2d_26">
      <g>
       <use xlink:href="#m84c51cf66b" x="388.411181" y="356.8032" style="stroke: #000000; stroke-width: 0.6"/>
      </g>
     </g>
    </g>
    <g id="xtick_21">
     <g id="line2d_27">
      <g>
       <use xlink:href="#m84c51cf66b" x="408.508334" y="356.8032" style="stroke: #000000; stroke-width: 0.6"/>
      </g>
     </g>
    </g>
    <g id="xtick_22">
     <g id="line2d_28">
      <g>
       <use xlink:href="#m84c51cf66b" x="424.096897" y="356.8032" style="stroke: #000000; stroke-width: 0.6"/>
      </g>
     </g>
    </g>
    <g id="xtick_23">
     <g id="line2d_29">
      <g>
       <use xlink:href="#m84c51cf66b" x="436.83368" y="356.8032" style="stroke: #000000; stroke-width: 0.6"/>
      </g>
     </g>
    </g>
    <g id="xtick_24">
     <g id="line2d_30">
      <g>
       <use xlink:href="#m84c51cf66b" x="447.602477" y="356.8032" style="stroke: #000000; stroke-width: 0.6"/>
      </g>
     </g>
    </g>
    <g id="xtick_25">
     <g id="line2d_31">
      <g>
       <use xlink:href="#m84c51cf66b" x="456.930834" y="356.8032" style="stroke: #000000; stroke-width: 0.6"/>
      </g>
     </g>
    </g>
    <g id="xtick_26">
     <g id="line2d_32">
      <g>
       <use xlink:href="#m84c51cf66b" x="465.159027" y="356.8032" style="stroke: #000000; stroke-width: 0.6"/>
      </g>
     </g>
    </g>
    <g id="xtick_27">
     <g id="line2d_33">
      <g>
       <use xlink:href="#m84c51cf66b" x="520.941896" y="356.8032" style="stroke: #000000; stroke-width: 0.6"/>
      </g>
     </g>
    </g>
    <g id="xtick_28">
     <g id="line2d_34">
      <g>
       <use xlink:href="#m84c51cf66b" x="549.267243" y="356.8032" style="stroke: #000000; stroke-width: 0.6"/>
      </g>
     </g>
    </g>
    <g id="xtick_29">
     <g id="line2d_35">
      <g>
       <use xlink:href="#m84c51cf66b" x="569.364396" y="356.8032" style="stroke: #000000; stroke-width: 0.6"/>
      </g>
     </g>
    </g>
    <g id="xtick_30">
     <g id="line2d_36">
      <g>
       <use xlink:href="#m84c51cf66b" x="584.952959" y="356.8032" style="stroke: #000000; stroke-width: 0.6"/>
      </g>
     </g>
    </g>
    <g id="xtick_31">
     <g id="line2d_37">
      <g>
       <use xlink:href="#m84c51cf66b" x="597.689742" y="356.8032" style="stroke: #000000; stroke-width: 0.6"/>
      </g>
     </g>
    </g>
    <g id="xtick_32">
     <g id="line2d_38">
      <g>
       <use xlink:href="#m84c51cf66b" x="608.458539" y="356.8032" style="stroke: #000000; stroke-width: 0.6"/>
      </g>
     </g>
    </g>
    <g id="xtick_33">
     <g id="line2d_39">
      <g>
       <use xlink:href="#m84c51cf66b" x="617.786896" y="356.8032" style="stroke: #000000; stroke-width: 0.6"/>
      </g>
     </g>
    </g>
    <g id="xtick_34">
     <g id="line2d_40">
      <g>
       <use xlink:href="#m84c51cf66b" x="626.015089" y="356.8032" style="stroke: #000000; stroke-width: 0.6"/>
      </g>
     </g>
    </g>
    <g id="xtick_35">
     <g id="line2d_41">
      <g>
       <use xlink:href="#m84c51cf66b" x="681.797958" y="356.8032" style="stroke: #000000; stroke-width: 0.6"/>
      </g>
     </g>
    </g>
    <g id="xtick_36">
     <g id="line2d_42">
      <g>
       <use xlink:href="#m84c51cf66b" x="710.123305" y="356.8032" style="stroke: #000000; stroke-width: 0.6"/>
      </g>
     </g>
    </g>
    <g id="xtick_37">
     <g id="line2d_43">
      <g>
       <use xlink:href="#m84c51cf66b" x="730.220458" y="356.8032" style="stroke: #000000; stroke-width: 0.6"/>
      </g>
     </g>
    </g>
    <g id="xtick_38">
     <g id="line2d_44">
      <g>
       <use xlink:href="#m84c51cf66b" x="745.809021" y="356.8032" style="stroke: #000000; stroke-width: 0.6"/>
      </g>
     </g>
    </g>
    <g id="xtick_39">
     <g id="line2d_45">
      <g>
       <use xlink:href="#m84c51cf66b" x="758.545804" y="356.8032" style="stroke: #000000; stroke-width: 0.6"/>
      </g>
     </g>
    </g>
    <g id="xtick_40">
     <g id="line2d_46">
      <g>
       <use xlink:href="#m84c51cf66b" x="769.314601" y="356.8032" style="stroke: #000000; stroke-width: 0.6"/>
      </g>
     </g>
    </g>
    <g id="xtick_41">
     <g id="line2d_47">
      <g>
       <use xlink:href="#m84c51cf66b" x="778.642958" y="356.8032" style="stroke: #000000; stroke-width: 0.6"/>
      </g>
     </g>
    </g>
    <g id="xtick_42">
     <g id="line2d_48">
      <g>
       <use xlink:href="#m84c51cf66b" x="786.871151" y="356.8032" style="stroke: #000000; stroke-width: 0.6"/>
      </g>
     </g>
    </g>
    <g id="xtick_43">
     <g id="line2d_49">
      <g>
       <use xlink:href="#m84c51cf66b" x="842.65402" y="356.8032" style="stroke: #000000; stroke-width: 0.6"/>
      </g>
     </g>
    </g>
    <g id="xtick_44">
     <g id="line2d_50">
      <g>
       <use xlink:href="#m84c51cf66b" x="870.979367" y="356.8032" style="stroke: #000000; stroke-width: 0.6"/>
      </g>
     </g>
    </g>
    <g id="xtick_45">
     <g id="line2d_51">
      <g>
       <use xlink:href="#m84c51cf66b" x="891.07652" y="356.8032" style="stroke: #000000; stroke-width: 0.6"/>
      </g>
     </g>
    </g>
    <g id="xtick_46">
     <g id="line2d_52">
      <g>
       <use xlink:href="#m84c51cf66b" x="906.665083" y="356.8032" style="stroke: #000000; stroke-width: 0.6"/>
      </g>
     </g>
    </g>
    <g id="xtick_47">
     <g id="line2d_53">
      <g>
       <use xlink:href="#m84c51cf66b" x="919.401866" y="356.8032" style="stroke: #000000; stroke-width: 0.6"/>
      </g>
     </g>
    </g>
    <g id="xtick_48">
     <g id="line2d_54">
      <g>
       <use xlink:href="#m84c51cf66b" x="930.170663" y="356.8032" style="stroke: #000000; stroke-width: 0.6"/>
      </g>
     </g>
    </g>
    <g id="xtick_49">
     <g id="line2d_55">
      <g>
       <use xlink:href="#m84c51cf66b" x="939.49902" y="356.8032" style="stroke: #000000; stroke-width: 0.6"/>
      </g>
     </g>
    </g>
    <g id="xtick_50">
     <g id="line2d_56">
      <g>
       <use xlink:href="#m84c51cf66b" x="947.727213" y="356.8032" style="stroke: #000000; stroke-width: 0.6"/>
      </g>
     </g>
    </g>
    <g id="text_7">
     <!-- budget -->
     <g transform="translate(535.231875 385.079763) scale(0.1 -0.1)">
      <defs>
       <path id="DejaVuSans-62" d="M 3116 1747 
Q 3116 2381 2855 2742 
Q 2594 3103 2138 3103 
Q 1681 3103 1420 2742 
Q 1159 2381 1159 1747 
Q 1159 1113 1420 752 
Q 1681 391 2138 391 
Q 2594 391 2855 752 
Q 3116 1113 3116 1747 
z
M 1159 2969 
Q 1341 3281 1617 3432 
Q 1894 3584 2278 3584 
Q 2916 3584 3314 3078 
Q 3713 2572 3713 1747 
Q 3713 922 3314 415 
Q 2916 -91 2278 -91 
Q 1894 -91 1617 61 
Q 1341 213 1159 525 
L 1159 0 
L 581 0 
L 581 4863 
L 1159 4863 
L 1159 2969 
z
" transform="scale(0.015625)"/>
       <path id="DejaVuSans-75" d="M 544 1381 
L 544 3500 
L 1119 3500 
L 1119 1403 
Q 1119 906 1312 657 
Q 1506 409 1894 409 
Q 2359 409 2629 706 
Q 2900 1003 2900 1516 
L 2900 3500 
L 3475 3500 
L 3475 0 
L 2900 0 
L 2900 538 
Q 2691 219 2414 64 
Q 2138 -91 1772 -91 
Q 1169 -91 856 284 
Q 544 659 544 1381 
z
M 1991 3584 
L 1991 3584 
z
" transform="scale(0.015625)"/>
       <path id="DejaVuSans-64" d="M 2906 2969 
L 2906 4863 
L 3481 4863 
L 3481 0 
L 2906 0 
L 2906 525 
Q 2725 213 2448 61 
Q 2172 -91 1784 -91 
Q 1150 -91 751 415 
Q 353 922 353 1747 
Q 353 2572 751 3078 
Q 1150 3584 1784 3584 
Q 2172 3584 2448 3432 
Q 2725 3281 2906 2969 
z
M 947 1747 
Q 947 1113 1208 752 
Q 1469 391 1925 391 
Q 2381 391 2643 752 
Q 2906 1113 2906 1747 
Q 2906 2381 2643 2742 
Q 2381 3103 1925 3103 
Q 1469 3103 1208 2742 
Q 947 2381 947 1747 
z
" transform="scale(0.015625)"/>
       <path id="DejaVuSans-67" d="M 2906 1791 
Q 2906 2416 2648 2759 
Q 2391 3103 1925 3103 
Q 1463 3103 1205 2759 
Q 947 2416 947 1791 
Q 947 1169 1205 825 
Q 1463 481 1925 481 
Q 2391 481 2648 825 
Q 2906 1169 2906 1791 
z
M 3481 434 
Q 3481 -459 3084 -895 
Q 2688 -1331 1869 -1331 
Q 1566 -1331 1297 -1286 
Q 1028 -1241 775 -1147 
L 775 -588 
Q 1028 -725 1275 -790 
Q 1522 -856 1778 -856 
Q 2344 -856 2625 -561 
Q 2906 -266 2906 331 
L 2906 616 
Q 2728 306 2450 153 
Q 2172 0 1784 0 
Q 1141 0 747 490 
Q 353 981 353 1791 
Q 353 2603 747 3093 
Q 1141 3584 1784 3584 
Q 2172 3584 2450 3431 
Q 2728 3278 2906 2969 
L 2906 3500 
L 3481 3500 
L 3481 434 
z
" transform="scale(0.015625)"/>
       <path id="DejaVuSans-65" d="M 3597 1894 
L 3597 1613 
L 953 1613 
Q 991 1019 1311 708 
Q 1631 397 2203 397 
Q 2534 397 2845 478 
Q 3156 559 3463 722 
L 3463 178 
Q 3153 47 2828 -22 
Q 2503 -91 2169 -91 
Q 1331 -91 842 396 
Q 353 884 353 1716 
Q 353 2575 817 3079 
Q 1281 3584 2069 3584 
Q 2775 3584 3186 3129 
Q 3597 2675 3597 1894 
z
M 3022 2063 
Q 3016 2534 2758 2815 
Q 2500 3097 2075 3097 
Q 1594 3097 1305 2825 
Q 1016 2553 972 2059 
L 3022 2063 
z
" transform="scale(0.015625)"/>
       <path id="DejaVuSans-74" d="M 1172 4494 
L 1172 3500 
L 2356 3500 
L 2356 3053 
L 1172 3053 
L 1172 1153 
Q 1172 725 1289 603 
Q 1406 481 1766 481 
L 2356 481 
L 2356 0 
L 1766 0 
Q 1100 0 847 248 
Q 594 497 594 1153 
L 594 3053 
L 172 3053 
L 172 3500 
L 594 3500 
L 594 4494 
L 1172 4494 
z
" transform="scale(0.015625)"/>
      </defs>
      <use xlink:href="#DejaVuSans-62"/>
      <use xlink:href="#DejaVuSans-75" x="63.476562"/>
      <use xlink:href="#DejaVuSans-64" x="126.855469"/>
      <use xlink:href="#DejaVuSans-67" x="190.332031"/>
      <use xlink:href="#DejaVuSans-65" x="253.808594"/>
      <use xlink:href="#DejaVuSans-74" x="315.332031"/>
     </g>
    </g>
   </g>
   <g id="matplotlib.axis_2">
    <g id="ytick_1">
     <g id="line2d_57">
      <path d="M 110.592 342.789577 
L 995.328 342.789577 
" clip-path="url(#p1e596f0638)" style="fill: none; stroke: #b0b0b0; stroke-width: 0.8; stroke-linecap: square"/>
     </g>
     <g id="line2d_58">
      <defs>
       <path id="mfe2ddf0542" d="M 0 0 
L -3.5 0 
" style="stroke: #000000; stroke-width: 0.8"/>
      </defs>
      <g>
       <use xlink:href="#mfe2ddf0542" x="110.592" y="342.789577" style="stroke: #000000; stroke-width: 0.8"/>
      </g>
     </g>
     <g id="text_8">
      <!-- 26 -->
      <g transform="translate(90.867 346.588796) scale(0.1 -0.1)">
       <defs>
        <path id="DejaVuSans-36" d="M 2113 2584 
Q 1688 2584 1439 2293 
Q 1191 2003 1191 1497 
Q 1191 994 1439 701 
Q 1688 409 2113 409 
Q 2538 409 2786 701 
Q 3034 994 3034 1497 
Q 3034 2003 2786 2293 
Q 2538 2584 2113 2584 
z
M 3366 4563 
L 3366 3988 
Q 3128 4100 2886 4159 
Q 2644 4219 2406 4219 
Q 1781 4219 1451 3797 
Q 1122 3375 1075 2522 
Q 1259 2794 1537 2939 
Q 1816 3084 2150 3084 
Q 2853 3084 3261 2657 
Q 3669 2231 3669 1497 
Q 3669 778 3244 343 
Q 2819 -91 2113 -91 
Q 1303 -91 875 529 
Q 447 1150 447 2328 
Q 447 3434 972 4092 
Q 1497 4750 2381 4750 
Q 2619 4750 2861 4703 
Q 3103 4656 3366 4563 
z
" transform="scale(0.015625)"/>
       </defs>
       <use xlink:href="#DejaVuSans-32"/>
       <use xlink:href="#DejaVuSans-36" x="63.623047"/>
      </g>
     </g>
    </g>
    <g id="ytick_2">
     <g id="line2d_59">
      <path d="M 110.592 289.762405 
L 995.328 289.762405 
" clip-path="url(#p1e596f0638)" style="fill: none; stroke: #b0b0b0; stroke-width: 0.8; stroke-linecap: square"/>
     </g>
     <g id="line2d_60">
      <g>
       <use xlink:href="#mfe2ddf0542" x="110.592" y="289.762405" style="stroke: #000000; stroke-width: 0.8"/>
      </g>
     </g>
     <g id="text_9">
      <!-- 28 -->
      <g transform="translate(90.867 293.561624) scale(0.1 -0.1)">
       <defs>
        <path id="DejaVuSans-38" d="M 2034 2216 
Q 1584 2216 1326 1975 
Q 1069 1734 1069 1313 
Q 1069 891 1326 650 
Q 1584 409 2034 409 
Q 2484 409 2743 651 
Q 3003 894 3003 1313 
Q 3003 1734 2745 1975 
Q 2488 2216 2034 2216 
z
M 1403 2484 
Q 997 2584 770 2862 
Q 544 3141 544 3541 
Q 544 4100 942 4425 
Q 1341 4750 2034 4750 
Q 2731 4750 3128 4425 
Q 3525 4100 3525 3541 
Q 3525 3141 3298 2862 
Q 3072 2584 2669 2484 
Q 3125 2378 3379 2068 
Q 3634 1759 3634 1313 
Q 3634 634 3220 271 
Q 2806 -91 2034 -91 
Q 1263 -91 848 271 
Q 434 634 434 1313 
Q 434 1759 690 2068 
Q 947 2378 1403 2484 
z
M 1172 3481 
Q 1172 3119 1398 2916 
Q 1625 2713 2034 2713 
Q 2441 2713 2670 2916 
Q 2900 3119 2900 3481 
Q 2900 3844 2670 4047 
Q 2441 4250 2034 4250 
Q 1625 4250 1398 4047 
Q 1172 3844 1172 3481 
z
" transform="scale(0.015625)"/>
       </defs>
       <use xlink:href="#DejaVuSans-32"/>
       <use xlink:href="#DejaVuSans-38" x="63.623047"/>
      </g>
     </g>
    </g>
    <g id="ytick_3">
     <g id="line2d_61">
      <path d="M 110.592 236.735234 
L 995.328 236.735234 
" clip-path="url(#p1e596f0638)" style="fill: none; stroke: #b0b0b0; stroke-width: 0.8; stroke-linecap: square"/>
     </g>
     <g id="line2d_62">
      <g>
       <use xlink:href="#mfe2ddf0542" x="110.592" y="236.735234" style="stroke: #000000; stroke-width: 0.8"/>
      </g>
     </g>
     <g id="text_10">
      <!-- 30 -->
      <g transform="translate(90.867 240.534452) scale(0.1 -0.1)">
       <use xlink:href="#DejaVuSans-33"/>
       <use xlink:href="#DejaVuSans-30" x="63.623047"/>
      </g>
     </g>
    </g>
    <g id="ytick_4">
     <g id="line2d_63">
      <path d="M 110.592 183.708062 
L 995.328 183.708062 
" clip-path="url(#p1e596f0638)" style="fill: none; stroke: #b0b0b0; stroke-width: 0.8; stroke-linecap: square"/>
     </g>
     <g id="line2d_64">
      <g>
       <use xlink:href="#mfe2ddf0542" x="110.592" y="183.708062" style="stroke: #000000; stroke-width: 0.8"/>
      </g>
     </g>
     <g id="text_11">
      <!-- 32 -->
      <g transform="translate(90.867 187.507281) scale(0.1 -0.1)">
       <use xlink:href="#DejaVuSans-33"/>
       <use xlink:href="#DejaVuSans-32" x="63.623047"/>
      </g>
     </g>
    </g>
    <g id="ytick_5">
     <g id="line2d_65">
      <path d="M 110.592 130.680891 
L 995.328 130.680891 
" clip-path="url(#p1e596f0638)" style="fill: none; stroke: #b0b0b0; stroke-width: 0.8; stroke-linecap: square"/>
     </g>
     <g id="line2d_66">
      <g>
       <use xlink:href="#mfe2ddf0542" x="110.592" y="130.680891" style="stroke: #000000; stroke-width: 0.8"/>
      </g>
     </g>
     <g id="text_12">
      <!-- 34 -->
      <g transform="translate(90.867 134.480109) scale(0.1 -0.1)">
       <use xlink:href="#DejaVuSans-33"/>
       <use xlink:href="#DejaVuSans-34" x="63.623047"/>
      </g>
     </g>
    </g>
    <g id="ytick_6">
     <g id="line2d_67">
      <path d="M 110.592 77.653719 
L 995.328 77.653719 
" clip-path="url(#p1e596f0638)" style="fill: none; stroke: #b0b0b0; stroke-width: 0.8; stroke-linecap: square"/>
     </g>
     <g id="line2d_68">
      <g>
       <use xlink:href="#mfe2ddf0542" x="110.592" y="77.653719" style="stroke: #000000; stroke-width: 0.8"/>
      </g>
     </g>
     <g id="text_13">
      <!-- 36 -->
      <g transform="translate(90.867 81.452938) scale(0.1 -0.1)">
       <use xlink:href="#DejaVuSans-33"/>
       <use xlink:href="#DejaVuSans-36" x="63.623047"/>
      </g>
     </g>
    </g>
    <g id="text_14">
     <!-- fitness -->
     <g transform="translate(84.787313 208.688863) rotate(-90) scale(0.1 -0.1)">
      <defs>
       <path id="DejaVuSans-66" d="M 2375 4863 
L 2375 4384 
L 1825 4384 
Q 1516 4384 1395 4259 
Q 1275 4134 1275 3809 
L 1275 3500 
L 2222 3500 
L 2222 3053 
L 1275 3053 
L 1275 0 
L 697 0 
L 697 3053 
L 147 3053 
L 147 3500 
L 697 3500 
L 697 3744 
Q 697 4328 969 4595 
Q 1241 4863 1831 4863 
L 2375 4863 
z
" transform="scale(0.015625)"/>
       <path id="DejaVuSans-69" d="M 603 3500 
L 1178 3500 
L 1178 0 
L 603 0 
L 603 3500 
z
M 603 4863 
L 1178 4863 
L 1178 4134 
L 603 4134 
L 603 4863 
z
" transform="scale(0.015625)"/>
       <path id="DejaVuSans-6e" d="M 3513 2113 
L 3513 0 
L 2938 0 
L 2938 2094 
Q 2938 2591 2744 2837 
Q 2550 3084 2163 3084 
Q 1697 3084 1428 2787 
Q 1159 2491 1159 1978 
L 1159 0 
L 581 0 
L 581 3500 
L 1159 3500 
L 1159 2956 
Q 1366 3272 1645 3428 
Q 1925 3584 2291 3584 
Q 2894 3584 3203 3211 
Q 3513 2838 3513 2113 
z
" transform="scale(0.015625)"/>
       <path id="DejaVuSans-73" d="M 2834 3397 
L 2834 2853 
Q 2591 2978 2328 3040 
Q 2066 3103 1784 3103 
Q 1356 3103 1142 2972 
Q 928 2841 928 2578 
Q 928 2378 1081 2264 
Q 1234 2150 1697 2047 
L 1894 2003 
Q 2506 1872 2764 1633 
Q 3022 1394 3022 966 
Q 3022 478 2636 193 
Q 2250 -91 1575 -91 
Q 1294 -91 989 -36 
Q 684 19 347 128 
L 347 722 
Q 666 556 975 473 
Q 1284 391 1588 391 
Q 1994 391 2212 530 
Q 2431 669 2431 922 
Q 2431 1156 2273 1281 
Q 2116 1406 1581 1522 
L 1381 1569 
Q 847 1681 609 1914 
Q 372 2147 372 2553 
Q 372 3047 722 3315 
Q 1072 3584 1716 3584 
Q 2034 3584 2315 3537 
Q 2597 3491 2834 3397 
z
" transform="scale(0.015625)"/>
      </defs>
      <use xlink:href="#DejaVuSans-66"/>
      <use xlink:href="#DejaVuSans-69" x="35.205078"/>
      <use xlink:href="#DejaVuSans-74" x="62.988281"/>
      <use xlink:href="#DejaVuSans-6e" x="102.197266"/>
      <use xlink:href="#DejaVuSans-65" x="165.576172"/>
      <use xlink:href="#DejaVuSans-73" x="227.099609"/>
      <use xlink:href="#DejaVuSans-73" x="279.199219"/>
     </g>
    </g>
   </g>
   <g id="line2d_69">
    <path d="M 150.807273 341.832436 
L 473.214516 171.664001 
L 521.29032 127.584899 
L 549.499719 103.892094 
L 569.538825 93.049893 
L 585.092537 85.992242 
L 597.806077 83.955998 
L 617.961325 80.85603 
L 626.170159 76.148808 
L 633.515037 75.967455 
L 646.228577 74.82525 
L 646.286671 74.824454 
L 651.864965 74.587158 
L 661.840383 74.295508 
L 666.340258 74.058212 
L 678.361582 72.179459 
L 681.937537 70.2095 
L 688.583123 70.029207 
L 694.651076 69.781836 
L 697.498206 69.374587 
L 697.5261 69.059605 
L 700.260652 69.027789 
L 712.549046 68.582361 
L 714.762758 68.52138 
L 716.90847 65.589772 
L 718.990236 63.267713 
L 721.011757 62.780923 
L 722.995793 62.466737 
L 724.906191 62.32595 
L 728.577059 60.784715 
L 738.572735 60.419358 
L 740.12062 59.443393 
L 741.620118 58.077943 
L 753.850675 58.049574 
L 762.076101 57.063534 
L 763.174361 56.743515 
L 764.255623 55.56419 
L 764.266351 54.605724 
L 766.390014 54.311688 
L 767.42299 53.87554 
L 769.434257 51.473674 
L 774.246052 51.46466 
L 775.169881 50.44044 
L 785.428123 50.239467 
L 785.436046 49.266153 
L 786.208237 48.415862 
L 786.987485 48.188906 
L 797.772886 47.819837 
L 812.150395 47.329336 
L 812.688851 46.442986 
L 821.273723 45.899988 
L 821.746479 44.325877 
L 824.960113 43.677354 
L 869.210693 43.296619 
L 879.021021 42.934444 
L 879.027247 42.806648 
L 879.228256 42.786498 
L 882.465018 42.52693 
L 920.560021 42.48822 
L 947.538339 42.417164 
L 955.095965 42.417164 
L 955.098759 42.417164 
L 955.101553 42.417164 
L 955.10295 42.417164 
L 955.106442 42.417164 
L 955.110632 42.417164 
L 955.111331 42.417164 
L 955.112727 42.417164 
" clip-path="url(#p1e596f0638)" style="fill: none; stroke: #8000ff; stroke-width: 1.5; stroke-linecap: square"/>
   </g>
   <g id="line2d_70">
    <path d="M 150.807273 341.832436 
L 426.836813 255.480869 
L 474.584342 236.997983 
L 475.259313 235.492542 
L 475.927824 233.597351 
L 477.89581 232.518513 
L 502.683241 221.79801 
L 503.135404 218.426012 
L 503.584659 211.135306 
L 506.651059 204.330594 
L 522.666895 192.26055 
L 523.006842 190.31896 
L 523.345142 186.143335 
L 525.341247 182.759936 
L 528.546345 179.741099 
L 538.18727 174.609925 
L 539.001169 172.939039 
L 539.538548 170.385516 
L 539.805695 168.268671 
L 540.601061 167.098892 
L 543.442295 166.8608 
L 550.878557 164.408558 
L 551.105741 163.974 
L 552.007159 160.882251 
L 552.230707 160.237706 
L 554.427709 160.09957 
L 555.925507 159.632666 
L 561.809704 158.698327 
L 562.004026 155.799862 
L 562.391057 155.328981 
L 562.775956 153.309176 
L 562.967613 149.779687 
L 564.669267 147.68803 
L 565.964701 146.376138 
L 571.089395 145.672467 
L 571.259575 144.483068 
L 571.598696 144.331145 
L 571.93618 143.123186 
L 572.439367 135.855282 
L 574.416638 134.863939 
L 575.704396 133.699197 
L 579.431087 133.36221 
L 579.732854 130.77687 
L 580.332505 129.719243 
L 580.630411 125.153338 
L 582.391653 123.654525 
L 583.54162 123.124784 
L 586.74608 123.08793 
L 587.423669 121.980457 
L 587.692875 117.856799 
L 588.094749 114.539155 
L 589.809973 113.031062 
L 593.490948 110.512536 
L 593.983782 109.616112 
L 594.351139 106.949906 
L 594.716575 106.410619 
L 595.080108 104.700493 
L 596.752025 103.705438 
L 600.205392 102.449755 
L 600.317615 101.893765 
L 600.429658 100.153148 
L 601.09817 98.99583 
L 601.430042 98.899055 
L 603.17388 98.543508 
L 605.814364 97.109653 
L 605.917936 96.922468 
L 608.856597 95.017201 
L 611.102429 91.180685 
L 611.866967 90.69204 
L 612.056801 90.425313 
L 614.478818 87.417347 
L 615.928601 81.485463 
L 616.819671 80.113915 
L 618.998852 79.990096 
L 620.526811 79.300213 
L 620.778253 78.425795 
L 621.444374 77.07042 
L 623.244118 76.6987 
L 624.998657 76.06529 
L 625.703913 73.673765 
L 626.170159 73.44018 
L 627.322338 72.089313 
L 629.718591 71.507605 
L 630.085691 70.512285 
L 631.463337 69.627792 
L 633.515037 67.831231 
L 635.032269 66.906437 
L 637.049509 66.808072 
L 638.427701 65.118626 
L 640.413736 64.948144 
L 641.789694 64.125427 
L 643.683668 62.394885 
L 646.691987 60.98834 
L 647.894014 59.71065 
L 653.925225 58.54962 
L 656.581 56.918769 
L 688.55142 56.206614 
L 698.797301 55.54404 
L 700.206997 53.809786 
L 710.887557 53.413143 
L 713.220556 52.870675 
L 738.97449 51.516626 
L 739.755901 50.881361 
L 740.543734 50.54888 
L 741.322782 49.700446 
L 741.545902 49.694348 
L 742.313915 49.047681 
L 743.059045 48.257576 
L 772.32269 48.021871 
L 788.77766 45.914306 
L 789.161812 45.74727 
L 796.472587 45.495126 
L 801.004006 44.277622 
L 832.41761 43.949119 
L 868.306855 43.713413 
L 869.217857 43.476912 
L 877.998693 43.048452 
L 883.243004 42.934709 
L 902.70279 42.811951 
L 903.426555 42.662414 
L 907.315921 42.534619 
L 955.08898 42.443412 
L 955.08898 42.443412 
" clip-path="url(#p1e596f0638)" style="fill: none; stroke: #4df3ce; stroke-width: 1.5; stroke-linecap: square"/>
   </g>
   <g id="line2d_71">
    <path d="M 150.807273 341.832436 
L 446.597296 324.745491 
L 447.602477 318.24595 
L 448.5934 304.985446 
L 449.570464 290.505846 
L 452.422244 253.507993 
L 456.052094 219.699194 
L 456.930834 198.484614 
L 458.655832 171.664001 
L 488.10796 170.234918 
L 490.308422 165.971534 
L 491.383195 161.776289 
L 491.914444 156.795447 
L 493.99994 153.292472 
L 495.524194 149.156883 
L 496.024977 140.489327 
L 497.0159 135.767257 
L 497.992964 128.194447 
L 512.011598 128.03616 
L 515.116949 125.187011 
L 515.872188 122.075906 
L 516.246767 119.552343 
L 517.725317 116.797582 
L 518.453021 112.74392 
L 519.173222 108.631928 
L 520.239791 107.372797 
L 520.941896 106.544778 
L 532.79994 106.486448 
L 533.386993 104.872036 
L 535.11912 103.984891 
L 535.687082 101.020142 
L 536.250463 100.334236 
L 536.530459 97.533606 
L 538.18727 96.890121 
L 549.267243 93.768677 
L 549.499719 91.880644 
L 551.557904 90.403307 
L 560.434097 88.310855 
L 561.809704 86.928437 
L 569.886383 86.826094 
L 571.767642 82.118872 
L 579.88325 81.937519 
L 582.825112 79.019169 
L 584.39184 78.870428 
L 610.232203 78.869632 
L 615.026019 78.632336 
L 624.5245 78.520448 
L 625.391345 76.693662 
L 628.530738 76.276603 
L 641.354822 74.397851 
L 644.581994 72.427891 
L 648.964022 70.132875 
L 650.620832 69.952583 
L 651.81133 69.545334 
L 662.672047 69.515374 
L 664.976041 69.198537 
L 678.654492 68.753108 
L 690.675144 67.211874 
L 696.458244 65.210363 
L 699.857231 64.756716 
L 701.40438 64.391358 
L 708.735723 64.128609 
L 711.025618 63.162984 
L 723.285705 62.984813 
L 725.487961 62.664794 
L 726.434648 61.485469 
L 728.074604 61.191434 
L 729.004877 60.755285 
L 743.291182 58.465572 
L 744.040347 57.534415 
L 744.411938 56.684124 
L 744.767382 56.197335 
L 745.149241 55.970378 
L 746.931666 54.997065 
L 749.760894 53.803158 
L 761.520428 53.727064 
L 762.08717 53.434089 
L 779.138937 52.057238 
L 780.231513 51.711236 
L 780.673983 51.379551 
L 793.818132 50.982378 
L 794.175611 50.815077 
L 796.917678 49.890813 
L 800.75629 49.061468 
L 812.721027 48.56752 
L 813.890686 48.351169 
L 821.600266 47.974146 
L 823.967647 47.870743 
L 824.200032 47.237334 
L 831.074246 46.634945 
L 832.857039 46.483287 
L 841.196331 46.355492 
L 845.652071 45.740376 
L 856.039796 44.649608 
L 889.924886 44.217436 
L 908.422788 43.989419 
L 910.081494 43.918363 
L 912.858193 43.543726 
L 915.765853 43.053225 
L 940.135322 43.002584 
L 940.179439 42.906074 
L 941.230833 42.704836 
L 955.087583 42.704836 
L 955.088281 42.704836 
L 955.08898 42.704836 
L 955.089678 42.704836 
L 955.091075 42.704836 
L 955.093171 42.704836 
" clip-path="url(#p1e596f0638)" style="fill: none; stroke: #18cde4; stroke-width: 1.5; stroke-linecap: square"/>
   </g>
   <g id="line2d_72">
    <path d="M 150.807273 341.832436 
L 199.229772 336.333784 
L 227.555119 329.35912 
L 247.652272 323.295993 
L 263.240835 319.745824 
L 275.977618 319.687494 
L 286.746415 314.020215 
L 296.074772 309.728726 
L 304.302965 307.112631 
L 311.663335 299.758027 
L 318.321599 291.728653 
L 324.400118 291.089145 
L 329.991814 280.525867 
L 335.168915 275.547942 
L 339.988681 273.853193 
L 344.497271 272.72504 
L 348.732441 271.402543 
L 356.502541 265.575387 
L 360.085834 260.813016 
L 363.494262 257.832359 
L 366.744099 254.343701 
L 369.84945 251.912671 
L 372.822618 248.787514 
L 375.674397 243.783871 
L 378.414313 240.017351 
L 381.050811 231.708788 
L 383.591415 227.711335 
L 386.042856 222.248476 
L 388.411181 220.912191 
L 390.701842 219.299369 
L 392.919771 218.790839 
L 395.069445 213.205222 
L 397.15494 204.81977 
L 401.147964 199.276309 
L 403.062026 198.435033 
L 404.925041 198.122173 
L 406.73966 193.649596 
L 408.508334 192.975886 
L 410.233333 192.798775 
L 411.916761 190.066285 
L 413.560576 185.290393 
L 415.166598 184.052474 
L 418.27195 182.583091 
L 419.774349 179.688337 
L 422.685558 179.552853 
L 424.096897 178.448827 
L 425.480287 177.624255 
L 426.836813 175.583504 
L 428.167499 174.806391 
L 429.473311 174.51103 
L 430.755161 171.644116 
L 432.013914 168.490325 
L 433.250387 164.84126 
L 436.83368 162.700553 
L 437.988399 161.043984 
L 441.342271 160.349328 
L 442.425376 157.527752 
L 443.491945 156.507244 
L 444.542474 155.680286 
L 446.597296 149.021664 
L 447.602477 147.656214 
L 448.5934 146.712065 
L 450.53405 142.514169 
L 451.484526 141.740503 
L 452.422244 140.716283 
L 454.260742 136.038491 
L 456.052094 134.472864 
L 457.798657 130.643507 
L 459.502617 127.438809 
L 461.166003 123.189212 
L 462.790702 122.595042 
L 465.159027 122.200785 
L 467.449688 120.905066 
L 468.196849 120.19901 
L 468.936104 118.9998 
L 469.667617 117.303726 
L 470.39155 113.556826 
L 471.108058 110.445722 
L 471.817291 109.772277 
L 473.214516 107.296438 
L 474.584342 105.213001 
L 476.589999 104.571637 
L 478.539676 102.756517 
L 481.057386 102.360404 
L 483.487506 102.358283 
L 486.981179 101.686694 
L 488.10796 99.699766 
L 488.664607 99.326189 
L 490.308422 99.038782 
L 492.441684 98.299053 
L 496.522196 97.806165 
L 497.0159 97.038067 
L 499.433404 96.672975 
L 500.844743 95.995022 
L 502.683241 95.39449 
L 505.788593 94.200053 
L 507.503007 92.842557 
L 509.176355 92.8004 
L 511.61354 91.89231 
L 518.090117 90.454213 
L 519.886074 89.253943 
L 521.29032 88.734807 
L 527.281896 87.546733 
L 543.442295 84.510132 
L 555.073559 83.278046 
L 555.925507 82.189663 
L 573.763746 81.590456 
L 576.18125 81.270172 
L 576.654872 80.931859 
L 580.481617 80.686873 
L 581.369666 78.728845 
L 614.3872 78.645327 
L 615.207471 78.233836 
L 619.426649 78.09411 
L 619.767009 77.139886 
L 621.112108 76.584691 
L 622.431796 75.844962 
L 623.324833 75.752695 
L 627.016944 75.254505 
L 630.741648 75.222423 
L 632.602753 75.012701 
L 639.2032 73.582823 
L 641.354822 72.804915 
L 659.187795 72.260856 
L 670.64973 71.751 
L 671.383378 70.078788 
L 671.585809 68.994912 
L 673.10541 68.664288 
L 673.144956 68.1714 
L 673.263462 65.22415 
L 674.087418 64.968559 
L 675.477691 64.13179 
L 677.363845 64.12039 
L 677.735041 63.287863 
L 678.691019 63.175445 
L 680.422253 61.991349 
L 682.042038 59.131593 
L 682.423876 59.026069 
L 694.096753 57.968442 
L 695.517465 57.597252 
L 699.315687 56.952707 
L 702.685271 56.8326 
L 703.688232 56.383195 
L 707.971447 55.506656 
L 739.005299 54.753405 
L 750.926218 54.619511 
L 753.338245 53.741381 
L 780.623071 53.625252 
L 780.733332 52.445662 
L 794.649422 52.16727 
L 804.870459 51.432048 
L 805.13392 50.892231 
L 809.641016 50.51892 
L 809.915027 49.990769 
L 815.794202 49.807295 
L 817.401974 49.614807 
L 817.417014 49.026205 
L 840.662877 47.928012 
L 841.746977 47.362743 
L 842.751754 47.186162 
L 851.95137 46.955759 
L 862.249888 46.541882 
L 862.623564 45.693713 
L 864.250043 45.639095 
L 889.39914 45.607278 
L 893.2499 45.479483 
L 902.296443 44.860391 
L 902.369285 44.199142 
L 902.816559 44.045628 
L 915.237684 43.898478 
L 916.975703 43.470018 
L 928.229817 43.442709 
L 928.954575 42.948231 
L 955.087583 42.948231 
L 955.087583 42.948231 
" clip-path="url(#p1e596f0638)" style="fill: none; stroke: #ff0000; stroke-width: 1.5; stroke-linecap: square"/>
   </g>
   <g id="line2d_73">
    <path d="M 150.807273 341.832436 
L 446.597296 337.069536 
L 447.602477 336.748721 
L 449.570464 328.156464 
L 452.422244 321.201685 
L 456.052094 314.198121 
L 456.930834 308.401191 
L 458.655832 302.85773 
L 492.964974 300.03695 
L 493.484373 297.438353 
L 494.511729 297.182763 
L 496.024977 294.826235 
L 499.433404 291.71354 
L 500.377458 289.118921 
L 502.683241 286.305299 
L 503.584659 280.436517 
L 504.915345 274.496943 
L 519.530557 272.32495 
L 520.591726 269.858656 
L 523.345142 268.043271 
L 527.281896 264.923418 
L 529.788314 262.307587 
L 530.401115 259.106867 
L 530.705512 256.710304 
L 531.008588 251.818548 
L 538.18727 248.439656 
L 539.538548 246.004648 
L 541.906873 241.163798 
L 545.191984 238.99207 
L 548.329525 235.515874 
L 548.799957 233.335397 
L 549.499719 227.707358 
L 552.67567 226.161881 
L 554.211092 226.001739 
L 555.713492 222.111666 
L 556.557719 220.382449 
L 561.614839 216.739748 
L 562.967613 211.856211 
L 563.158745 208.730524 
L 563.729025 205.868647 
L 564.482228 204.678983 
L 566.512616 203.708586 
L 567.056268 201.093551 
L 568.308574 199.48179 
L 571.259575 197.428313 
L 573.434998 193.791709 
L 573.927542 191.640132 
L 574.416638 186.576302 
L 575.063484 182.578318 
L 576.339481 181.358958 
L 576.497355 180.96205 
L 578.05677 179.368584 
L 581.222439 178.614272 
L 582.825112 177.245906 
L 583.968024 170.150075 
L 584.532543 167.311796 
L 585.231837 164.863266 
L 586.473193 164.531581 
L 590.199884 163.824994 
L 590.329373 163.1542 
L 591.356728 160.035937 
L 591.738124 156.948695 
L 591.864795 155.346214 
L 592.117449 154.590842 
L 592.869976 151.303953 
L 593.7378 148.650473 
L 596.86993 148.325417 
L 598.153923 147.603452 
L 598.500045 145.962526 
L 598.729845 143.079969 
L 598.95889 141.715845 
L 600.092988 139.181942 
L 604.55938 138.194841 
L 604.980218 135.837783 
L 605.398536 130.550179 
L 605.814364 129.553798 
L 606.53616 128.34743 
L 609.841929 127.800985 
L 610.426526 126.910128 
L 610.523485 125.411846 
L 610.717 124.995582 
L 610.90998 123.037289 
L 611.102429 123.000435 
L 611.294349 121.748994 
L 612.151525 120.785755 
L 614.661695 120.316465 
L 615.568966 117.716808 
L 615.659049 116.82436 
L 615.928601 115.308314 
L 616.107727 113.045909 
L 618.048376 109.389156 
L 620.10572 109.276738 
L 620.274461 108.610717 
L 620.861867 107.422643 
L 622.022065 105.738235 
L 622.186246 104.911541 
L 622.350042 104.862756 
L 624.286209 104.633149 
L 624.5245 104.424752 
L 624.68291 103.151039 
L 625.234534 102.214314 
L 626.556334 101.417316 
L 626.633313 100.081296 
L 628.455823 98.80069 
L 628.680329 97.865821 
L 629.27551 97.139349 
L 629.423516 95.955517 
L 630.814153 94.003587 
L 632.035368 93.464035 
L 632.390523 92.76063 
L 634.3467 92.004463 
L 634.758848 91.422754 
L 635.575921 91.028232 
L 637.049509 90.66261 
L 638.427701 89.970605 
L 638.945656 89.478778 
L 639.842938 88.464369 
L 641.105103 88.345588 
L 641.913448 87.811604 
L 643.86426 87.720663 
L 644.283834 85.313229 
L 645.115497 85.015216 
L 647.152344 84.937797 
L 647.266961 83.453036 
L 648.177187 83.377472 
L 651.056092 82.028196 
L 653.245201 81.950776 
L 653.821036 80.185501 
L 656.078054 78.772592 
L 658.654703 78.730436 
L 659.042809 78.147137 
L 661.092722 78.145016 
L 661.560947 77.474222 
L 663.901267 77.011295 
L 669.576227 76.978153 
L 671.747332 75.867499 
L 681.867782 74.867937 
L 683.625115 74.692947 
L 690.582799 74.395465 
L 692.196522 74.088702 
L 696.712636 73.779024 
L 699.397186 73.060506 
L 700.901319 73.015963 
L 702.399761 72.546937 
L 703.815782 72.50266 
L 705.22865 72.248925 
L 707.077203 72.11344 
L 707.899366 71.933943 
L 711.62075 71.817283 
L 712.796016 71.122097 
L 719.88692 70.599249 
L 720.93201 70.12333 
L 721.942035 69.796948 
L 726.194551 69.707067 
L 726.250032 69.3319 
L 734.734506 69.054568 
L 735.580699 68.526682 
L 735.839017 67.453147 
L 744.497409 66.862159 
L 744.568556 65.715977 
L 744.809914 65.568031 
L 745.247902 63.902713 
L 746.69754 63.599132 
L 747.397577 63.587997 
L 753.124667 62.702708 
L 753.763453 61.518611 
L 763.272363 61.055949 
L 763.835919 60.494392 
L 764.394965 59.703226 
L 767.269014 59.595316 
L 767.791154 58.168885 
L 791.749884 57.879091 
L 798.216394 57.506576 
L 798.552112 57.132469 
L 807.945287 55.893489 
L 808.243168 55.102324 
L 809.646618 54.711248 
L 809.853608 54.058749 
L 809.931769 53.090473 
L 811.274666 52.162497 
L 817.206157 51.959138 
L 828.632669 49.937212 
L 828.854322 49.542955 
L 829.071031 49.446711 
L 829.261689 49.233807 
L 838.775963 48.988026 
L 838.964019 48.516349 
L 846.500186 48.237956 
L 846.83986 48.14728 
L 863.696575 47.939413 
L 869.677245 47.68886 
L 869.798135 47.543831 
L 882.774499 47.492924 
L 887.967755 46.374847 
L 888.157396 45.298395 
L 902.089396 45.108558 
L 902.165434 44.974664 
L 941.118298 44.27338 
L 941.206125 43.77678 
L 946.949013 43.687695 
L 946.989032 42.953003 
L 955.094568 42.953003 
L 955.094568 42.953003 
" clip-path="url(#p1e596f0638)" style="fill: none; stroke: #80ffb4; stroke-width: 1.5; stroke-linecap: square"/>
   </g>
   <g id="line2d_74">
    <path d="M 150.807273 341.832436 
L 199.229772 338.280676 
L 227.555119 331.843178 
L 247.652272 326.331799 
L 263.240835 319.036851 
L 275.977618 317.024735 
L 286.746415 314.119376 
L 296.074772 307.083731 
L 304.302965 303.009653 
L 311.663335 301.057723 
L 318.321599 299.486528 
L 324.400118 298.500753 
L 329.991814 298.08502 
L 335.168915 293.48014 
L 339.988681 288.04459 
L 344.497271 287.786348 
L 348.732441 285.58519 
L 352.725465 280.907398 
L 360.085834 278.684499 
L 369.84945 277.461957 
L 372.822618 275.123724 
L 375.674397 271.306033 
L 381.050811 269.219679 
L 383.591415 267.967442 
L 386.042856 262.40118 
L 388.411181 259.242086 
L 390.701842 257.23978 
L 395.069445 255.602567 
L 397.15494 255.545827 
L 399.179978 254.742466 
L 403.062026 251.428268 
L 404.925041 248.294362 
L 408.508334 247.025156 
L 410.233333 244.740216 
L 413.560576 244.605792 
L 416.736527 241.535784 
L 418.27195 240.713862 
L 419.774349 240.671706 
L 422.685558 239.662334 
L 424.096897 239.523668 
L 425.480287 236.804434 
L 426.836813 236.752202 
L 428.167499 235.847559 
L 429.473311 234.223337 
L 430.755161 233.140257 
L 433.250387 232.163761 
L 435.659554 231.669813 
L 436.83368 229.902683 
L 440.242108 226.337401 
L 442.425376 222.987674 
L 443.491945 222.532966 
L 444.542474 214.566164 
L 448.5934 213.746894 
L 452.422244 212.347242 
L 453.34754 212.318077 
L 455.162159 211.673532 
L 456.052094 209.765084 
L 456.930834 208.428004 
L 458.655832 203.918838 
L 459.502617 201.087718 
L 461.983075 196.992694 
L 465.159027 196.677183 
L 467.449688 192.400011 
L 468.936104 189.088464 
L 472.519397 184.844965 
L 473.214516 184.373818 
L 474.584342 181.05962 
L 477.245955 179.865713 
L 479.177661 179.18564 
L 479.809873 176.613292 
L 480.436414 172.446947 
L 484.082053 170.479904 
L 485.25618 168.359613 
L 487.546841 166.953597 
L 488.10796 166.115237 
L 489.216854 165.825179 
L 490.308422 164.192207 
L 490.847876 162.272093 
L 492.964974 160.260773 
L 493.484373 158.551707 
L 494.511729 158.164609 
L 495.019796 156.961952 
L 495.524194 155.1813 
L 496.024977 154.464638 
L 497.992964 153.285313 
L 499.433404 151.439438 
L 499.907026 145.700042 
L 503.135404 145.214048 
L 503.584659 144.745022 
L 504.031043 143.535472 
L 504.474593 143.025616 
L 504.915345 141.838868 
L 506.651059 141.821104 
L 507.078332 140.808815 
L 508.76176 140.626667 
L 510.405575 139.33572 
L 510.810555 138.739165 
L 511.61354 138.068901 
L 513.581527 125.118871 
L 516.619349 125.060541 
L 517.358603 124.181615 
L 519.886074 120.868478 
L 520.239791 119.534579 
L 520.941896 118.319462 
L 521.29032 116.827807 
L 521.637015 115.877825 
L 525.012498 115.358424 
L 527.600161 113.992975 
L 528.232372 112.21842 
L 529.17009 111.564595 
L 529.479886 109.356544 
L 532.207912 107.093874 
L 533.386993 106.107304 
L 533.67868 104.437478 
L 534.833399 103.507647 
L 535.11912 102.43093 
L 536.530459 102.406538 
L 536.809338 102.117009 
L 538.18727 99.797336 
L 539.538548 97.849913 
L 540.864184 97.556938 
L 541.387474 97.21942 
L 543.188724 94.397844 
L 543.946694 94.160812 
L 546.172475 93.835756 
L 547.617884 92.218957 
L 547.855904 91.087092 
L 549.033991 91.055541 
L 551.557904 90.826199 
L 551.782892 90.118816 
L 553.337845 89.758762 
L 554.211092 88.495655 
L 554.858938 88.250404 
L 558.216168 88.158137 
L 559.233055 87.641122 
L 560.434097 86.758484 
L 561.419429 85.558214 
L 563.158745 84.976506 
L 566.875521 82.704292 
L 567.595722 81.308617 
L 572.772823 81.071585 
L 574.416638 80.217053 
L 577.592589 79.192833 
L 582.246567 79.022881 
L 606.945291 78.78691 
L 608.757295 78.078202 
L 614.844095 77.533878 
L 621.775068 76.872894 
L 623.244118 75.768603 
L 625.781837 74.885966 
L 638.881121 74.607308 
L 640.791693 73.656531 
L 641.479348 72.983086 
L 642.651401 72.523871 
L 642.712547 71.619757 
L 643.623367 71.218607 
L 644.878888 69.851831 
L 647.037539 68.179354 
L 670.935954 67.711655 
L 682.458485 67.054118 
L 683.522957 66.78527 
L 684.571452 66.730917 
L 687.109658 66.369007 
L 688.23359 65.476294 
L 689.056959 65.465159 
L 715.822393 64.252957 
L 720.169832 63.103063 
L 720.752244 63.073368 
L 721.409135 62.535407 
L 721.468548 62.193117 
L 736.144535 61.410966 
L 740.438196 61.105265 
L 740.949324 60.954137 
L 741.575598 59.360671 
L 748.763557 58.614313 
L 753.999946 57.310375 
L 778.730227 56.952442 
L 781.65941 56.138475 
L 791.525129 54.794766 
L 798.00492 54.74492 
L 802.565199 54.578415 
L 804.394919 54.222603 
L 814.97882 53.603245 
L 836.433098 53.461928 
L 836.6009 53.346064 
L 839.386217 52.641598 
L 844.146907 52.138105 
L 844.276712 51.759226 
L 847.631489 50.229922 
L 847.71276 49.743133 
L 858.437915 49.558333 
L 865.004923 49.298235 
L 865.530542 48.476844 
L 899.099493 47.726509 
L 899.487659 47.11325 
L 900.704843 46.188456 
L 909.006204 45.838212 
L 913.654075 45.773784 
L 914.646939 44.89751 
L 924.66823 44.257472 
L 924.691981 43.988624 
L 925.030094 43.97192 
L 931.001022 43.917302 
L 948.653276 43.250221 
L 955.087583 43.250221 
L 955.087583 43.250221 
" clip-path="url(#p1e596f0638)" style="fill: none; stroke: #e6cd73; stroke-width: 1.5; stroke-linecap: square"/>
   </g>
   <g id="line2d_75">
    <path d="M 150.807273 341.832436 
L 426.836813 319.758551 
L 428.167499 319.30888 
L 446.597296 319.159609 
L 448.5934 317.589474 
L 459.502617 314.009875 
L 475.259313 311.025241 
L 478.539676 308.963544 
L 484.671583 306.814883 
L 485.835925 305.755665 
L 486.410899 305.41258 
L 492.441684 303.166614 
L 493.99994 301.499439 
L 502.683241 298.444809 
L 504.915345 298.115245 
L 509.588503 296.466631 
L 510.810555 295.387793 
L 512.011598 294.94316 
L 517.725317 294.615982 
L 519.886074 293.075808 
L 520.591726 290.839652 
L 523.006842 290.174426 
L 527.281896 289.658207 
L 530.705512 287.671809 
L 533.094083 287.461556 
L 533.67868 287.214185 
L 538.459625 286.660051 
L 540.071825 284.334544 
L 542.165132 281.559897 
L 543.946694 280.054986 
L 545.191984 277.65206 
L 549.033991 276.142111 
L 550.19254 275.917806 
L 550.650633 273.908076 
L 552.007159 273.432688 
L 552.230707 272.72557 
L 557.805232 269.834794 
L 559.635701 267.245477 
L 562.004026 266.882772 
L 564.294687 264.297167 
L 565.597021 262.00162 
L 567.236549 260.119156 
L 569.014225 257.485561 
L 570.918799 255.876982 
L 576.18125 253.744494 
L 576.654872 251.438343 
L 578.05677 249.524857 
L 579.128012 247.522816 
L 579.88325 245.481535 
L 582.680925 243.817543 
L 582.969003 242.893544 
L 585.231837 241.945418 
L 586.609769 241.927389 
L 587.017904 241.033351 
L 587.82709 239.688317 
L 588.891627 235.423872 
L 590.716404 233.63394 
L 590.973238 232.621386 
L 594.473164 228.067147 
L 595.44176 227.774437 
L 595.801549 227.447525 
L 597.45649 227.322646 
L 598.269488 227.098076 
L 598.95889 223.482948 
L 599.414741 223.000666 
L 600.987194 215.703332 
L 601.650417 214.17721 
L 604.135992 212.796913 
L 604.875246 211.450288 
L 604.980218 208.694996 
L 606.53616 207.93273 
L 607.756434 207.089068 
L 608.757295 204.173634 
L 609.547786 203.500454 
L 609.841929 201.340657 
L 610.329432 200.580778 
L 613.649896 197.734544 
L 613.927298 196.92535 
L 614.3872 194.924104 
L 615.838866 192.551404 
L 616.018221 192.027495 
L 616.731073 191.377647 
L 617.348907 189.171452 
L 617.961325 189.140431 
L 618.56842 184.085881 
L 621.361456 183.125824 
L 621.609917 182.807396 
L 622.104204 181.119806 
L 623.324833 180.51291 
L 623.56642 180.041498 
L 623.646764 178.901149 
L 624.206598 177.115194 
L 625.077371 176.527653 
L 626.092667 175.422302 
L 629.792166 171.781721 
L 630.523679 169.158732 
L 632.177647 167.961113 
L 632.884727 166.273789 
L 634.895693 165.874759 
L 635.575921 164.794861 
L 635.711175 162.379473 
L 636.3166 160.683134 
L 636.916824 157.515821 
L 638.55755 156.463232 
L 639.138903 154.370249 
L 640.791693 152.967415 
L 641.167616 152.924463 
L 641.913448 151.973686 
L 642.528949 151.807711 
L 642.834678 151.368381 
L 644.522464 149.186313 
L 644.938115 148.105619 
L 645.586326 147.602391 
L 646.170434 147.476452 
L 646.402716 145.155983 
L 647.266961 144.965085 
L 648.346542 143.410063 
L 650.127902 142.619958 
L 650.347411 139.66714 
L 651.218617 139.291973 
L 651.326758 138.045039 
L 652.292565 137.516358 
L 653.716691 132.634942 
L 654.547119 131.732419 
L 655.367791 131.299187 
L 655.4697 128.971825 
L 656.02756 127.761745 
L 656.32998 123.974544 
L 656.93092 123.475293 
L 658.117512 121.723276 
L 658.411037 121.631274 
L 658.751932 118.717961 
L 659.908243 118.684819 
L 660.336973 114.480029 
L 661.327227 112.123502 
L 662.442021 111.613115 
L 662.855524 110.653323 
L 662.992816 109.58297 
L 663.901267 108.496973 
L 664.708894 107.266478 
L 664.842595 106.828739 
L 665.020466 104.713485 
L 665.286427 104.711364 
L 665.551379 103.42625 
L 666.818002 98.455218 
L 667.335478 98.293485 
L 667.635578 98.046378 
L 669.033226 97.819687 
L 669.617822 95.59122 
L 670.608745 94.798464 
L 670.935954 93.937833 
L 671.302241 93.928288 
L 673.184481 91.554792 
L 673.499871 89.330302 
L 674.786013 88.412402 
L 676.803326 88.339755 
L 677.028074 86.468426 
L 677.289368 85.454546 
L 677.772052 85.159185 
L 677.993709 84.74849 
L 678.434925 84.596302 
L 680.600146 84.443583 
L 680.919218 83.268501 
L 681.23684 80.102779 
L 684.032259 79.810334 
L 684.268668 79.446568 
L 684.302376 78.539803 
L 685.306113 78.340156 
L 687.142022 78.164636 
L 687.303621 77.553233 
L 690.026152 76.478372 
L 690.274098 76.25009 
L 695.574844 72.722988 
L 695.918131 69.169637 
L 698.247445 68.488768 
L 698.687676 66.909088 
L 700.874742 66.014785 
L 701.193006 62.930195 
L 703.381159 62.74566 
L 703.637147 62.471245 
L 705.850285 62.425641 
L 706.023356 62.133992 
L 707.803142 59.384533 
L 708.354631 57.778075 
L 710.169862 57.761636 
L 710.656847 56.69632 
L 712.907988 56.415807 
L 725.562676 55.810501 
L 731.962493 54.329718 
L 733.645516 52.774961 
L 741.083999 52.292944 
L 745.346424 51.360992 
L 752.314699 51.314858 
L 758.847872 50.136064 
L 767.433243 49.755329 
L 767.678865 48.951702 
L 769.663026 48.477109 
L 769.861348 47.232296 
L 770.639261 47.207373 
L 770.8446 46.829024 
L 771.611701 46.824782 
L 793.324478 45.585802 
L 830.805756 45.450848 
L 831.214277 45.332332 
L 846.806954 45.277714 
L 852.620842 44.935159 
L 859.370728 44.781115 
L 859.90758 44.239973 
L 860.448461 43.800112 
L 864.684586 43.663037 
L 870.401814 43.598609 
L 923.519684 43.462329 
L 955.109934 43.411423 
L 955.109934 43.411423 
" clip-path="url(#p1e596f0638)" style="fill: none; stroke: #4e4dfc; stroke-width: 1.5; stroke-linecap: square"/>
   </g>
   <g id="line2d_76">
    <path d="M 150.807273 341.832436 
L 473.214516 336.282613 
L 521.29032 327.718724 
L 549.499719 320.281664 
L 569.538825 309.598014 
L 585.092537 294.035865 
L 597.806077 281.574215 
L 608.558267 266.956479 
L 617.874165 250.976476 
L 626.092667 244.829566 
L 633.445283 234.798416 
L 640.097202 229.767729 
L 646.170434 222.366991 
L 651.757655 213.80602 
L 656.93092 207.36693 
L 661.747362 197.239271 
L 666.253043 189.44083 
L 670.485646 178.312282 
L 674.476388 172.012654 
L 678.251423 162.355346 
L 681.832879 156.285856 
L 685.239644 152.34143 
L 688.487969 137.247776 
L 691.591941 127.802311 
L 694.563844 117.90638 
L 697.414459 111.139317 
L 700.153301 106.206995 
L 702.788804 98.667327 
L 705.328484 91.079669 
L 707.779065 82.542294 
L 710.146587 76.694988 
L 712.436497 70.172646 
L 714.653722 64.577484 
L 716.802735 61.260634 
L 718.887608 60.195053 
L 720.912059 58.274409 
L 722.879491 56.813776 
L 724.793029 56.37365 
L 726.655546 55.852128 
L 728.469694 55.61165 
L 730.23792 55.175766 
L 731.962493 55.004754 
L 733.645516 54.916729 
L 735.288944 54.577885 
L 736.894597 54.188931 
L 738.464174 53.366214 
L 739.999259 52.823481 
L 741.501335 52.563913 
L 742.971794 51.83585 
L 744.411938 51.708054 
L 745.822991 51.364173 
L 747.206107 51.313797 
L 748.56237 51.151534 
L 749.892802 51.117597 
L 767.310108 50.645655 
L 768.329666 50.07084 
L 769.334558 49.363193 
L 770.3252 49.069953 
L 771.30199 48.948255 
L 772.265311 48.934733 
L 773.215528 48.774591 
L 776.892194 48.569906 
L 777.781901 48.46995 
L 778.66042 48.402606 
L 782.07633 48.130841 
L 782.902779 47.975737 
L 783.719565 47.89381 
L 802.788054 47.637158 
L 803.403392 47.343918 
L 804.013358 47.323768 
L 857.419001 46.910951 
L 862.334271 46.138611 
L 862.597315 45.997558 
L 862.859371 45.088407 
L 925.974342 44.938871 
L 929.689981 44.903077 
L 947.9798 44.839975 
L 948.057098 44.819825 
L 948.134311 44.652524 
L 948.748959 43.690611 
L 955.106442 43.690611 
L 955.107839 43.690611 
L 955.108537 43.690611 
L 955.109235 43.690611 
" clip-path="url(#p1e596f0638)" style="fill: none; stroke: #1996f3; stroke-width: 1.5; stroke-linecap: square"/>
   </g>
   <g id="line2d_77">
    <path d="M 150.807273 341.832436 
L 199.229772 338.280676 
L 227.555119 332.847247 
L 247.652272 330.240432 
L 263.240835 328.355316 
L 275.977618 322.921621 
L 286.746415 319.600264 
L 304.302965 319.240475 
L 318.321599 309.664828 
L 324.400118 306.197117 
L 335.168915 305.239711 
L 339.988681 304.253936 
L 344.497271 302.070542 
L 348.732441 299.165183 
L 356.502541 298.491208 
L 363.494262 292.265288 
L 369.84945 289.913798 
L 372.822618 287.092222 
L 378.414313 286.174587 
L 383.591415 283.794462 
L 390.701842 283.393312 
L 392.919771 280.781193 
L 397.15494 279.727543 
L 399.179978 276.366151 
L 404.925041 275.704902 
L 408.508334 274.383995 
L 411.916761 270.581152 
L 413.560576 267.757455 
L 415.166598 263.131895 
L 416.736527 262.813732 
L 418.27195 262.23547 
L 424.096897 260.623975 
L 426.836813 256.675571 
L 429.473311 255.367126 
L 430.755161 252.473698 
L 432.013914 251.73503 
L 435.659554 249.271918 
L 437.988399 248.002712 
L 440.242108 247.946238 
L 443.491945 247.555958 
L 445.57744 244.650334 
L 446.597296 242.707419 
L 450.53405 241.6368 
L 451.484526 240.814879 
L 455.162159 240.676213 
L 456.930834 240.061628 
L 459.502617 238.724018 
L 461.983075 236.26886 
L 465.159027 234.595852 
L 467.449688 232.117893 
L 468.936104 231.221999 
L 469.667617 229.382751 
L 473.214516 227.615621 
L 474.584342 226.710977 
L 475.927824 226.482695 
L 477.89581 225.816144 
L 479.177661 224.961346 
L 480.436414 221.573175 
L 481.057386 218.201177 
L 483.487506 211.147768 
L 487.546841 210.070521 
L 488.10796 208.222258 
L 490.308422 205.897282 
L 490.847876 204.657242 
L 492.441684 204.26325 
L 493.484373 202.307077 
L 494.511729 198.248378 
L 495.524194 197.416912 
L 496.024977 195.849429 
L 498.476418 194.90528 
L 498.95655 194.450572 
L 500.377458 193.378627 
L 503.135404 191.905002 
L 504.031043 190.237563 
L 504.915345 190.145296 
L 507.078332 184.944391 
L 508.76176 184.473244 
L 509.176355 183.978501 
L 511.213201 181.14738 
L 512.011598 179.514673 
L 513.581527 179.02046 
L 515.116949 177.053417 
L 515.495589 177.024252 
L 516.989954 176.344179 
L 517.358603 175.476389 
L 518.453021 175.186331 
L 518.81405 173.539837 
L 520.239791 172.256314 
L 520.941896 170.512251 
L 523.345142 170.061785 
L 525.012498 168.409458 
L 525.994138 168.36465 
L 526.640984 165.844269 
L 527.281896 165.667953 
L 529.17009 164.777362 
L 529.479886 164.362424 
L 531.310355 161.382297 
L 532.207912 160.202973 
L 533.969154 156.984754 
L 535.403678 156.910251 
L 535.687082 156.487624 
L 536.530459 154.347182 
L 537.363776 153.011958 
L 538.730922 151.467012 
L 543.946694 149.332403 
L 544.447477 147.36589 
L 544.696528 144.644005 
L 545.92864 144.61431 
L 546.657609 141.102056 
L 548.329525 140.410316 
L 551.105741 138.762232 
L 552.230707 138.36824 
L 552.67567 132.628844 
L 553.337845 132.255002 
L 554.211092 131.534628 
L 554.427709 129.785262 
L 555.073559 128.82494 
L 555.500832 126.552725 
L 555.925507 125.217501 
L 556.136881 120.15102 
L 559.635701 119.631619 
L 561.614839 119.035063 
L 562.391057 118.196439 
L 562.775956 117.501783 
L 562.967613 115.937746 
L 563.349356 115.817905 
L 563.729025 113.640344 
L 564.482228 113.549667 
L 566.512616 112.84202 
L 567.953057 111.855449 
L 568.83848 110.074797 
L 570.747786 109.837765 
L 570.918799 108.016547 
L 571.598696 105.808231 
L 572.27204 104.549896 
L 574.090955 104.438539 
L 575.544718 104.145564 
L 576.18125 102.151477 
L 578.823615 101.906491 
L 579.582134 101.408036 
L 580.630411 101.070783 
L 580.778889 100.78205 
L 581.955488 100.492522 
L 582.391653 100.242499 
L 582.536439 95.891354 
L 582.680925 95.479863 
L 585.37086 95.36559 
L 586.061854 94.16532 
L 587.558402 93.192536 
L 588.494324 90.370961 
L 588.891627 86.926846 
L 593.614483 86.850221 
L 593.7378 85.587379 
L 598.500045 85.495112 
L 598.844461 84.181364 
L 603.603122 84.090687 
L 603.710022 83.592497 
L 608.856597 83.560416 
L 645.644957 82.606987 
L 645.937376 82.106941 
L 648.233685 80.620059 
L 650.947531 79.513382 
L 660.003744 79.190712 
L 660.71587 78.812363 
L 661.747362 78.62226 
L 662.211234 77.690308 
L 664.440721 76.739266 
L 666.644655 74.682607 
L 682.734744 73.505669 
L 703.8922 72.373008 
L 708.01946 72.342783 
L 711.300924 70.474105 
L 716.015285 69.25395 
L 717.077313 69.242814 
L 726.673923 68.074626 
L 727.568509 67.680104 
L 731.552462 67.491592 
L 735.061179 66.594107 
L 744.483171 66.262157 
L 744.63963 65.055524 
L 756.789071 64.461885 
L 757.336147 63.6047 
L 757.925976 63.508456 
L 764.416378 61.968282 
L 764.907067 61.196736 
L 764.938949 60.518254 
L 765.878225 59.673531 
L 767.791154 58.544052 
L 776.910099 57.797695 
L 777.737684 57.235607 
L 781.809788 56.76393 
L 782.217518 54.805902 
L 797.433393 54.771699 
L 797.719741 54.331574 
L 805.681602 53.641955 
L 812.828172 53.403598 
L 813.089986 52.725381 
L 813.356136 52.71398 
L 822.178607 52.575844 
L 822.403008 51.391747 
L 840.374769 51.123165 
L 846.55306 49.468982 
L 846.925343 49.054044 
L 884.31129 48.571497 
L 884.405505 48.043347 
L 909.033222 47.534286 
L 922.090265 47.44467 
L 928.15179 47.231766 
L 944.909384 46.930836 
L 944.948973 46.559646 
L 946.143787 45.755489 
L 946.183476 45.518193 
L 950.900163 45.463575 
L 951.439548 45.096627 
L 953.084219 44.385002 
L 955.087583 44.385002 
L 955.087583 44.385002 
" clip-path="url(#p1e596f0638)" style="fill: none; stroke: #ff964f; stroke-width: 1.5; stroke-linecap: square"/>
   </g>
   <g id="line2d_78">
    <path d="M 150.807273 341.832436 
L 425.480287 298.892093 
L 473.214516 266.397308 
L 501.308924 238.459942 
L 521.29032 215.344338 
L 536.809338 193.3545 
L 549.499719 171.991178 
L 560.235352 155.21126 
L 569.538825 142.967021 
L 577.747659 131.573338 
L 585.092537 120.344304 
L 591.738124 112.434506 
L 597.806077 105.039867 
L 603.388831 100.331319 
L 608.558267 93.976808 
L 613.371389 90.701585 
L 617.874165 88.704051 
L 622.104204 84.590203 
L 626.092667 82.708534 
L 629.865663 79.906579 
L 633.445283 77.929991 
L 636.850386 77.885978 
L 646.228577 77.232153 
L 649.075707 76.81642 
L 651.81133 76.560829 
L 661.793888 76.029762 
L 664.081548 75.52839 
L 666.296664 75.065463 
L 668.443696 74.516367 
L 670.526703 74.195287 
L 672.549395 73.571953 
L 674.515166 72.127227 
L 676.427133 71.623734 
L 678.288162 68.855716 
L 680.100898 68.734019 
L 681.867782 68.626904 
L 683.591079 68.615768 
L 686.94761 68.418242 
L 688.55142 68.001978 
L 690.119235 67.109266 
L 691.652635 67.09813 
L 704.120954 66.925527 
L 709.043838 66.865341 
L 710.216388 66.60975 
L 711.369582 66.354689 
L 726.710662 65.995165 
L 727.622909 65.827864 
L 728.523397 65.76052 
L 732.013578 65.201879 
L 745.878845 65.124194 
L 746.573273 65.091582 
L 747.260866 64.594718 
L 747.941758 64.124632 
L 748.616077 63.816809 
L 749.283949 62.632977 
L 749.945496 62.491925 
L 751.263013 62.388787 
L 751.906167 60.760853 
L 752.543453 60.744415 
L 754.421157 60.615294 
L 755.036008 60.310387 
L 755.645495 60.05188 
L 777.834925 59.679364 
L 778.275232 59.305257 
L 781.717929 58.882631 
L 782.134501 58.749002 
L 782.548603 58.652758 
L 792.541617 58.24657 
L 792.89143 57.276968 
L 792.898551 57.021377 
L 793.25367 56.840024 
L 793.606993 56.694995 
L 798.702988 56.430919 
L 799.02986 56.126013 
L 803.464629 56.00352 
L 803.77001 55.639754 
L 804.074063 55.468211 
L 804.376797 55.395829 
L 813.44109 54.80272 
L 822.164558 54.512661 
L 822.398341 53.596087 
L 822.631344 53.451057 
L 822.863572 53.439657 
L 832.397386 53.214291 
L 839.327629 53.041423 
L 839.510554 52.739433 
L 875.673274 52.32317 
L 875.782054 52.135718 
L 875.890666 52.033376 
L 875.999109 50.646716 
L 890.891148 49.481974 
L 897.408545 49.469512 
L 897.488256 48.836103 
L 913.525012 48.552142 
L 913.588308 48.250153 
L 915.70941 48.018159 
L 917.883519 47.863319 
L 926.869387 47.264377 
L 926.921682 47.102114 
L 932.646189 46.429995 
L 933.034258 45.559554 
L 933.082137 44.70237 
L 945.912349 44.389774 
L 955.087583 44.389774 
" clip-path="url(#p1e596f0638)" style="fill: none; stroke: #b2f396; stroke-width: 1.5; stroke-linecap: square"/>
   </g>
   <g id="line2d_79">
    <path d="M 150.807273 341.832436 
L 425.480287 340.933096 
L 473.214516 339.385763 
L 501.308924 337.36039 
L 521.29032 334.446282 
L 536.809338 331.315557 
L 549.499719 327.561234 
L 560.235352 324.088219 
L 569.538825 319.953425 
L 577.747659 316.269363 
L 585.092537 312.392281 
L 591.738124 308.476755 
L 597.806077 303.7637 
L 603.388831 298.845164 
L 608.558267 294.566137 
L 613.371389 288.898062 
L 617.874165 283.478951 
L 622.104204 278.205133 
L 626.092667 269.67094 
L 629.865663 262.770514 
L 633.445283 252.463888 
L 636.850386 245.145343 
L 640.097202 238.866661 
L 643.199795 233.606365 
L 646.170434 222.588115 
L 649.019886 215.109162 
L 651.757655 208.541482 
L 654.392164 202.797314 
L 656.93092 195.594898 
L 659.380642 189.253644 
L 661.747362 183.071206 
L 664.036522 174.41399 
L 666.253043 167.724347 
L 668.401395 160.017113 
L 670.485646 153.998264 
L 672.50951 147.488118 
L 674.476388 142.367814 
L 676.389402 136.67031 
L 678.251423 134.617363 
L 680.0651 130.801527 
L 681.832879 127.876284 
L 683.557026 123.5665 
L 685.239644 118.432409 
L 686.882685 116.001379 
L 688.487969 115.612955 
L 690.057193 114.653163 
L 691.591941 112.948074 
L 693.093695 109.73993 
L 694.563844 108.781994 
L 696.00369 107.496351 
L 697.414459 105.730281 
L 698.797301 104.454977 
L 700.153301 104.080075 
L 701.48348 103.856301 
L 711.323818 102.339723 
L 731.979526 101.599199 
L 733.662143 101.520984 
L 734.488494 99.610415 
L 735.305185 98.453362 
L 736.112438 98.089861 
L 736.910469 97.898963 
L 737.699487 97.859458 
L 745.149241 97.519288 
L 745.850924 97.295249 
L 746.545628 95.356045 
L 754.384094 93.36514 
L 764.169735 93.171856 
L 764.704809 91.945072 
L 765.235816 91.61869 
L 765.762816 90.35081 
L 766.285871 89.905117 
L 766.805039 89.146298 
L 771.804575 88.475769 
L 772.284443 86.918892 
L 772.761037 83.134873 
L 773.234401 81.521256 
L 773.70458 80.590629 
L 779.112921 80.016345 
L 783.735803 77.960746 
L 791.771596 76.313988 
L 807.86487 76.129983 
L 808.151648 75.573728 
L 808.157371 74.878012 
L 809.859194 73.783796 
L 810.137916 73.145349 
L 816.259538 72.411983 
L 821.174036 71.356477 
L 823.748224 70.281086 
L 827.100378 70.2787 
L 827.318238 68.191285 
L 827.53542 67.804983 
L 828.187243 64.308901 
L 831.747116 63.410356 
L 831.950976 63.173059 
L 838.368622 62.444201 
L 838.554072 62.262848 
L 857.010651 62.093956 
L 857.15271 61.912603 
L 872.847345 61.690154 
L 878.200579 60.615028 
L 885.946692 60.130625 
L 887.803226 59.006979 
L 902.67173 58.050899 
L 903.631142 57.431277 
L 917.362787 57.069101 
L 935.767579 57.0174 
L 949.823802 56.648331 
L 955.087583 56.648331 
" clip-path="url(#p1e596f0638)" style="fill: none; stroke: #ff4d27; stroke-width: 1.5; stroke-linecap: square"/>
   </g>
   <g id="patch_3">
    <path d="M 110.592 356.8032 
L 110.592 27.4464 
" style="fill: none; stroke: #000000; stroke-width: 0.8; stroke-linejoin: miter; stroke-linecap: square"/>
   </g>
   <g id="patch_4">
    <path d="M 995.328 356.8032 
L 995.328 27.4464 
" style="fill: none; stroke: #000000; stroke-width: 0.8; stroke-linejoin: miter; stroke-linecap: square"/>
   </g>
   <g id="patch_5">
    <path d="M 110.592 356.8032 
L 995.328 356.8032 
" style="fill: none; stroke: #000000; stroke-width: 0.8; stroke-linejoin: miter; stroke-linecap: square"/>
   </g>
   <g id="patch_6">
    <path d="M 110.592 27.4464 
L 995.328 27.4464 
" style="fill: none; stroke: #000000; stroke-width: 0.8; stroke-linejoin: miter; stroke-linecap: square"/>
   </g>
   <g id="legend_1">
    <g id="patch_7">
     <path d="M 117.592 199.96515 
L 259.532625 199.96515 
Q 261.532625 199.96515 261.532625 197.96515 
L 261.532625 34.4464 
Q 261.532625 32.4464 259.532625 32.4464 
L 117.592 32.4464 
Q 115.592 32.4464 115.592 34.4464 
L 115.592 197.96515 
Q 115.592 199.96515 117.592 199.96515 
z
" style="fill: #ffffff; opacity: 0.8; stroke: #cccccc; stroke-linejoin: miter"/>
    </g>
    <g id="line2d_80">
     <path d="M 119.592 40.544838 
L 129.592 40.544838 
L 139.592 40.544838 
" style="fill: none; stroke: #8000ff; stroke-width: 1.5; stroke-linecap: square"/>
    </g>
    <g id="text_15">
     <!-- greedy_all_best -->
     <g transform="translate(147.592 44.044838) scale(0.1 -0.1)">
      <defs>
       <path id="DejaVuSans-72" d="M 2631 2963 
Q 2534 3019 2420 3045 
Q 2306 3072 2169 3072 
Q 1681 3072 1420 2755 
Q 1159 2438 1159 1844 
L 1159 0 
L 581 0 
L 581 3500 
L 1159 3500 
L 1159 2956 
Q 1341 3275 1631 3429 
Q 1922 3584 2338 3584 
Q 2397 3584 2469 3576 
Q 2541 3569 2628 3553 
L 2631 2963 
z
" transform="scale(0.015625)"/>
       <path id="DejaVuSans-79" d="M 2059 -325 
Q 1816 -950 1584 -1140 
Q 1353 -1331 966 -1331 
L 506 -1331 
L 506 -850 
L 844 -850 
Q 1081 -850 1212 -737 
Q 1344 -625 1503 -206 
L 1606 56 
L 191 3500 
L 800 3500 
L 1894 763 
L 2988 3500 
L 3597 3500 
L 2059 -325 
z
" transform="scale(0.015625)"/>
       <path id="DejaVuSans-5f" d="M 3263 -1063 
L 3263 -1509 
L -63 -1509 
L -63 -1063 
L 3263 -1063 
z
" transform="scale(0.015625)"/>
       <path id="DejaVuSans-61" d="M 2194 1759 
Q 1497 1759 1228 1600 
Q 959 1441 959 1056 
Q 959 750 1161 570 
Q 1363 391 1709 391 
Q 2188 391 2477 730 
Q 2766 1069 2766 1631 
L 2766 1759 
L 2194 1759 
z
M 3341 1997 
L 3341 0 
L 2766 0 
L 2766 531 
Q 2569 213 2275 61 
Q 1981 -91 1556 -91 
Q 1019 -91 701 211 
Q 384 513 384 1019 
Q 384 1609 779 1909 
Q 1175 2209 1959 2209 
L 2766 2209 
L 2766 2266 
Q 2766 2663 2505 2880 
Q 2244 3097 1772 3097 
Q 1472 3097 1187 3025 
Q 903 2953 641 2809 
L 641 3341 
Q 956 3463 1253 3523 
Q 1550 3584 1831 3584 
Q 2591 3584 2966 3190 
Q 3341 2797 3341 1997 
z
" transform="scale(0.015625)"/>
       <path id="DejaVuSans-6c" d="M 603 4863 
L 1178 4863 
L 1178 0 
L 603 0 
L 603 4863 
z
" transform="scale(0.015625)"/>
      </defs>
      <use xlink:href="#DejaVuSans-67"/>
      <use xlink:href="#DejaVuSans-72" x="63.476562"/>
      <use xlink:href="#DejaVuSans-65" x="102.339844"/>
      <use xlink:href="#DejaVuSans-65" x="163.863281"/>
      <use xlink:href="#DejaVuSans-64" x="225.386719"/>
      <use xlink:href="#DejaVuSans-79" x="288.863281"/>
      <use xlink:href="#DejaVuSans-5f" x="348.042969"/>
      <use xlink:href="#DejaVuSans-61" x="398.042969"/>
      <use xlink:href="#DejaVuSans-6c" x="459.322266"/>
      <use xlink:href="#DejaVuSans-6c" x="487.105469"/>
      <use xlink:href="#DejaVuSans-5f" x="514.888672"/>
      <use xlink:href="#DejaVuSans-62" x="564.888672"/>
      <use xlink:href="#DejaVuSans-65" x="628.365234"/>
      <use xlink:href="#DejaVuSans-73" x="689.888672"/>
      <use xlink:href="#DejaVuSans-74" x="741.988281"/>
     </g>
    </g>
    <g id="line2d_81">
     <path d="M 119.592 55.501088 
L 129.592 55.501088 
L 139.592 55.501088 
" style="fill: none; stroke: #4df3ce; stroke-width: 1.5; stroke-linecap: square"/>
    </g>
    <g id="text_16">
     <!-- greedy_improve_first -->
     <g transform="translate(147.592 59.001088) scale(0.1 -0.1)">
      <defs>
       <path id="DejaVuSans-6d" d="M 3328 2828 
Q 3544 3216 3844 3400 
Q 4144 3584 4550 3584 
Q 5097 3584 5394 3201 
Q 5691 2819 5691 2113 
L 5691 0 
L 5113 0 
L 5113 2094 
Q 5113 2597 4934 2840 
Q 4756 3084 4391 3084 
Q 3944 3084 3684 2787 
Q 3425 2491 3425 1978 
L 3425 0 
L 2847 0 
L 2847 2094 
Q 2847 2600 2669 2842 
Q 2491 3084 2119 3084 
Q 1678 3084 1418 2786 
Q 1159 2488 1159 1978 
L 1159 0 
L 581 0 
L 581 3500 
L 1159 3500 
L 1159 2956 
Q 1356 3278 1631 3431 
Q 1906 3584 2284 3584 
Q 2666 3584 2933 3390 
Q 3200 3197 3328 2828 
z
" transform="scale(0.015625)"/>
       <path id="DejaVuSans-70" d="M 1159 525 
L 1159 -1331 
L 581 -1331 
L 581 3500 
L 1159 3500 
L 1159 2969 
Q 1341 3281 1617 3432 
Q 1894 3584 2278 3584 
Q 2916 3584 3314 3078 
Q 3713 2572 3713 1747 
Q 3713 922 3314 415 
Q 2916 -91 2278 -91 
Q 1894 -91 1617 61 
Q 1341 213 1159 525 
z
M 3116 1747 
Q 3116 2381 2855 2742 
Q 2594 3103 2138 3103 
Q 1681 3103 1420 2742 
Q 1159 2381 1159 1747 
Q 1159 1113 1420 752 
Q 1681 391 2138 391 
Q 2594 391 2855 752 
Q 3116 1113 3116 1747 
z
" transform="scale(0.015625)"/>
       <path id="DejaVuSans-6f" d="M 1959 3097 
Q 1497 3097 1228 2736 
Q 959 2375 959 1747 
Q 959 1119 1226 758 
Q 1494 397 1959 397 
Q 2419 397 2687 759 
Q 2956 1122 2956 1747 
Q 2956 2369 2687 2733 
Q 2419 3097 1959 3097 
z
M 1959 3584 
Q 2709 3584 3137 3096 
Q 3566 2609 3566 1747 
Q 3566 888 3137 398 
Q 2709 -91 1959 -91 
Q 1206 -91 779 398 
Q 353 888 353 1747 
Q 353 2609 779 3096 
Q 1206 3584 1959 3584 
z
" transform="scale(0.015625)"/>
       <path id="DejaVuSans-76" d="M 191 3500 
L 800 3500 
L 1894 563 
L 2988 3500 
L 3597 3500 
L 2284 0 
L 1503 0 
L 191 3500 
z
" transform="scale(0.015625)"/>
      </defs>
      <use xlink:href="#DejaVuSans-67"/>
      <use xlink:href="#DejaVuSans-72" x="63.476562"/>
      <use xlink:href="#DejaVuSans-65" x="102.339844"/>
      <use xlink:href="#DejaVuSans-65" x="163.863281"/>
      <use xlink:href="#DejaVuSans-64" x="225.386719"/>
      <use xlink:href="#DejaVuSans-79" x="288.863281"/>
      <use xlink:href="#DejaVuSans-5f" x="348.042969"/>
      <use xlink:href="#DejaVuSans-69" x="398.042969"/>
      <use xlink:href="#DejaVuSans-6d" x="425.826172"/>
      <use xlink:href="#DejaVuSans-70" x="523.238281"/>
      <use xlink:href="#DejaVuSans-72" x="586.714844"/>
      <use xlink:href="#DejaVuSans-6f" x="625.578125"/>
      <use xlink:href="#DejaVuSans-76" x="686.759766"/>
      <use xlink:href="#DejaVuSans-65" x="745.939453"/>
      <use xlink:href="#DejaVuSans-5f" x="807.462891"/>
      <use xlink:href="#DejaVuSans-66" x="857.462891"/>
      <use xlink:href="#DejaVuSans-69" x="892.667969"/>
      <use xlink:href="#DejaVuSans-72" x="920.451172"/>
      <use xlink:href="#DejaVuSans-73" x="961.564453"/>
      <use xlink:href="#DejaVuSans-74" x="1013.664062"/>
     </g>
    </g>
    <g id="line2d_82">
     <path d="M 119.592 70.457338 
L 129.592 70.457338 
L 139.592 70.457338 
" style="fill: none; stroke: #18cde4; stroke-width: 1.5; stroke-linecap: square"/>
    </g>
    <g id="text_17">
     <!-- greedy_improve_best -->
     <g transform="translate(147.592 73.957338) scale(0.1 -0.1)">
      <use xlink:href="#DejaVuSans-67"/>
      <use xlink:href="#DejaVuSans-72" x="63.476562"/>
      <use xlink:href="#DejaVuSans-65" x="102.339844"/>
      <use xlink:href="#DejaVuSans-65" x="163.863281"/>
      <use xlink:href="#DejaVuSans-64" x="225.386719"/>
      <use xlink:href="#DejaVuSans-79" x="288.863281"/>
      <use xlink:href="#DejaVuSans-5f" x="348.042969"/>
      <use xlink:href="#DejaVuSans-69" x="398.042969"/>
      <use xlink:href="#DejaVuSans-6d" x="425.826172"/>
      <use xlink:href="#DejaVuSans-70" x="523.238281"/>
      <use xlink:href="#DejaVuSans-72" x="586.714844"/>
      <use xlink:href="#DejaVuSans-6f" x="625.578125"/>
      <use xlink:href="#DejaVuSans-76" x="686.759766"/>
      <use xlink:href="#DejaVuSans-65" x="745.939453"/>
      <use xlink:href="#DejaVuSans-5f" x="807.462891"/>
      <use xlink:href="#DejaVuSans-62" x="857.462891"/>
      <use xlink:href="#DejaVuSans-65" x="920.939453"/>
      <use xlink:href="#DejaVuSans-73" x="982.462891"/>
      <use xlink:href="#DejaVuSans-74" x="1034.5625"/>
     </g>
    </g>
    <g id="line2d_83">
     <path d="M 119.592 85.413588 
L 129.592 85.413588 
L 139.592 85.413588 
" style="fill: none; stroke: #ff0000; stroke-width: 1.5; stroke-linecap: square"/>
    </g>
    <g id="text_18">
     <!-- hc_random -->
     <g transform="translate(147.592 88.913588) scale(0.1 -0.1)">
      <defs>
       <path id="DejaVuSans-68" d="M 3513 2113 
L 3513 0 
L 2938 0 
L 2938 2094 
Q 2938 2591 2744 2837 
Q 2550 3084 2163 3084 
Q 1697 3084 1428 2787 
Q 1159 2491 1159 1978 
L 1159 0 
L 581 0 
L 581 4863 
L 1159 4863 
L 1159 2956 
Q 1366 3272 1645 3428 
Q 1925 3584 2291 3584 
Q 2894 3584 3203 3211 
Q 3513 2838 3513 2113 
z
" transform="scale(0.015625)"/>
       <path id="DejaVuSans-63" d="M 3122 3366 
L 3122 2828 
Q 2878 2963 2633 3030 
Q 2388 3097 2138 3097 
Q 1578 3097 1268 2742 
Q 959 2388 959 1747 
Q 959 1106 1268 751 
Q 1578 397 2138 397 
Q 2388 397 2633 464 
Q 2878 531 3122 666 
L 3122 134 
Q 2881 22 2623 -34 
Q 2366 -91 2075 -91 
Q 1284 -91 818 406 
Q 353 903 353 1747 
Q 353 2603 823 3093 
Q 1294 3584 2113 3584 
Q 2378 3584 2631 3529 
Q 2884 3475 3122 3366 
z
" transform="scale(0.015625)"/>
      </defs>
      <use xlink:href="#DejaVuSans-68"/>
      <use xlink:href="#DejaVuSans-63" x="63.378906"/>
      <use xlink:href="#DejaVuSans-5f" x="118.359375"/>
      <use xlink:href="#DejaVuSans-72" x="168.359375"/>
      <use xlink:href="#DejaVuSans-61" x="209.472656"/>
      <use xlink:href="#DejaVuSans-6e" x="270.751953"/>
      <use xlink:href="#DejaVuSans-64" x="334.130859"/>
      <use xlink:href="#DejaVuSans-6f" x="397.607422"/>
      <use xlink:href="#DejaVuSans-6d" x="458.789062"/>
     </g>
    </g>
    <g id="line2d_84">
     <path d="M 119.592 100.369838 
L 129.592 100.369838 
L 139.592 100.369838 
" style="fill: none; stroke: #80ffb4; stroke-width: 1.5; stroke-linecap: square"/>
    </g>
    <g id="text_19">
     <!-- greedy_improve_least -->
     <g transform="translate(147.592 103.869838) scale(0.1 -0.1)">
      <use xlink:href="#DejaVuSans-67"/>
      <use xlink:href="#DejaVuSans-72" x="63.476562"/>
      <use xlink:href="#DejaVuSans-65" x="102.339844"/>
      <use xlink:href="#DejaVuSans-65" x="163.863281"/>
      <use xlink:href="#DejaVuSans-64" x="225.386719"/>
      <use xlink:href="#DejaVuSans-79" x="288.863281"/>
      <use xlink:href="#DejaVuSans-5f" x="348.042969"/>
      <use xlink:href="#DejaVuSans-69" x="398.042969"/>
      <use xlink:href="#DejaVuSans-6d" x="425.826172"/>
      <use xlink:href="#DejaVuSans-70" x="523.238281"/>
      <use xlink:href="#DejaVuSans-72" x="586.714844"/>
      <use xlink:href="#DejaVuSans-6f" x="625.578125"/>
      <use xlink:href="#DejaVuSans-76" x="686.759766"/>
      <use xlink:href="#DejaVuSans-65" x="745.939453"/>
      <use xlink:href="#DejaVuSans-5f" x="807.462891"/>
      <use xlink:href="#DejaVuSans-6c" x="857.462891"/>
      <use xlink:href="#DejaVuSans-65" x="885.246094"/>
      <use xlink:href="#DejaVuSans-61" x="946.769531"/>
      <use xlink:href="#DejaVuSans-73" x="1008.048828"/>
      <use xlink:href="#DejaVuSans-74" x="1060.148438"/>
     </g>
    </g>
    <g id="line2d_85">
     <path d="M 119.592 115.326088 
L 129.592 115.326088 
L 139.592 115.326088 
" style="fill: none; stroke: #e6cd73; stroke-width: 1.5; stroke-linecap: square"/>
    </g>
    <g id="text_20">
     <!-- hc_cycle -->
     <g transform="translate(147.592 118.826088) scale(0.1 -0.1)">
      <use xlink:href="#DejaVuSans-68"/>
      <use xlink:href="#DejaVuSans-63" x="63.378906"/>
      <use xlink:href="#DejaVuSans-5f" x="118.359375"/>
      <use xlink:href="#DejaVuSans-63" x="168.359375"/>
      <use xlink:href="#DejaVuSans-79" x="223.339844"/>
      <use xlink:href="#DejaVuSans-63" x="282.519531"/>
      <use xlink:href="#DejaVuSans-6c" x="337.5"/>
      <use xlink:href="#DejaVuSans-65" x="365.283203"/>
     </g>
    </g>
    <g id="line2d_86">
     <path d="M 119.592 130.282338 
L 129.592 130.282338 
L 139.592 130.282338 
" style="fill: none; stroke: #4e4dfc; stroke-width: 1.5; stroke-linecap: square"/>
    </g>
    <g id="text_21">
     <!-- greedy_all_first -->
     <g transform="translate(147.592 133.782338) scale(0.1 -0.1)">
      <use xlink:href="#DejaVuSans-67"/>
      <use xlink:href="#DejaVuSans-72" x="63.476562"/>
      <use xlink:href="#DejaVuSans-65" x="102.339844"/>
      <use xlink:href="#DejaVuSans-65" x="163.863281"/>
      <use xlink:href="#DejaVuSans-64" x="225.386719"/>
      <use xlink:href="#DejaVuSans-79" x="288.863281"/>
      <use xlink:href="#DejaVuSans-5f" x="348.042969"/>
      <use xlink:href="#DejaVuSans-61" x="398.042969"/>
      <use xlink:href="#DejaVuSans-6c" x="459.322266"/>
      <use xlink:href="#DejaVuSans-6c" x="487.105469"/>
      <use xlink:href="#DejaVuSans-5f" x="514.888672"/>
      <use xlink:href="#DejaVuSans-66" x="564.888672"/>
      <use xlink:href="#DejaVuSans-69" x="600.09375"/>
      <use xlink:href="#DejaVuSans-72" x="627.876953"/>
      <use xlink:href="#DejaVuSans-73" x="668.990234"/>
      <use xlink:href="#DejaVuSans-74" x="721.089844"/>
     </g>
    </g>
    <g id="line2d_87">
     <path d="M 119.592 145.238588 
L 129.592 145.238588 
L 139.592 145.238588 
" style="fill: none; stroke: #1996f3; stroke-width: 1.5; stroke-linecap: square"/>
    </g>
    <g id="text_22">
     <!-- greedy_all_least -->
     <g transform="translate(147.592 148.738588) scale(0.1 -0.1)">
      <use xlink:href="#DejaVuSans-67"/>
      <use xlink:href="#DejaVuSans-72" x="63.476562"/>
      <use xlink:href="#DejaVuSans-65" x="102.339844"/>
      <use xlink:href="#DejaVuSans-65" x="163.863281"/>
      <use xlink:href="#DejaVuSans-64" x="225.386719"/>
      <use xlink:href="#DejaVuSans-79" x="288.863281"/>
      <use xlink:href="#DejaVuSans-5f" x="348.042969"/>
      <use xlink:href="#DejaVuSans-61" x="398.042969"/>
      <use xlink:href="#DejaVuSans-6c" x="459.322266"/>
      <use xlink:href="#DejaVuSans-6c" x="487.105469"/>
      <use xlink:href="#DejaVuSans-5f" x="514.888672"/>
      <use xlink:href="#DejaVuSans-6c" x="564.888672"/>
      <use xlink:href="#DejaVuSans-65" x="592.671875"/>
      <use xlink:href="#DejaVuSans-61" x="654.195312"/>
      <use xlink:href="#DejaVuSans-73" x="715.474609"/>
      <use xlink:href="#DejaVuSans-74" x="767.574219"/>
     </g>
    </g>
    <g id="line2d_88">
     <path d="M 119.592 160.194838 
L 129.592 160.194838 
L 139.592 160.194838 
" style="fill: none; stroke: #ff964f; stroke-width: 1.5; stroke-linecap: square"/>
    </g>
    <g id="text_23">
     <!-- hc_first -->
     <g transform="translate(147.592 163.694838) scale(0.1 -0.1)">
      <use xlink:href="#DejaVuSans-68"/>
      <use xlink:href="#DejaVuSans-63" x="63.378906"/>
      <use xlink:href="#DejaVuSans-5f" x="118.359375"/>
      <use xlink:href="#DejaVuSans-66" x="168.359375"/>
      <use xlink:href="#DejaVuSans-69" x="203.564453"/>
      <use xlink:href="#DejaVuSans-72" x="231.347656"/>
      <use xlink:href="#DejaVuSans-73" x="272.460938"/>
      <use xlink:href="#DejaVuSans-74" x="324.560547"/>
     </g>
    </g>
    <g id="line2d_89">
     <path d="M 119.592 175.151088 
L 129.592 175.151088 
L 139.592 175.151088 
" style="fill: none; stroke: #b2f396; stroke-width: 1.5; stroke-linecap: square"/>
    </g>
    <g id="text_24">
     <!-- hc_best -->
     <g transform="translate(147.592 178.651088) scale(0.1 -0.1)">
      <use xlink:href="#DejaVuSans-68"/>
      <use xlink:href="#DejaVuSans-63" x="63.378906"/>
      <use xlink:href="#DejaVuSans-5f" x="118.359375"/>
      <use xlink:href="#DejaVuSans-62" x="168.359375"/>
      <use xlink:href="#DejaVuSans-65" x="231.835938"/>
      <use xlink:href="#DejaVuSans-73" x="293.359375"/>
      <use xlink:href="#DejaVuSans-74" x="345.458984"/>
     </g>
    </g>
    <g id="line2d_90">
     <path d="M 119.592 190.107338 
L 129.592 190.107338 
L 139.592 190.107338 
" style="fill: none; stroke: #ff4d27; stroke-width: 1.5; stroke-linecap: square"/>
    </g>
    <g id="text_25">
     <!-- hc_least -->
     <g transform="translate(147.592 193.607338) scale(0.1 -0.1)">
      <use xlink:href="#DejaVuSans-68"/>
      <use xlink:href="#DejaVuSans-63" x="63.378906"/>
      <use xlink:href="#DejaVuSans-5f" x="118.359375"/>
      <use xlink:href="#DejaVuSans-6c" x="168.359375"/>
      <use xlink:href="#DejaVuSans-65" x="196.142578"/>
      <use xlink:href="#DejaVuSans-61" x="257.666016"/>
      <use xlink:href="#DejaVuSans-73" x="318.945312"/>
      <use xlink:href="#DejaVuSans-74" x="371.044922"/>
     </g>
    </g>
   </g>
  </g>
  <g id="axes_2">
   <g id="patch_8">
    <path d="M 110.592 439.1424 
L 442.368 439.1424 
L 442.368 411.696 
L 110.592 411.696 
z
" style="fill: #d9d9d9"/>
   </g>
   <g id="matplotlib.axis_3"/>
   <g id="matplotlib.axis_4"/>
   <g id="patch_9">
    <path d="M 110.592 439.1424 
L 110.592 411.696 
" style="fill: none; stroke: #000000; stroke-width: 0.8; stroke-linejoin: miter; stroke-linecap: square"/>
   </g>
   <g id="patch_10">
    <path d="M 442.368 439.1424 
L 442.368 411.696 
" style="fill: none; stroke: #000000; stroke-width: 0.8; stroke-linejoin: miter; stroke-linecap: square"/>
   </g>
   <g id="patch_11">
    <path d="M 110.592 439.1424 
L 442.368 439.1424 
" style="fill: none; stroke: #000000; stroke-width: 0.8; stroke-linejoin: miter; stroke-linecap: square"/>
   </g>
   <g id="patch_12">
    <path d="M 110.592 411.696 
L 442.368 411.696 
" style="fill: none; stroke: #000000; stroke-width: 0.8; stroke-linejoin: miter; stroke-linecap: square"/>
   </g>
   <g id="text_26">
    <!-- NK -->
    <g transform="translate(269.460469 428.178575) scale(0.1 -0.1)">
     <defs>
      <path id="DejaVuSans-4e" d="M 628 4666 
L 1478 4666 
L 3547 763 
L 3547 4666 
L 4159 4666 
L 4159 0 
L 3309 0 
L 1241 3903 
L 1241 0 
L 628 0 
L 628 4666 
z
" transform="scale(0.015625)"/>
      <path id="DejaVuSans-4b" d="M 628 4666 
L 1259 4666 
L 1259 2694 
L 3353 4666 
L 4166 4666 
L 1850 2491 
L 4331 0 
L 3500 0 
L 1259 2247 
L 1259 0 
L 628 0 
L 628 4666 
z
" transform="scale(0.015625)"/>
     </defs>
     <use xlink:href="#DejaVuSans-4e"/>
     <use xlink:href="#DejaVuSans-4b" x="74.804688"/>
    </g>
   </g>
  </g>
  <g id="axes_3">
   <g id="patch_13">
    <path d="M 663.552 439.1424 
L 995.328 439.1424 
L 995.328 411.696 
L 663.552 411.696 
z
" style="fill: #d9d9d9"/>
   </g>
   <g id="matplotlib.axis_5"/>
   <g id="matplotlib.axis_6"/>
   <g id="patch_14">
    <path d="M 663.552 439.1424 
L 663.552 411.696 
" style="fill: none; stroke: #000000; stroke-width: 0.8; stroke-linejoin: miter; stroke-linecap: square"/>
   </g>
   <g id="patch_15">
    <path d="M 995.328 439.1424 
L 995.328 411.696 
" style="fill: none; stroke: #000000; stroke-width: 0.8; stroke-linejoin: miter; stroke-linecap: square"/>
   </g>
   <g id="patch_16">
    <path d="M 663.552 439.1424 
L 995.328 439.1424 
" style="fill: none; stroke: #000000; stroke-width: 0.8; stroke-linejoin: miter; stroke-linecap: square"/>
   </g>
   <g id="patch_17">
    <path d="M 663.552 411.696 
L 995.328 411.696 
" style="fill: none; stroke: #000000; stroke-width: 0.8; stroke-linejoin: miter; stroke-linecap: square"/>
   </g>
   <g id="text_27">
    <!-- anytime -->
    <g transform="translate(808.951719 428.178575) scale(0.1 -0.1)">
     <use xlink:href="#DejaVuSans-61"/>
     <use xlink:href="#DejaVuSans-6e" x="61.279297"/>
     <use xlink:href="#DejaVuSans-79" x="124.658203"/>
     <use xlink:href="#DejaVuSans-74" x="183.837891"/>
     <use xlink:href="#DejaVuSans-69" x="223.046875"/>
     <use xlink:href="#DejaVuSans-6d" x="250.830078"/>
     <use xlink:href="#DejaVuSans-65" x="348.242188"/>
    </g>
   </g>
  </g>
  <g id="axes_4">
   <g id="patch_18">
    <path d="M 663.552 472.07808 
L 829.44 472.07808 
L 829.44 444.63168 
L 663.552 444.63168 
z
" style="fill: #d9d9d9"/>
   </g>
   <g id="matplotlib.axis_7"/>
   <g id="matplotlib.axis_8"/>
   <g id="patch_19">
    <path d="M 663.552 472.07808 
L 663.552 444.63168 
" style="fill: none; stroke: #000000; stroke-width: 0.8; stroke-linejoin: miter; stroke-linecap: square"/>
   </g>
   <g id="patch_20">
    <path d="M 829.44 472.07808 
L 829.44 444.63168 
" style="fill: none; stroke: #000000; stroke-width: 0.8; stroke-linejoin: miter; stroke-linecap: square"/>
   </g>
   <g id="patch_21">
    <path d="M 663.552 472.07808 
L 829.44 472.07808 
" style="fill: none; stroke: #000000; stroke-width: 0.8; stroke-linejoin: miter; stroke-linecap: square"/>
   </g>
   <g id="patch_22">
    <path d="M 663.552 444.63168 
L 829.44 444.63168 
" style="fill: none; stroke: #000000; stroke-width: 0.8; stroke-linejoin: miter; stroke-linecap: square"/>
   </g>
   <g id="text_28">
    <!-- log scale -->
    <g transform="translate(724.400688 461.114255) scale(0.1 -0.1)">
     <defs>
      <path id="DejaVuSans-20" transform="scale(0.015625)"/>
     </defs>
     <use xlink:href="#DejaVuSans-6c"/>
     <use xlink:href="#DejaVuSans-6f" x="27.783203"/>
     <use xlink:href="#DejaVuSans-67" x="88.964844"/>
     <use xlink:href="#DejaVuSans-20" x="152.441406"/>
     <use xlink:href="#DejaVuSans-73" x="184.228516"/>
     <use xlink:href="#DejaVuSans-63" x="236.328125"/>
     <use xlink:href="#DejaVuSans-61" x="291.308594"/>
     <use xlink:href="#DejaVuSans-6c" x="352.587891"/>
     <use xlink:href="#DejaVuSans-65" x="380.371094"/>
    </g>
   </g>
  </g>
  <g id="axes_5">
   <g id="patch_23">
    <path d="M 110.592 472.07808 
L 221.184 472.07808 
L 221.184 444.63168 
L 110.592 444.63168 
z
" style="fill: #d9d9d9"/>
   </g>
   <g id="matplotlib.axis_9"/>
   <g id="matplotlib.axis_10"/>
   <g id="patch_24">
    <path d="M 110.592 472.07808 
L 110.592 444.63168 
" style="fill: none; stroke: #000000; stroke-width: 0.8; stroke-linejoin: miter; stroke-linecap: square"/>
   </g>
   <g id="patch_25">
    <path d="M 221.184 472.07808 
L 221.184 444.63168 
" style="fill: none; stroke: #000000; stroke-width: 0.8; stroke-linejoin: miter; stroke-linecap: square"/>
   </g>
   <g id="patch_26">
    <path d="M 110.592 472.07808 
L 221.184 472.07808 
" style="fill: none; stroke: #000000; stroke-width: 0.8; stroke-linejoin: miter; stroke-linecap: square"/>
   </g>
   <g id="patch_27">
    <path d="M 110.592 444.63168 
L 221.184 444.63168 
" style="fill: none; stroke: #000000; stroke-width: 0.8; stroke-linejoin: miter; stroke-linecap: square"/>
   </g>
   <g id="text_29">
    <!-- N50 -->
    <g transform="translate(155.784875 461.114255) scale(0.1 -0.1)">
     <use xlink:href="#DejaVuSans-4e"/>
     <use xlink:href="#DejaVuSans-35" x="74.804688"/>
     <use xlink:href="#DejaVuSans-30" x="138.427734"/>
    </g>
   </g>
  </g>
  <g id="axes_6">
   <g id="patch_28">
    <path d="M 232.2432 472.07808 
L 342.8352 472.07808 
L 342.8352 444.63168 
L 232.2432 444.63168 
z
" style="fill: #d9d9d9"/>
   </g>
   <g id="matplotlib.axis_11"/>
   <g id="matplotlib.axis_12"/>
   <g id="patch_29">
    <path d="M 232.2432 472.07808 
L 232.2432 444.63168 
" style="fill: none; stroke: #000000; stroke-width: 0.8; stroke-linejoin: miter; stroke-linecap: square"/>
   </g>
   <g id="patch_30">
    <path d="M 342.8352 472.07808 
L 342.8352 444.63168 
" style="fill: none; stroke: #000000; stroke-width: 0.8; stroke-linejoin: miter; stroke-linecap: square"/>
   </g>
   <g id="patch_31">
    <path d="M 232.2432 472.07808 
L 342.8352 472.07808 
" style="fill: none; stroke: #000000; stroke-width: 0.8; stroke-linejoin: miter; stroke-linecap: square"/>
   </g>
   <g id="patch_32">
    <path d="M 232.2432 444.63168 
L 342.8352 444.63168 
" style="fill: none; stroke: #000000; stroke-width: 0.8; stroke-linejoin: miter; stroke-linecap: square"/>
   </g>
   <g id="text_30">
    <!-- K2 -->
    <g transform="translate(281.079044 461.114255) scale(0.1 -0.1)">
     <use xlink:href="#DejaVuSans-4b"/>
     <use xlink:href="#DejaVuSans-32" x="65.576172"/>
    </g>
   </g>
  </g>
  <g id="axes_7">
   <g id="patch_33">
    <path d="M 353.8944 472.07808 
L 464.4864 472.07808 
L 464.4864 444.63168 
L 353.8944 444.63168 
z
" style="fill: #d9d9d9"/>
   </g>
   <g id="matplotlib.axis_13"/>
   <g id="matplotlib.axis_14"/>
   <g id="patch_34">
    <path d="M 353.8944 472.07808 
L 353.8944 444.63168 
" style="fill: none; stroke: #000000; stroke-width: 0.8; stroke-linejoin: miter; stroke-linecap: square"/>
   </g>
   <g id="patch_35">
    <path d="M 464.4864 472.07808 
L 464.4864 444.63168 
" style="fill: none; stroke: #000000; stroke-width: 0.8; stroke-linejoin: miter; stroke-linecap: square"/>
   </g>
   <g id="patch_36">
    <path d="M 353.8944 472.07808 
L 464.4864 472.07808 
" style="fill: none; stroke: #000000; stroke-width: 0.8; stroke-linejoin: miter; stroke-linecap: square"/>
   </g>
   <g id="patch_37">
    <path d="M 353.8944 444.63168 
L 464.4864 444.63168 
" style="fill: none; stroke: #000000; stroke-width: 0.8; stroke-linejoin: miter; stroke-linecap: square"/>
   </g>
   <g id="text_31">
    <!-- AVG -->
    <g transform="translate(398.794306 461.114255) scale(0.1 -0.1)">
     <defs>
      <path id="DejaVuSans-41" d="M 2188 4044 
L 1331 1722 
L 3047 1722 
L 2188 4044 
z
M 1831 4666 
L 2547 4666 
L 4325 0 
L 3669 0 
L 3244 1197 
L 1141 1197 
L 716 0 
L 50 0 
L 1831 4666 
z
" transform="scale(0.015625)"/>
      <path id="DejaVuSans-56" d="M 1831 0 
L 50 4666 
L 709 4666 
L 2188 738 
L 3669 4666 
L 4325 4666 
L 2547 0 
L 1831 0 
z
" transform="scale(0.015625)"/>
      <path id="DejaVuSans-47" d="M 3809 666 
L 3809 1919 
L 2778 1919 
L 2778 2438 
L 4434 2438 
L 4434 434 
Q 4069 175 3628 42 
Q 3188 -91 2688 -91 
Q 1594 -91 976 548 
Q 359 1188 359 2328 
Q 359 3472 976 4111 
Q 1594 4750 2688 4750 
Q 3144 4750 3555 4637 
Q 3966 4525 4313 4306 
L 4313 3634 
Q 3963 3931 3569 4081 
Q 3175 4231 2741 4231 
Q 1884 4231 1454 3753 
Q 1025 3275 1025 2328 
Q 1025 1384 1454 906 
Q 1884 428 2741 428 
Q 3075 428 3337 486 
Q 3600 544 3809 666 
z
" transform="scale(0.015625)"/>
     </defs>
     <use xlink:href="#DejaVuSans-41"/>
     <use xlink:href="#DejaVuSans-56" x="62.033203"/>
     <use xlink:href="#DejaVuSans-47" x="130.441406"/>
    </g>
   </g>
  </g>
 </g>
 <defs>
  <clipPath id="p1e596f0638">
   <rect x="110.592" y="27.4464" width="884.736" height="329.3568"/>
  </clipPath>
 </defs>
</svg>
